<svg width="97" height="18" viewBox="0 0 97 18" fill="none" xmlns="http://www.w3.org/2000/svg">
<path d="M28.5289 7.67513C30.8294 6.74301 31.6822 5.48365 31.6822 3.92681C31.6822 1.20977 29.3122 0 25.4251 0H18.4739C18.9102 0.664384 19.3266 1.37835 19.3266 2.4493V7.8437C17.2839 8.25027 15.4494 8.59733 13.724 9.01381C12.1771 4.74985 10.4517 0 10.4517 0H6.1282C6.19761 0.594971 6.13812 1.22961 5.8208 2.09232L0.981702 15.5783C0.981702 15.5783 0.664384 16.5303 0 17.3831H3.54008C3.47066 16.917 3.55991 16.3022 3.6789 15.9254C4.03589 14.8644 4.99776 14.1603 6.01912 13.7042C7.34789 13.0993 9.65836 12.3754 10.7491 12.0482L11.8994 15.3403C11.8994 15.3403 12.3655 16.5799 12.1176 17.3831H17.1153C16.3617 16.3617 16.1039 15.5982 16.1039 15.5783C15.9849 15.261 15.3304 13.4364 14.4875 11.1359C16.0146 10.769 17.6111 10.4616 19.3266 10.1244V14.9139C19.3266 15.8361 18.9498 16.6493 18.4739 17.3732H25.078C26.1589 17.3732 27.1208 17.3137 27.8446 17.1847C30.6807 16.6889 32.7135 15.2412 32.7135 12.1572C32.7234 9.79719 31.1368 8.38909 28.5289 7.67513ZM6.19762 11.2648C5.78114 11.4631 5.24566 11.7903 4.93826 12.0977C5.89021 9.32121 7.19915 5.50348 7.83379 3.69874L10.0153 9.9261C8.91465 10.2434 7.21898 10.7789 6.19762 11.2648ZM23.184 2.17164C23.8683 2.13198 24.1162 2.13198 24.5624 2.13198C26.6944 2.13198 27.686 3.02444 27.686 4.28379C27.686 5.48365 26.8927 6.22736 25.5738 6.62401C25.0185 6.79259 24.0963 6.98099 23.184 7.13965V2.17164V2.17164ZM24.7905 15.2213H23.194V9.43029C23.7889 9.29147 24.7409 9.12289 25.3656 9.05348C27.2893 9.49971 28.7074 10.293 28.7074 12.2564C28.6974 14.547 27.0216 15.2213 24.7905 15.2213Z" fill="black"/>
<path d="M34.5083 17.3832C35.3611 16.104 35.3611 14.9438 35.3611 14.924V2.46922C35.3611 2.44939 35.3611 1.29911 34.5083 0.0100098H40.0911C39.2383 1.29911 39.2383 2.44939 39.2383 2.46922V14.924C39.2383 14.9438 39.2383 16.104 40.0911 17.3832H34.5083V17.3832Z" fill="black"/>
<path d="M96.9999 5.14648H93.2615C93.5788 5.66213 93.4499 6.48517 93.1227 7.31813L90.7031 13.7736L88.1943 7.31813C87.8572 6.48517 87.7382 5.66213 88.0555 5.14648H83.2263C83.8907 5.85053 84.3072 6.75291 84.5452 7.31813L88.7001 17.3831H91.9327C91.9327 17.3831 92.0121 16.56 92.379 15.6378L95.7207 7.31813C95.9488 6.74299 96.4248 5.75137 96.9999 5.14648Z" fill="black"/>
<path d="M83.7223 11.6218C83.9603 9.06345 83.2563 4.61108 77.6041 4.61108C72.993 4.61108 71.2974 7.82393 71.2974 10.9574C71.2974 14.9437 73.469 17.6806 78.6651 17.6806C80.7772 17.6806 82.4828 17.0559 83.4943 16.4411L82.4531 14.1405C81.4714 14.6363 80.2715 15.0727 78.9328 15.0727C76.6124 15.0727 75.1845 14.2595 74.8771 11.959H79.8947C81.7391 11.9689 83.2364 11.8598 83.7223 11.6218ZM74.887 9.85675C75.1151 7.88342 75.9976 6.88189 77.6041 6.88189C79.27 6.88189 80.093 8.17099 80.1624 9.83691C80.1624 9.83691 79.4286 9.85675 78.4767 9.85675H74.887Z" fill="black"/>
<path d="M49.6403 17.3832H54.5885C53.8349 16.2527 53.8349 15.2214 53.8349 15.2115V8.67675C53.8349 6.33653 52.5755 4.89868 49.918 4.89868C48.2223 4.89868 46.8241 5.66223 45.7928 6.59435V5.14659H41.5884C42.342 6.28695 42.342 7.30831 42.342 7.31823V15.2016C42.342 15.2214 42.342 16.2428 41.5884 17.3732H46.5465C45.7928 16.2428 45.7928 15.2115 45.7928 15.2016V8.67675C46.4275 8.02228 47.3299 7.5463 48.3215 7.5463C49.8386 7.5463 50.3939 8.38918 50.3939 9.69811V15.2016C50.3939 15.2214 50.394 16.2428 49.6403 17.3832Z" fill="black"/>
<path d="M62.4621 9.18248C64.9015 9.18248 66.2401 10.3724 66.2401 12.2962C66.2401 14.0216 65.2089 15.2809 62.4026 15.2809H60.7267V9.18248H62.4621ZM62.0952 2.11224C64.2272 2.11224 65.2188 2.9452 65.2188 4.51196C65.2188 6.0688 64.3263 7.00092 62.2737 7.00092C61.877 7.00092 61.1531 7.01084 60.7267 7.00092V2.11224H62.0952ZM62.5414 17.3832C63.6223 17.3832 64.6238 17.3237 65.3477 17.1948C68.1341 16.7089 70.1967 15.2809 70.1967 12.2069C70.1967 9.73779 68.62 8.4586 66.141 7.74463C68.3622 6.90176 69.1059 5.69198 69.1059 4.11531C69.1059 1.39828 66.8946 0.0100098 62.9083 0.0100098H56.2446C56.7107 0.714059 56.8694 1.73543 56.8694 2.46922V14.924C56.8694 15.7371 56.7206 16.5899 56.2446 17.3832H62.5414V17.3832Z" fill="black"/>
</svg>
