<svg width="97" height="44" viewBox="0 0 97 44" fill="none" xmlns="http://www.w3.org/2000/svg">
<path d="M28.5289 20.6751C30.8294 19.743 31.6822 18.4837 31.6822 16.9268C31.6822 14.2098 29.3122 13 25.4251 13H18.4739C18.9102 13.6644 19.3266 14.3783 19.3266 15.4493V20.8437C17.2839 21.2503 15.4494 21.5973 13.724 22.0138C12.1771 17.7499 10.4517 13 10.4517 13H6.1282C6.19761 13.595 6.13812 14.2296 5.8208 15.0923L0.981702 28.5783C0.981702 28.5783 0.664384 29.5303 0 30.3831H3.54008C3.47066 29.917 3.55991 29.3022 3.6789 28.9254C4.03589 27.8644 4.99776 27.1603 6.01912 26.7042C7.34789 26.0993 9.65836 25.3754 10.7491 25.0482L11.8994 28.3403C11.8994 28.3403 12.3655 29.5799 12.1176 30.3831H17.1153C16.3617 29.3617 16.1039 28.5982 16.1039 28.5783C15.9849 28.261 15.3304 26.4364 14.4875 24.1359C16.0146 23.769 17.6111 23.4616 19.3266 23.1244V27.9139C19.3266 28.8361 18.9498 29.6493 18.4739 30.3732H25.078C26.1589 30.3732 27.1208 30.3137 27.8446 30.1847C30.6807 29.6889 32.7135 28.2412 32.7135 25.1572C32.7234 22.7972 31.1368 21.3891 28.5289 20.6751ZM6.19762 24.2648C5.78114 24.4631 5.24566 24.7903 4.93826 25.0977C5.89021 22.3212 7.19915 18.5035 7.83379 16.6987L10.0153 22.9261C8.91465 23.2434 7.21898 23.7789 6.19762 24.2648ZM23.184 15.1716C23.8683 15.132 24.1162 15.132 24.5624 15.132C26.6944 15.132 27.686 16.0244 27.686 17.2838C27.686 18.4837 26.8927 19.2274 25.5738 19.624C25.0185 19.7926 24.0963 19.981 23.184 20.1397V15.1716V15.1716ZM24.7905 28.2213H23.194V22.4303C23.7889 22.2915 24.7409 22.1229 25.3656 22.0535C27.2893 22.4997 28.7074 23.293 28.7074 25.2564C28.6974 27.547 27.0216 28.2213 24.7905 28.2213Z" fill="#C4C4C4"/>
<path d="M34.5083 30.3832C35.3611 29.104 35.3611 27.9438 35.3611 27.924V15.4692C35.3611 15.4494 35.3611 14.2991 34.5083 13.01H40.0911C39.2383 14.2991 39.2383 15.4494 39.2383 15.4692V27.924C39.2383 27.9438 39.2383 29.104 40.0911 30.3832H34.5083V30.3832Z" fill="#C4C4C4"/>
<path d="M97.0001 18.1465H93.2617C93.5791 18.6621 93.4501 19.4852 93.1229 20.3181L90.7034 26.7736L88.1946 20.3181C87.8574 19.4852 87.7384 18.6621 88.0557 18.1465H83.2266C83.8909 18.8505 84.3074 19.7529 84.5454 20.3181L88.7003 30.3831H91.933C91.933 30.3831 92.0123 29.56 92.3792 28.6378L95.721 20.3181C95.949 19.743 96.425 18.7514 97.0001 18.1465Z" fill="#C4C4C4"/>
<path d="M83.7223 24.6218C83.9603 22.0635 83.2563 17.6111 77.6041 17.6111C72.993 17.6111 71.2974 20.8239 71.2974 23.9574C71.2974 27.9437 73.469 30.6806 78.6651 30.6806C80.7772 30.6806 82.4828 30.0559 83.4943 29.4411L82.4531 27.1405C81.4714 27.6363 80.2715 28.0727 78.9328 28.0727C76.6124 28.0727 75.1845 27.2595 74.8771 24.959H79.8947C81.7391 24.9689 83.2364 24.8598 83.7223 24.6218ZM74.887 22.8567C75.1151 20.8834 75.9976 19.8819 77.6041 19.8819C79.27 19.8819 80.093 21.171 80.1624 22.8369C80.1624 22.8369 79.4286 22.8567 78.4767 22.8567H74.887Z" fill="#C4C4C4"/>
<path d="M49.6403 30.3832H54.5885C53.8349 29.2527 53.8349 28.2214 53.8349 28.2115V21.6767C53.8349 19.3365 52.5755 17.8987 49.918 17.8987C48.2223 17.8987 46.8241 18.6622 45.7928 19.5943V18.1466H41.5884C42.342 19.2869 42.342 20.3083 42.342 20.3182V28.2016C42.342 28.2214 42.342 29.2428 41.5884 30.3732H46.5465C45.7928 29.2428 45.7928 28.2115 45.7928 28.2016V21.6767C46.4275 21.0223 47.3299 20.5463 48.3215 20.5463C49.8386 20.5463 50.3939 21.3892 50.3939 22.6981V28.2016C50.3939 28.2214 50.394 29.2428 49.6403 30.3832Z" fill="#C4C4C4"/>
<path d="M62.4621 22.1825C64.9015 22.1825 66.2401 23.3724 66.2401 25.2962C66.2401 27.0216 65.2089 28.2809 62.4026 28.2809H60.7267V22.1825H62.4621ZM62.0952 15.1122C64.2272 15.1122 65.2188 15.9452 65.2188 17.512C65.2188 19.0688 64.3263 20.0009 62.2737 20.0009C61.877 20.0009 61.1531 20.0108 60.7267 20.0009V15.1122H62.0952ZM62.5414 30.3832C63.6223 30.3832 64.6238 30.3237 65.3477 30.1948C68.1341 29.7089 70.1967 28.2809 70.1967 25.2069C70.1967 22.7378 68.62 21.4586 66.141 20.7446C68.3622 19.9018 69.1059 18.692 69.1059 17.1153C69.1059 14.3983 66.8946 13.01 62.9083 13.01H56.2446C56.7107 13.7141 56.8694 14.7354 56.8694 15.4692V27.924C56.8694 28.7371 56.7206 29.5899 56.2446 30.3832H62.5414V30.3832Z" fill="#C4C4C4"/>
</svg>
