<svg width="138" height="31" viewBox="0 0 138 31" fill="none" xmlns="http://www.w3.org/2000/svg">
<path d="M22.975 21.76C22.975 22.04 22.895 22.18 22.735 22.18C22.045 22.18 21.265 22.15 20.395 22.09C19.645 22.03 19.005 22 18.475 22C17.865 22 17.11 22.03 16.21 22.09C15.26 22.15 14.45 22.18 13.78 22.18C13.62 22.18 13.54 22.04 13.54 21.76C13.54 21.48 13.6 21.34 13.72 21.34C14.61 21.3 15.25 21.185 15.64 20.995C16.03 20.795 16.225 20.49 16.225 20.08C16.225 19.82 16.125 19.405 15.925 18.835L14.23 13.81H8.05L6.34 18.46C6.12 19.08 6.01 19.56 6.01 19.9C6.01 20.78 6.82 21.26 8.44 21.34C8.56 21.34 8.62 21.48 8.62 21.76C8.62 22.04 8.54 22.18 8.38 22.18C7.78 22.18 7.115 22.15 6.385 22.09C5.695 22.03 5.08 22 4.54 22C4.11 22 3.57 22.03 2.92 22.09C2.24 22.15 1.66 22.18 1.18 22.18C1.03 22.18 0.955 22.055 0.955 21.805C0.955 21.525 1.07 21.375 1.3 21.355C2.13 21.275 2.785 21.045 3.265 20.665C3.755 20.285 4.26 19.51 4.78 18.34L11.8 1.105C11.86 0.945 12 0.864999 12.22 0.864999C12.46 0.864999 12.61 0.939999 12.67 1.09L18.865 18.34C19.215 19.31 19.685 20.025 20.275 20.485C20.875 20.945 21.675 21.235 22.675 21.355C22.875 21.375 22.975 21.51 22.975 21.76ZM13.9 12.85L11.26 5.185L8.41 12.85H13.9ZM37.6862 10.99C37.6862 11.53 37.5562 11.8 37.2963 11.8L35.3912 11.74C35.6112 12.31 35.7212 12.89 35.7212 13.48C35.7212 14.92 35.1912 16.12 34.1312 17.08C33.0812 18.04 31.7912 18.52 30.2612 18.52H29.6612C28.8612 18.52 28.2262 18.625 27.7562 18.835C27.2862 19.045 27.0512 19.29 27.0512 19.57C27.0512 19.92 27.2462 20.21 27.6362 20.44C28.0262 20.66 28.5712 20.775 29.2712 20.785L32.7512 20.83C34.2512 20.86 35.4163 21.175 36.2463 21.775C37.0863 22.375 37.5063 23.21 37.5063 24.28C37.5063 25.9 36.6263 27.315 34.8663 28.525C33.1063 29.735 31.0212 30.34 28.6112 30.34C27.0312 30.34 25.7012 29.955 24.6212 29.185C23.5412 28.415 23.0012 27.48 23.0012 26.38C23.0012 25.64 23.3412 24.915 24.0212 24.205C24.7112 23.505 25.5212 22.99 26.4512 22.66C25.8312 22.38 25.3262 21.985 24.9362 21.475C24.5462 20.955 24.3512 20.44 24.3512 19.93C24.3512 19.57 24.7162 19.185 25.4462 18.775C26.1862 18.365 26.9512 18.09 27.7412 17.95C26.8812 17.53 26.2112 16.97 25.7312 16.27C25.2512 15.57 25.0112 14.79 25.0112 13.93C25.0112 12.55 25.5412 11.345 26.6012 10.315C27.6712 9.285 28.9412 8.77 30.4112 8.77C31.1912 8.77 31.9562 8.905 32.7062 9.175C33.4662 9.445 34.0912 9.81 34.5813 10.27L37.2963 10.18C37.5562 10.18 37.6862 10.45 37.6862 10.99ZM32.9012 13.45C32.9012 12.17 32.7012 11.23 32.3012 10.63C31.9112 10.03 31.2812 9.73 30.4112 9.73C28.7512 9.73 27.9212 11.13 27.9212 13.93C27.9212 15.2 28.1112 16.125 28.4912 16.705C28.8812 17.275 29.5212 17.56 30.4112 17.56C32.0712 17.56 32.9012 16.19 32.9012 13.45ZM35.6313 25.39C35.6313 24.7 35.4013 24.205 34.9412 23.905C34.4912 23.605 33.7312 23.445 32.6612 23.425L29.1812 23.35C28.4912 23.35 27.8812 23.25 27.3512 23.05C26.1312 23.72 25.5212 24.6 25.5212 25.69C25.5212 26.68 25.9362 27.48 26.7662 28.09C27.5962 28.71 28.6512 29.02 29.9312 29.02C31.4712 29.02 32.8062 28.67 33.9362 27.97C35.0662 27.27 35.6313 26.41 35.6313 25.39ZM50.7116 13.66C50.7116 13.94 50.5316 14.08 50.1716 14.08H41.9516C41.8916 14.62 41.8616 15.18 41.8616 15.76C41.8616 17.37 42.2416 18.61 43.0016 19.48C43.7716 20.34 44.8616 20.77 46.2716 20.77C46.9816 20.77 47.6966 20.58 48.4166 20.2C49.1366 19.82 49.7166 19.335 50.1566 18.745L50.2316 18.715C50.3216 18.715 50.4066 18.77 50.4866 18.88C50.5766 18.99 50.6216 19.12 50.6216 19.27C50.6216 19.48 50.3016 19.92 49.6616 20.59C49.0216 21.25 48.3266 21.755 47.5766 22.105C46.8266 22.455 46.0416 22.63 45.2216 22.63C43.4216 22.63 41.9066 21.97 40.6766 20.65C39.4466 19.33 38.8316 17.71 38.8316 15.79C38.8316 13.83 39.4316 12.17 40.6316 10.81C41.8416 9.45 43.3716 8.77 45.2216 8.77C46.7716 8.77 48.0716 9.28 49.1216 10.3C50.1816 11.31 50.7116 12.43 50.7116 13.66ZM47.9816 12.34C47.9816 11.59 47.7216 10.97 47.2016 10.48C46.6916 9.98 46.0316 9.73 45.2216 9.73C44.4516 9.73 43.7816 10.055 43.2116 10.705C42.6516 11.345 42.2716 12.19 42.0716 13.24L46.2416 13.12C46.8716 13.11 47.3166 13.05 47.5766 12.94C47.8466 12.83 47.9816 12.63 47.9816 12.34ZM68.3898 21.76C68.3898 22.04 68.3098 22.18 68.1498 22.18C67.7498 22.18 67.2598 22.15 66.6798 22.09C66.0398 22.03 65.4748 22 64.9848 22C64.4848 22 63.9098 22.03 63.2598 22.09C62.6698 22.15 62.1748 22.18 61.7748 22.18C61.6148 22.18 61.5348 22.04 61.5348 21.76C61.5348 21.51 61.6148 21.375 61.7748 21.355C62.4648 21.275 62.9148 21.08 63.1248 20.77C63.3448 20.46 63.4548 19.81 63.4548 18.82V13.81C63.4548 12.69 63.2348 11.87 62.7948 11.35C62.3548 10.83 61.6748 10.57 60.7548 10.57C60.1748 10.57 59.6598 10.68 59.2098 10.9C58.7698 11.12 58.2948 11.51 57.7848 12.07V18.82C57.7848 19.81 57.8898 20.46 58.0998 20.77C58.3198 21.08 58.7748 21.275 59.4648 21.355C59.6248 21.375 59.7048 21.51 59.7048 21.76C59.7048 22.04 59.6248 22.18 59.4648 22.18C59.0548 22.18 58.5548 22.15 57.9648 22.09C57.3148 22.03 56.7448 22 56.2548 22C55.7748 22 55.2148 22.03 54.5748 22.09C53.9848 22.15 53.4848 22.18 53.0748 22.18C52.9148 22.18 52.8348 22.04 52.8348 21.76C52.8348 21.51 52.9148 21.375 53.0748 21.355C53.9348 21.245 54.4898 21.04 54.7398 20.74C54.9898 20.43 55.1148 19.79 55.1148 18.82V13.27C55.1148 12.47 55.0098 11.945 54.7998 11.695C54.5998 11.445 54.1448 11.28 53.4348 11.2C53.2748 11.2 53.1948 11.07 53.1948 10.81C53.1948 10.57 53.2748 10.45 53.4348 10.45C54.4248 10.2 55.2498 9.92 55.9098 9.61C56.5698 9.29 56.9848 9.03 57.1548 8.83C57.2548 8.71 57.3648 8.65 57.4848 8.65C57.7648 8.65 57.9048 8.73 57.9048 8.89L57.7848 10.78C59.2248 9.44 60.5648 8.77 61.8048 8.77C63.1648 8.77 64.2248 9.16 64.9848 9.94C65.7548 10.72 66.1398 11.77 66.1398 13.09V18.82C66.1398 19.8 66.2598 20.44 66.4998 20.74C66.7498 21.04 67.2998 21.245 68.1498 21.355C68.3098 21.375 68.3898 21.51 68.3898 21.76ZM81.4804 11.14C81.4804 11.96 81.0704 12.37 80.2504 12.37C79.9004 12.37 79.6104 12.295 79.3804 12.145C79.1604 11.995 78.9354 11.67 78.7054 11.17C78.4354 10.58 78.1454 10.195 77.8354 10.015C77.5354 9.825 77.1404 9.73 76.6504 9.73C75.4404 9.73 74.5154 10.235 73.8754 11.245C73.2454 12.245 72.9304 13.71 72.9304 15.64C72.9304 17.25 73.3304 18.55 74.1304 19.54C74.9304 20.52 76.0004 21.01 77.3404 21.01C78.8604 21.01 80.0654 20.535 80.9554 19.585L81.0304 19.555C81.1204 19.555 81.2054 19.615 81.2854 19.735C81.3754 19.845 81.4204 19.97 81.4204 20.11C81.4204 20.31 81.1254 20.655 80.5354 21.145C79.9554 21.635 79.3154 22.005 78.6154 22.255C77.9254 22.505 77.1904 22.63 76.4104 22.63C74.6204 22.63 73.0854 21.975 71.8054 20.665C70.5354 19.345 69.9004 17.68 69.9004 15.67C69.9004 13.68 70.5654 12.035 71.8954 10.735C73.2354 9.425 74.8204 8.77 76.6504 8.77C78.0004 8.77 79.1404 9.005 80.0704 9.475C81.0104 9.935 81.4804 10.49 81.4804 11.14ZM97.6478 9.67C97.6478 9.93 97.5678 10.07 97.4078 10.09C96.7278 10.16 96.2028 10.36 95.8328 10.69C95.4728 11.01 95.0728 11.65 94.6328 12.61L87.5528 27.91C86.7628 29.55 85.8428 30.37 84.7928 30.37C84.2828 30.37 83.8728 30.23 83.5628 29.95C83.2628 29.68 83.1128 29.33 83.1128 28.9C83.1128 28.45 83.2628 28.08 83.5628 27.79C83.8728 27.51 84.2828 27.37 84.7928 27.37C85.0328 27.37 85.3078 27.445 85.6178 27.595C85.8178 27.685 85.9628 27.73 86.0528 27.73C86.4228 27.73 86.8578 27.17 87.3578 26.05L89.1728 22L85.3028 12.61C84.9328 11.7 84.5578 11.075 84.1778 10.735C83.8078 10.385 83.3028 10.17 82.6628 10.09C82.5028 10.07 82.4228 9.93 82.4228 9.67C82.4228 9.39 82.5028 9.25 82.6628 9.25C83.0728 9.25 83.5728 9.28 84.1628 9.34C84.8228 9.4 85.4028 9.43 85.9028 9.43C86.3928 9.43 87.0028 9.4 87.7328 9.34C88.3828 9.28 88.9128 9.25 89.3228 9.25C89.4828 9.25 89.5628 9.39 89.5628 9.67C89.5628 9.93 89.4828 10.07 89.3228 10.09C88.2628 10.22 87.7328 10.52 87.7328 10.99C87.7328 11.32 87.8778 11.86 88.1678 12.61L90.6128 18.88L93.2828 12.61C93.5228 12.04 93.6428 11.57 93.6428 11.2C93.6428 10.57 93.1628 10.195 92.2028 10.075C92.0428 10.055 91.9628 9.92 91.9628 9.67C91.9628 9.39 92.0428 9.25 92.2028 9.25C92.6228 9.25 93.0878 9.28 93.5978 9.34C94.0878 9.4 94.5328 9.43 94.9328 9.43C95.1328 9.43 95.4578 9.405 95.9078 9.355C96.5278 9.285 97.0278 9.25 97.4078 9.25C97.5678 9.25 97.6478 9.39 97.6478 9.67ZM119.863 15.79C119.863 17.78 119.213 19.42 117.913 20.71C116.623 21.99 114.948 22.63 112.888 22.63C110.828 22.63 109.148 21.985 107.848 20.695C106.548 19.405 105.898 17.77 105.898 15.79C105.898 13.78 106.553 12.11 107.863 10.78C109.173 9.44 110.848 8.77 112.888 8.77C114.938 8.77 116.613 9.435 117.913 10.765C119.213 12.095 119.863 13.77 119.863 15.79ZM116.848 15.76C116.848 13.93 116.493 12.47 115.783 11.38C115.083 10.28 114.118 9.73 112.888 9.73C111.668 9.73 110.703 10.28 109.993 11.38C109.283 12.48 108.928 13.94 108.928 15.76C108.928 17.57 109.278 19.01 109.978 20.08C110.678 21.14 111.648 21.67 112.888 21.67C114.128 21.67 115.098 21.145 115.798 20.095C116.498 19.035 116.848 17.59 116.848 15.76ZM134.177 1.795C134.177 2.205 134.022 2.53 133.712 2.77C133.402 3 132.977 3.115 132.437 3.115C131.957 3.115 131.472 2.93 130.982 2.56C130.572 2.25 130.207 2.095 129.887 2.095C129.207 2.095 128.627 2.475 128.147 3.235C127.667 3.985 127.427 5.005 127.427 6.295V9.79H130.787C131.027 9.79 131.147 10.06 131.147 10.6C131.147 11.14 131.027 11.41 130.787 11.41L127.397 11.29V18.82C127.397 19.8 127.517 20.44 127.757 20.74C127.997 21.04 128.547 21.245 129.407 21.355C129.567 21.375 129.647 21.51 129.647 21.76C129.647 22.04 129.567 22.18 129.407 22.18C128.997 22.18 128.477 22.15 127.847 22.09C127.137 22.03 126.537 22 126.047 22C125.547 22 124.947 22.03 124.247 22.09C123.617 22.15 123.097 22.18 122.687 22.18C122.527 22.18 122.447 22.04 122.447 21.76C122.447 21.51 122.527 21.375 122.687 21.355C123.537 21.245 124.082 21.04 124.322 20.74C124.572 20.44 124.697 19.8 124.697 18.82V11.65C124.697 11.37 124.577 11.23 124.337 11.23H122.807C122.607 11.23 122.507 11.1 122.507 10.84C122.507 10.58 122.597 10.43 122.777 10.39C124.057 10.1 124.697 9.82 124.697 9.55C124.697 7.13 125.432 5 126.902 3.16C128.382 1.31 130.087 0.384998 132.017 0.384998C132.687 0.384998 133.212 0.509999 133.592 0.76C133.982 1.01 134.177 1.355 134.177 1.795ZM137.041 20.74C137.041 21.22 136.871 21.635 136.531 21.985C136.191 22.335 135.781 22.51 135.301 22.51C134.821 22.51 134.406 22.335 134.056 21.985C133.706 21.635 133.531 21.22 133.531 20.74C133.531 20.26 133.706 19.85 134.056 19.51C134.406 19.17 134.821 19 135.301 19C135.781 19 136.191 19.17 136.531 19.51C136.871 19.85 137.041 20.26 137.041 20.74Z" fill="black"/>
</svg>
