<svg width="136" height="45" viewBox="0 0 136 45" fill="none" xmlns="http://www.w3.org/2000/svg">
<g clip-path="url(#clip0)">
<path d="M0 12.0024H9.97052C11.8697 12.0024 13.294 12.4751 14.3491 13.2629C15.5097 14.2083 16.1427 15.5739 16.1427 17.2545C16.1427 19.1978 15.3514 20.4058 13.7688 21.1411V21.2461C15.879 21.9289 17.0923 23.8197 17.0923 26.0781C17.0923 28.2314 16.2483 29.9121 14.8766 30.9625C13.7161 31.8029 12.2389 32.1705 10.2343 32.1705H0V12.0024ZM8.96819 19.8806C10.0233 19.8806 10.8146 19.3029 10.8146 18.0949C10.8146 16.9394 10.0233 16.3617 8.91544 16.3617H5.48642V19.8281H8.96819V19.8806ZM9.44298 27.7062C10.6563 27.7062 11.5531 26.9709 11.5531 25.6579C11.5531 24.2398 10.6036 23.6096 9.44298 23.6096H5.53918V27.7587H9.44298V27.7062Z" fill="#C4C4C4"/>
<path d="M17.9893 12.0024H23.2119V32.223H17.9893V12.0024Z" fill="#C4C4C4"/>
<path d="M24.2666 25.0277C24.2666 20.4583 27.2208 17.4121 31.8104 17.4121C36.4 17.4121 39.3015 20.5108 39.3015 25.0277C39.3015 29.597 36.4 32.6432 31.8104 32.6432C27.2208 32.6432 24.2666 29.597 24.2666 25.0277ZM34.0789 25.0277C34.0789 22.5066 33.2876 20.931 31.7049 20.931C30.1223 20.931 29.3837 22.5066 29.3837 25.0277C29.3837 27.5487 30.1223 29.1768 31.7049 29.1768C33.2876 29.1243 34.0789 27.5487 34.0789 25.0277Z" fill="#C4C4C4"/>
<path d="M39.8818 25.0277C39.8818 20.4583 42.8361 17.4121 47.4257 17.4121C52.0153 17.4121 54.864 20.4583 54.864 25.0277C54.864 29.597 51.9625 32.6432 47.3729 32.6432C42.8361 32.6432 39.8818 29.597 39.8818 25.0277ZM49.6941 25.0277C49.6941 22.5066 48.9028 20.931 47.3202 20.931C45.7375 20.931 44.999 22.5066 44.999 25.0277C44.999 27.5487 45.7375 29.1768 47.3202 29.1768C48.9028 29.1243 49.6941 27.5487 49.6941 25.0277Z" fill="#C4C4C4"/>
<path d="M55.9194 17.7798H60.7728V19.9331H60.8783C61.8279 18.2524 63.1467 17.3596 65.2569 17.3596C67.1033 17.3596 68.4749 18.2524 69.1607 19.8281H69.2662C70.4268 17.9373 71.9567 17.3596 73.7503 17.3596C77.1266 17.3596 78.5509 19.8281 78.5509 23.1369V32.1705H73.4865V24.0298C73.4865 22.5592 73.0118 21.6138 71.7457 21.6138C70.4796 21.6138 69.8465 22.7693 69.8465 24.3449V32.1705H64.7821V24.0298C64.7821 22.5592 64.3073 21.6138 63.0412 21.6138C61.7751 21.6138 61.1421 22.7693 61.1421 24.3449V32.1705H55.9194V17.7798Z" fill="#C4C4C4"/>
<path d="M84.934 30.2798H84.8812V32.1705H80.0278V12.0024H85.0922V19.2503H85.1977C86.1473 17.9898 87.4661 17.3071 89.3125 17.3071C92.9526 17.3071 95.0627 20.5634 95.0627 24.9226C95.0627 29.8071 92.7943 32.6432 88.996 32.6432C87.4134 32.6432 85.778 31.9079 84.934 30.2798ZM89.8401 24.8701C89.8401 22.5592 88.996 21.0361 87.4661 21.0361C85.8835 21.0361 84.934 22.5592 84.934 24.8701C84.934 27.181 85.9363 28.7041 87.4661 28.7041C88.996 28.7041 89.8401 27.2335 89.8401 24.8701Z" fill="#C4C4C4"/>
<path d="M95.6431 24.9751C95.6431 20.4583 98.6501 17.3596 102.976 17.3596C105.139 17.3596 106.774 18.0424 108.04 19.2503C109.728 20.8785 110.467 23.3995 110.414 26.3407H100.707C100.918 28.1264 101.763 29.0718 103.292 29.0718C104.189 29.0718 104.981 28.6516 105.297 27.7062H110.203C109.359 31.015 106.774 32.6432 103.134 32.6432C98.6501 32.5907 95.6431 29.5445 95.6431 24.9751ZM100.707 23.452H105.35C105.244 21.7188 104.295 20.826 103.081 20.826C101.657 20.7735 100.866 21.7714 100.707 23.452Z" fill="#C4C4C4"/>
<path d="M116.164 20.2482H116.27C117.325 18.2524 118.697 17.4646 120.437 17.4646C120.859 17.4646 121.123 17.5172 121.282 17.6222V22.034H121.176C118.169 21.5087 116.428 22.9268 116.428 26.1831V32.223H111.311V17.7798H116.164V20.2482Z" fill="#C4C4C4"/>
<path d="M121.809 32.223H126.715C126.926 32.8533 127.559 33.431 128.773 33.431C130.408 33.431 130.988 32.4331 130.988 30.91V29.8596H130.883C130.092 30.805 128.984 31.4877 127.401 31.4877C124.289 31.4877 121.545 29.1768 121.545 24.66C121.545 20.5108 123.761 17.3071 127.137 17.3071C129.089 17.3071 130.25 18.0949 131.041 19.3029H131.147V17.7272H136V30.2272C136 32.5382 135.209 34.3239 133.995 35.3743C132.729 36.4772 130.936 36.9499 128.878 36.9499C124.974 37.0024 122.284 35.4268 121.809 32.223ZM131.199 24.4499C131.199 22.6642 130.355 21.1936 128.878 21.1936C127.454 21.1936 126.557 22.4541 126.557 24.4499C126.557 26.3932 127.454 27.7587 128.878 27.7587C130.303 27.7587 131.199 26.3407 131.199 24.4499Z" fill="#C4C4C4"/>
</g>
<defs>
<clipPath id="clip0">
<rect width="136" height="25" fill="white" transform="translate(0 12.0024)"/>
</clipPath>
</defs>
</svg>
