<svg width="136" height="26" viewBox="0 0 136 26" fill="none" xmlns="http://www.w3.org/2000/svg">
<g clip-path="url(#clip0)">
<path d="M0 0.00244141H9.97052C11.8697 0.00244141 13.294 0.475131 14.3491 1.26295C15.5097 2.20832 16.1427 3.57387 16.1427 5.25454C16.1427 7.19782 15.3514 8.4058 13.7688 9.1411V9.24614C15.879 9.92891 17.0923 11.8197 17.0923 14.0781C17.0923 16.2314 16.2483 17.9121 14.8766 18.9625C13.7161 19.8029 12.2389 20.1705 10.2343 20.1705H0V0.00244141ZM8.96819 7.88059C10.0233 7.88059 10.8146 7.30286 10.8146 6.09488C10.8146 4.93942 10.0233 4.36169 8.91544 4.36169H5.48642V7.82807H8.96819V7.88059ZM9.44298 15.7062C10.6563 15.7062 11.5531 14.9709 11.5531 13.6579C11.5531 12.2398 10.6036 11.6096 9.44298 11.6096H5.53918V15.7587H9.44298V15.7062Z" fill="black"/>
<path d="M17.9893 0.00244141H23.2119V20.223H17.9893V0.00244141Z" fill="black"/>
<path d="M24.2666 13.0277C24.2666 8.45833 27.2208 5.41211 31.8104 5.41211C36.4 5.41211 39.3015 8.51085 39.3015 13.0277C39.3015 17.597 36.4 20.6432 31.8104 20.6432C27.2208 20.6432 24.2666 17.597 24.2666 13.0277ZM34.0789 13.0277C34.0789 10.5066 33.2876 8.93102 31.7049 8.93102C30.1223 8.93102 29.3837 10.5066 29.3837 13.0277C29.3837 15.5487 30.1223 17.1768 31.7049 17.1768C33.2876 17.1243 34.0789 15.5487 34.0789 13.0277Z" fill="black"/>
<path d="M39.8818 13.0277C39.8818 8.45833 42.8361 5.41211 47.4257 5.41211C52.0153 5.41211 54.864 8.45833 54.864 13.0277C54.864 17.597 51.9625 20.6432 47.3729 20.6432C42.8361 20.6432 39.8818 17.597 39.8818 13.0277ZM49.6941 13.0277C49.6941 10.5066 48.9028 8.93102 47.3202 8.93102C45.7375 8.93102 44.999 10.5066 44.999 13.0277C44.999 15.5487 45.7375 17.1768 47.3202 17.1768C48.9028 17.1243 49.6941 15.5487 49.6941 13.0277Z" fill="black"/>
<path d="M55.9194 5.77976H60.7728V7.93312H60.8783C61.8279 6.25245 63.1467 5.35959 65.2569 5.35959C67.1033 5.35959 68.4749 6.25245 69.1607 7.82808H69.2662C70.4268 5.93732 71.9567 5.35959 73.7503 5.35959C77.1266 5.35959 78.5509 7.82808 78.5509 11.1369V20.1705H73.4865V12.0298C73.4865 10.5592 73.0118 9.61379 71.7457 9.61379C70.4796 9.61379 69.8465 10.7693 69.8465 12.3449V20.1705H64.7821V12.0298C64.7821 10.5592 64.3073 9.61379 63.0412 9.61379C61.7751 9.61379 61.1421 10.7693 61.1421 12.3449V20.1705H55.9194V5.77976Z" fill="black"/>
<path d="M84.934 18.2798H84.8812V20.1705H80.0278V0.00244141H85.0922V7.25034H85.1977C86.1473 5.98984 87.4661 5.30706 89.3125 5.30706C92.9526 5.30706 95.0627 8.56337 95.0627 12.9226C95.0627 17.8071 92.7943 20.6432 88.996 20.6432C87.4134 20.6432 85.778 19.9079 84.934 18.2798ZM89.8401 12.8701C89.8401 10.5592 88.996 9.03606 87.4661 9.03606C85.8835 9.03606 84.934 10.5592 84.934 12.8701C84.934 15.181 85.9363 16.7041 87.4661 16.7041C88.996 16.7041 89.8401 15.2335 89.8401 12.8701Z" fill="black"/>
<path d="M95.6431 12.9751C95.6431 8.45833 98.6501 5.35959 102.976 5.35959C105.139 5.35959 106.774 6.04236 108.04 7.25034C109.728 8.8785 110.467 11.3995 110.414 14.3407H100.707C100.918 16.1264 101.763 17.0718 103.292 17.0718C104.189 17.0718 104.981 16.6516 105.297 15.7062H110.203C109.359 19.015 106.774 20.6432 103.134 20.6432C98.6501 20.5907 95.6431 17.5445 95.6431 12.9751ZM100.707 11.452H105.35C105.244 9.71883 104.295 8.82598 103.081 8.82598C101.657 8.77345 100.866 9.77135 100.707 11.452Z" fill="black"/>
<path d="M116.164 8.24824H116.27C117.325 6.25245 118.697 5.46463 120.437 5.46463C120.859 5.46463 121.123 5.51715 121.282 5.62219V10.034H121.176C118.169 9.50875 116.428 10.9268 116.428 14.1831V20.223H111.311V5.77976H116.164V8.24824Z" fill="black"/>
<path d="M121.809 20.223H126.715C126.926 20.8533 127.559 21.431 128.773 21.431C130.408 21.431 130.988 20.4331 130.988 18.91V17.8596H130.883C130.092 18.805 128.984 19.4877 127.401 19.4877C124.289 19.4877 121.545 17.1768 121.545 12.66C121.545 8.51085 123.761 5.30707 127.137 5.30707C129.089 5.30707 130.25 6.09488 131.041 7.30287H131.147V5.72724H136V18.2272C136 20.5382 135.209 22.3239 133.995 23.3743C132.729 24.4772 130.936 24.9499 128.878 24.9499C124.974 25.0024 122.284 23.4268 121.809 20.223ZM131.199 12.4499C131.199 10.6642 130.355 9.19362 128.878 9.19362C127.454 9.19362 126.557 10.4541 126.557 12.4499C126.557 14.3932 127.454 15.7587 128.878 15.7587C130.303 15.7587 131.199 14.3407 131.199 12.4499Z" fill="black"/>
</g>
<defs>
<clipPath id="clip0">
<rect width="136" height="25" fill="white" transform="translate(0 0.00244141)"/>
</clipPath>
</defs>
</svg>
