<svg width="8" height="16" viewBox="0 0 8 16" fill="none" xmlns="http://www.w3.org/2000/svg">
<mask id="path-1-inside-1" fill="white">
<path d="M7.99807 7.93889C7.98421 7.74065 7.90578 7.55288 7.7753 7.40557L1.51613 0.294679C1.43979 0.207848 1.34747 0.137242 1.24444 0.086895C1.1414 0.0365478 1.02968 0.00745067 0.915652 0.00125316C0.801621 -0.00494436 0.687512 0.0118892 0.579842 0.050785C0.472172 0.0896809 0.373049 0.149872 0.288135 0.227939C0.203221 0.306006 0.134178 0.400411 0.084949 0.505762C0.0357199 0.611113 0.00726878 0.725355 0.00122052 0.84195C-0.00482774 0.958544 0.0116453 1.07521 0.0496988 1.1853C0.0877523 1.29538 0.146641 1.39672 0.223002 1.48353L5.96057 8.00001L0.223002 14.5165C0.146641 14.6033 0.0877523 14.7046 0.0496988 14.8147C0.0116453 14.9248 -0.00482774 15.0414 0.00122052 15.158C0.00726878 15.2746 0.0357199 15.3889 0.084949 15.4942C0.134178 15.5996 0.203221 15.694 0.288135 15.7721C0.373049 15.8501 0.472172 15.9103 0.579842 15.9492C0.687512 15.9881 0.801621 16.0049 0.915652 15.9987C1.02968 15.9925 1.1414 15.9634 1.24444 15.9131C1.34747 15.8627 1.43979 15.7921 1.51613 15.7053L7.7753 8.59442C7.85353 8.50601 7.91356 8.40241 7.95184 8.2898C7.99011 8.17718 8.00583 8.05784 7.99807 7.93889Z"/>
</mask>
<path d="M7.99807 7.93889C7.98421 7.74065 7.90578 7.55288 7.7753 7.40557L1.51613 0.294679C1.43979 0.207848 1.34747 0.137242 1.24444 0.086895C1.1414 0.0365478 1.02968 0.00745067 0.915652 0.00125316C0.801621 -0.00494436 0.687512 0.0118892 0.579842 0.050785C0.472172 0.0896809 0.373049 0.149872 0.288135 0.227939C0.203221 0.306006 0.134178 0.400411 0.084949 0.505762C0.0357199 0.611113 0.00726878 0.725355 0.00122052 0.84195C-0.00482774 0.958544 0.0116453 1.07521 0.0496988 1.1853C0.0877523 1.29538 0.146641 1.39672 0.223002 1.48353L5.96057 8.00001L0.223002 14.5165C0.146641 14.6033 0.0877523 14.7046 0.0496988 14.8147C0.0116453 14.9248 -0.00482774 15.0414 0.00122052 15.158C0.00726878 15.2746 0.0357199 15.3889 0.084949 15.4942C0.134178 15.5996 0.203221 15.694 0.288135 15.7721C0.373049 15.8501 0.472172 15.9103 0.579842 15.9492C0.687512 15.9881 0.801621 16.0049 0.915652 15.9987C1.02968 15.9925 1.1414 15.9634 1.24444 15.9131C1.34747 15.8627 1.43979 15.7921 1.51613 15.7053L7.7753 8.59442C7.85353 8.50601 7.91356 8.40241 7.95184 8.2898C7.99011 8.17718 8.00583 8.05784 7.99807 7.93889Z" fill="#D4D4D4"/>
<path d="M7.99807 7.93889L11.9896 7.67859L11.989 7.66921L11.9883 7.65982L7.99807 7.93889ZM7.7753 7.40557L4.77276 10.0485L4.78096 10.0577L7.7753 7.40557ZM1.51613 0.294679L-1.48792 2.93583L-1.48639 2.93757L1.51613 0.294679ZM0.223002 1.48353L-2.78044 4.12537L-2.77915 4.12684L0.223002 1.48353ZM5.96057 8.00001L8.96272 10.6433L11.2901 8.00001L8.96273 5.3567L5.96057 8.00001ZM0.223002 14.5165L-2.77915 11.8731L-2.78044 11.8746L0.223002 14.5165ZM0.915652 15.9987L1.13273 19.9929L0.915652 15.9987ZM1.51613 15.7053L-1.48639 13.0624L-1.48792 13.0642L1.51613 15.7053ZM7.7753 8.59442L4.77964 5.94373L4.77278 5.95153L7.7753 8.59442ZM11.9883 7.65982C11.9136 6.5918 11.4906 5.56744 10.7696 4.75342L4.78096 10.0577C4.32091 9.53832 4.05479 8.8895 4.00782 8.21795L11.9883 7.65982ZM10.7778 4.76268L4.51865 -2.34821L-1.48639 2.93757L4.77278 10.0485L10.7778 4.76268ZM4.52018 -2.34648C4.09786 -2.82681 3.58247 -3.22263 3.00062 -3.50696L-0.511751 3.68075C-0.887542 3.49712 -1.21829 3.24251 -1.48792 2.93583L4.52018 -2.34648ZM3.00062 -3.50696C2.41844 -3.79145 1.78355 -3.95748 1.13273 -3.99285L0.698576 3.99536C0.275815 3.97238 -0.135633 3.86455 -0.511751 3.68075L3.00062 -3.50696ZM1.13273 -3.99285C0.481636 -4.02824 -0.168393 -3.93192 -0.779201 -3.71126L1.93888 3.81283C1.54342 3.9557 1.12161 4.01835 0.698576 3.99536L1.13273 -3.99285ZM-0.779201 -3.71126C-1.38973 -3.49071 -1.94635 -3.15132 -2.41907 -2.71672L2.99534 3.1726C2.69245 3.45107 2.33408 3.67007 1.93888 3.81283L-0.779201 -3.71126ZM-2.41907 -2.71672C-2.89147 -2.28242 -3.27056 -1.76192 -3.53892 -1.18762L3.70882 2.19915C3.53892 2.56274 3.29791 2.89443 2.99534 3.1726L-2.41907 -2.71672ZM-3.53892 -1.18762C-3.80723 -0.613438 -3.96078 0.00564667 -3.99341 0.634731L3.99585 1.04917C3.97531 1.44506 3.87867 1.83566 3.70882 2.19915L-3.53892 -1.18762ZM-3.99341 0.634731C-4.02604 1.26384 -3.93734 1.89465 -3.7308 2.49212L3.8302 -0.121528C3.96063 0.255778 4.01639 0.653249 3.99585 1.04917L-3.99341 0.634731ZM-3.7308 2.49212C-3.5242 3.08981 -3.20265 3.64537 -2.78044 4.12537L3.22645 -1.15831C3.49594 -0.851933 3.6997 -0.499046 3.8302 -0.121528L-3.7308 2.49212ZM-2.77915 4.12684L2.95842 10.6433L8.96273 5.3567L3.22515 -1.15978L-2.77915 4.12684ZM2.95843 5.35669L-2.77914 11.8731L3.22515 17.1598L8.96272 10.6433L2.95843 5.35669ZM-2.78044 11.8746C-3.20265 12.3546 -3.5242 12.9102 -3.7308 13.5079L3.8302 16.1215C3.6997 16.499 3.49594 16.8519 3.22645 17.1583L-2.78044 11.8746ZM-3.7308 13.5079C-3.93734 14.1053 -4.02604 14.7362 -3.99341 15.3653L3.99585 14.9508C4.01639 15.3467 3.96063 15.7442 3.8302 16.1215L-3.7308 13.5079ZM-3.99341 15.3653C-3.96078 15.9943 -3.80723 16.6134 -3.53892 17.1876L3.70882 13.8008C3.87867 14.1643 3.97531 14.5549 3.99585 14.9508L-3.99341 15.3653ZM-3.53892 17.1876C-3.27063 17.7618 -2.89158 18.2823 -2.41907 18.7167L2.99534 12.8274C3.29802 13.1057 3.53898 13.4374 3.70882 13.8008L-3.53892 17.1876ZM-2.41907 18.7167C-1.94651 19.1512 -1.38994 19.4906 -0.779201 19.7113L1.93888 12.1872C2.33428 12.33 2.69261 12.5491 2.99534 12.8274L-2.41907 18.7167ZM-0.779201 19.7113C-0.168151 19.932 0.481892 20.0282 1.13273 19.9929L0.698576 12.0046C1.12135 11.9817 1.54317 12.0442 1.93888 12.1872L-0.779201 19.7113ZM1.13273 19.9929C1.7838 19.9575 2.41867 19.7913 3.00062 19.507L-0.511751 12.3192C-0.135859 12.1356 0.275564 12.0276 0.698576 12.0046L1.13273 19.9929ZM3.00062 19.507C3.58247 19.2226 4.09786 18.8268 4.52018 18.3465L-1.48792 13.0642C-1.21829 12.7575 -0.887542 12.5029 -0.511751 12.3192L3.00062 19.507ZM4.51865 18.3482L10.7778 11.2373L4.77278 5.95153L-1.48639 13.0624L4.51865 18.3482ZM10.7709 11.2451C11.2036 10.7561 11.5314 10.1881 11.7391 9.57685L4.16455 7.00274C4.29574 6.61672 4.50341 6.25594 4.77965 5.94374L10.7709 11.2451ZM11.7391 9.57685C11.9468 8.96572 12.0315 8.32053 11.9896 7.67859L4.00655 8.19918C3.98021 7.79516 4.03341 7.38864 4.16455 7.00274L11.7391 9.57685Z" fill="white" mask="url(#path-1-inside-1)"/>
</svg>
