<svg width="79" height="44" viewBox="0 0 79 44" fill="none" xmlns="http://www.w3.org/2000/svg">
<path fill-rule="evenodd" clip-rule="evenodd" d="M10.6462 31.8319H4.40045C1.5198 31.8319 0 29.7305 0 26.5321V17.4767C0 14.2798 0.689698 12 4.85417 12H6.44578C9.38448 12 10.6668 14.2829 10.6668 17.5082V19.2901H5.87496V16.4065C5.87496 16.154 5.6584 15.9257 5.40155 15.9257H5.34272C5.08587 15.9257 4.84868 16.154 4.84868 16.4065V27.2629C4.84868 27.5717 5.11569 27.7658 5.37258 27.7658H10.5835L10.6462 31.8319ZM37.8134 12.2035V31.8319H33.0217V22.9591L31.9236 31.8319H28.7085L27.5296 22.9591V31.8319H22.7541L22.738 12.2035H29.0855L30.2756 21.0819L31.4529 12.2035H37.8134ZM49.8994 12.2035H54.7481V27.7658H58.085V31.8318H49.8994V12.2034L49.8994 12.2035ZM78.9428 12.2035L76.3764 21.681L79 31.8318H73.9808L73.0682 26.7845L72.0125 31.8318H67.6486L70.2729 22.3538L67.7059 12.2034H72.7255L73.5526 17.1665L74.5792 12.2034H78.9428L78.9428 12.2035ZM16.0077 16.4983V27.5035C16.0077 27.8007 16.2529 28.0415 16.5817 28.0415C16.884 28.0415 17.1288 27.8006 17.1288 27.5034V16.4982C17.1288 16.201 16.8839 15.9598 16.5552 15.9598C16.2529 15.9598 16.0077 16.201 16.0077 16.4982L16.0077 16.4983ZM21.9938 27.794C21.9938 30.6259 20.596 32 17.7152 32H15.4334C12.5529 32 11.1555 30.6259 11.1555 27.794V16.2412C11.1555 13.4091 12.5529 12.0352 15.4333 12.0352H17.7151C20.5959 12.0352 21.9937 13.4091 21.9937 16.2412V27.794H21.9938ZM43.4567 15.9873V20.6361L43.9597 20.6386C44.2375 20.6386 44.4625 20.398 44.4625 20.1007V16.5252C44.4625 16.2282 44.2375 15.9873 43.9597 15.9873H43.4567H43.4567ZM43.4732 24.1813V31.8319H38.6246V12.2035H44.9563C47.8367 12.2035 49.2344 13.5774 49.2344 16.4093V19.9754C49.2344 22.8075 47.8367 24.1812 44.9563 24.1812H43.4731L43.4732 24.1813ZM58.6291 12.1496H67.1957V16.2204H63.4835V19.8136H67.0533V23.8844H63.4835V27.7302H67.2529V31.8012H58.6291V12.1497L58.6291 12.1496Z" fill="#C4C4C4"/>
</svg>
