<svg width="79" height="20" viewBox="0 0 79 20" fill="none" xmlns="http://www.w3.org/2000/svg">
<path fill-rule="evenodd" clip-rule="evenodd" d="M10.6462 19.8319H4.40045C1.5198 19.8319 0 17.7305 0 14.5321V5.47672C0 2.27976 0.689698 0 4.85417 0H6.44578C9.38448 0 10.6668 2.28292 10.6668 5.5082V7.29012H5.87496V4.40652C5.87496 4.154 5.6584 3.92572 5.40155 3.92572H5.34272C5.08587 3.92572 4.84868 4.154 4.84868 4.40652V15.2629C4.84868 15.5717 5.11569 15.7658 5.37258 15.7658H10.5835L10.6462 19.8319ZM37.8134 0.20348V19.8319H33.0217V10.9591L31.9236 19.8319H28.7085L27.5296 10.9591V19.8319H22.7541L22.738 0.20348H29.0855L30.2756 9.08188L31.4529 0.20348H37.8134ZM49.8994 0.20348H54.7481V15.7658H58.085V19.8318H49.8994V0.2034L49.8994 0.20348ZM78.9428 0.20348L76.3764 9.681L79 19.8318H73.9808L73.0682 14.7845L72.0125 19.8318H67.6486L70.2729 10.3538L67.7059 0.20344H72.7255L73.5526 5.16652L74.5792 0.20344H78.9428L78.9428 0.20348ZM16.0077 4.49828V15.5035C16.0077 15.8007 16.2529 16.0415 16.5817 16.0415C16.884 16.0415 17.1288 15.8006 17.1288 15.5034V4.4982C17.1288 4.201 16.8839 3.9598 16.5552 3.9598C16.2529 3.9598 16.0077 4.201 16.0077 4.4982L16.0077 4.49828ZM21.9938 15.794C21.9938 18.6259 20.596 20 17.7152 20H15.4334C12.5529 20 11.1555 18.6259 11.1555 15.794V4.2412C11.1555 1.40908 12.5529 0.0352 15.4333 0.0352H17.7151C20.5959 0.0352 21.9937 1.40912 21.9937 4.2412V15.794H21.9938ZM43.4567 3.98728V8.63608L43.9597 8.6386C44.2375 8.6386 44.4625 8.39804 44.4625 8.10068V4.5252C44.4625 4.2282 44.2375 3.98728 43.9597 3.98728H43.4567H43.4567ZM43.4732 12.1813V19.8319H38.6246V0.20348H44.9563C47.8367 0.20348 49.2344 1.57736 49.2344 4.40928V7.9754C49.2344 10.8075 47.8367 12.1812 44.9563 12.1812H43.4731L43.4732 12.1813ZM58.6291 0.1496H67.1957V4.2204H63.4835V7.8136H67.0533V11.8844H63.4835V15.7302H67.2529V19.8012H58.6291V0.14968L58.6291 0.1496Z" fill="black"/>
</svg>
