<svg width="18" height="18" viewBox="0 0 18 18" fill="none" xmlns="http://www.w3.org/2000/svg">
<path d="M12.6377 0H5.3623C2.40551 0 0 2.40551 0 5.3623V12.6377C0 15.5945 2.40551 18 5.3623 18H12.6377C15.5945 18 18 15.5945 18 12.6377V5.3623C18 2.40551 15.5945 0 12.6377 0ZM16.1892 12.6377C16.1892 14.5991 14.5991 16.1892 12.6377 16.1892H5.3623C3.40088 16.1892 1.8108 14.5991 1.8108 12.6377V5.3623C1.8108 3.40084 3.40088 1.8108 5.3623 1.8108H12.6377C14.5991 1.8108 16.1892 3.40084 16.1892 5.3623V12.6377Z" fill="black"/>
<path d="M8.99943 4.34399C6.43242 4.34399 4.34399 6.43242 4.34399 8.9994C4.34399 11.5664 6.43242 13.6548 8.99943 13.6548C11.5664 13.6548 13.6549 11.5664 13.6549 8.9994C13.6549 6.43239 11.5664 4.34399 8.99943 4.34399ZM8.99943 11.8441C7.42837 11.8441 6.15479 10.5705 6.15479 8.99943C6.15479 7.42837 7.4284 6.15479 8.99943 6.15479C10.5705 6.15479 11.8441 7.42837 11.8441 8.99943C11.8441 10.5705 10.5705 11.8441 8.99943 11.8441Z" fill="black"/>
<path d="M13.6641 5.49402C14.2802 5.49402 14.7797 4.99457 14.7797 4.37848C14.7797 3.76238 14.2802 3.26294 13.6641 3.26294C13.048 3.26294 12.5486 3.76238 12.5486 4.37848C12.5486 4.99457 13.048 5.49402 13.6641 5.49402Z" fill="black"/>
</svg>
