<svg width="8" height="16" viewBox="0 0 8 16" fill="none" xmlns="http://www.w3.org/2000/svg">
<path d="M7.99807 7.93889C7.98421 7.74065 7.90578 7.55288 7.7753 7.40557L1.51613 0.294679C1.43979 0.207848 1.34747 0.137242 1.24444 0.086895C1.1414 0.0365478 1.02968 0.00745067 0.915652 0.00125316C0.801621 -0.00494436 0.687512 0.0118892 0.579842 0.050785C0.472172 0.0896809 0.373049 0.149872 0.288135 0.227939C0.203221 0.306006 0.134178 0.400411 0.084949 0.505762C0.0357199 0.611113 0.00726878 0.725355 0.00122052 0.84195C-0.00482774 0.958544 0.0116453 1.07521 0.0496988 1.1853C0.0877523 1.29538 0.146641 1.39672 0.223002 1.48353L5.96057 8.00001L0.223002 14.5165C0.146641 14.6033 0.0877523 14.7046 0.0496988 14.8147C0.0116453 14.9248 -0.00482774 15.0414 0.00122052 15.158C0.00726878 15.2746 0.0357199 15.3889 0.084949 15.4942C0.134178 15.5996 0.203221 15.694 0.288135 15.7721C0.373049 15.8501 0.472172 15.9103 0.579842 15.9492C0.687512 15.9881 0.801621 16.0049 0.915652 15.9987C1.02968 15.9925 1.1414 15.9634 1.24444 15.9131C1.34747 15.8627 1.43979 15.7921 1.51613 15.7053L7.7753 8.59442C7.85353 8.50601 7.91356 8.40241 7.95184 8.2898C7.99011 8.17718 8.00583 8.05784 7.99807 7.93889Z" fill="#D4D4D4"/>
</svg>
