<svg width="82" height="44" viewBox="0 0 82 44" fill="none" xmlns="http://www.w3.org/2000/svg">
<path d="M72.9473 21.5297C72.5671 20.8285 72.2213 20.1549 71.8411 19.5048C71.4974 18.9143 71.4128 18.3729 71.7223 17.7015C72.081 16.9065 72.2887 16.0389 72.0885 15.1383C71.779 13.7401 71.0102 13.3329 69.7135 13.9106C69.2017 14.1376 68.7273 14.4531 68.208 14.663C66.6714 15.2854 66.9231 15.4154 66.982 16.6208C67.1083 19.1712 67.3375 21.7184 67.8707 24.224C67.9671 24.6737 67.9938 25.1832 68.4061 25.5146C70.0744 24.8496 70.2757 24.4787 69.8859 22.8076C69.8448 22.6948 69.8182 22.5774 69.8067 22.458C69.8281 21.8185 69.3505 21.2185 69.6835 20.5023C70.2703 21.4189 70.5476 22.4378 71.2094 23.3394C71.93 22.8884 72.5285 22.2685 72.9526 21.534L72.9473 21.5297ZM65.636 27.1218C67.3803 26.7605 67.5291 26.4727 66.9862 24.9029C66.1136 22.377 65.1295 19.8831 64.7055 17.2294C64.649 16.8683 64.5017 16.5273 64.2772 16.2382C63.5073 16.1871 62.7781 16.3448 62.0007 16.64C61.3957 20.675 60.6494 24.7046 61.6302 28.8121C62.2655 28.7988 62.8813 28.5912 63.3938 28.2174C63.6465 27.2987 63.2182 26.444 63.2867 25.5754C63.7525 25.2471 64.2119 25.0627 64.7548 25.1725C65.1413 25.812 65.2055 26.558 65.6392 27.1218H65.636ZM30.7865 14.1195C30.7662 12.912 31.021 11.7961 30.4824 10.6973C28.63 10.3893 26.8418 9.73813 24.8844 9.90226C24.6328 11.1162 24.7773 12.2395 25.0782 13.3351C25.5826 13.6388 26.1597 13.3468 26.6844 13.6772C27.1791 18.5999 27.0185 23.6016 27.6684 28.616C28.4008 28.6064 29.0604 28.7439 29.7811 28.5019C29.7415 23.6474 29.1504 18.8429 29.1215 14.0427C29.7211 13.8967 30.1815 14.0971 30.7887 14.1195H30.7865ZM53.3949 29.9993C51.929 25.3665 50.7993 20.6515 50.1162 15.846L47.6534 15.2758C47.3054 16.0997 47.3429 16.8691 47.2336 17.6205C46.753 20.9071 46.5204 24.2248 46.5376 27.546C46.5319 28.3531 46.6485 29.1565 46.8835 29.929C47.5634 29.978 48.1995 30.3553 48.8869 30.0036C49.0111 28.9901 48.8216 28.0074 48.7799 27.0355C50.1847 26.753 50.3346 26.8436 50.6419 28.017C50.8315 28.746 50.9632 29.4995 51.4546 30.1656C52.0339 30.1731 52.625 30.3542 53.3906 30.0047L53.3949 29.9993ZM37.0527 18.5669C37.2037 16.835 37.1373 15.2481 36.5291 13.7315C36.1672 12.8278 35.6596 11.9986 34.7163 11.568C33.5716 11.048 32.4676 11.2483 31.9226 12.5272C31.6679 13.1582 31.5325 13.8306 31.5232 14.5106C31.4515 16.4791 31.7984 18.4241 31.8081 20.3883C31.8145 21.826 31.9066 23.2659 32.0222 24.6993C32.1389 26.2084 32.5287 27.6312 33.7697 28.648C35.1853 29.8086 37.1084 29.2693 37.4564 27.5193C37.7651 26.0402 37.7134 24.5089 37.3054 23.0538C36.8876 22.8396 36.4251 22.7264 35.9552 22.7234C35.3127 22.7319 35.2549 22.8204 35.3127 23.5174C35.3791 24.3423 35.5932 25.1746 35.3363 25.975C34.9829 26.1455 34.7687 26.0933 34.5985 25.7779C34.3972 25.4027 34.4175 25.0041 34.3908 24.6055C34.2569 22.652 34.1017 20.7006 33.9946 18.7438C33.9293 17.5427 33.9303 16.3384 33.9143 15.1362C33.9143 14.9316 33.9903 14.7302 34.2216 14.6747C34.5128 14.6044 34.6445 14.7941 34.757 15.0264C35.0354 15.5977 34.9272 16.2105 34.9454 16.8041C34.9893 18.2227 34.9722 18.2269 36.3439 18.52C36.5355 18.5616 36.74 18.5456 37.0613 18.5637L37.0527 18.5669ZM42.3081 22.8673C42.6165 25.1395 42.6111 27.433 43.2814 29.6988C43.9624 29.6316 44.5888 30.139 45.3512 29.6988C44.5942 24.6354 44.4336 19.5176 44.1134 14.4318C43.4748 14.1083 42.7819 13.9042 42.0693 13.8296C41.7277 15.8172 42.2074 17.7655 42.1046 19.6913C41.0681 19.8202 41.0596 19.8181 40.991 19.0742C40.9653 18.795 40.9814 18.5126 40.9718 18.2312C40.9161 16.64 40.99 15.0339 40.6719 13.4353C40.1462 13.2583 39.6558 13.091 39.1621 12.9301C39.009 12.88 38.8516 12.8651 38.5486 13.0473C38.6824 18.455 38.7981 23.9458 39.7618 29.3919L41.9033 29.5677C41.7748 27.2539 41.2994 25.0276 41.2394 22.8022C41.413 22.7396 41.5976 22.7133 41.7819 22.7248C41.9661 22.7364 42.1459 22.7856 42.3102 22.8694L42.3081 22.8673ZM53.1839 14.258C53.1422 14.6001 53.1079 14.7557 53.1047 14.9113C53.0148 18.9612 53.2 22.9941 53.8682 26.9928C54.0363 27.9968 54.0192 29.0743 54.6937 29.962C55.3855 29.962 56.0686 30.01 56.7432 29.962C58.5228 29.8309 59.479 28.9187 59.8613 27.1665C60.3485 24.9412 59.8024 22.9824 58.4286 21.1706C58.8556 20.5987 59.1483 19.9388 59.2852 19.2394C59.614 17.6045 58.7413 15.635 57.3685 15.0744C56.0622 14.5415 54.6745 14.3731 53.1818 14.2612L53.1839 14.258ZM22.9506 25.3249C23.486 26.4205 23.063 27.6419 23.7119 28.6693C24.3247 28.7534 24.9472 28.7372 25.5547 28.6213C25.6918 27.2177 23.3661 12.0935 22.6476 9.62729C21.853 9.41947 21.0478 9.22976 20.2501 9.59319C19.8732 11.7695 19.0937 28.4028 19.3185 29.3929C19.9707 29.4653 20.6285 29.3194 21.1881 28.9783C21.4933 27.8326 21.1667 26.5846 21.6774 25.4389C21.8325 25.391 21.9911 25.3554 22.1518 25.3324C22.3906 25.3142 22.6304 25.3324 22.9506 25.3324V25.3249ZM8.03469 8.97931C8.463 17.1931 8.83563 25.3313 9.49415 33.478C11.5179 32.9696 11.8317 32.5369 11.6507 30.6356C11.625 30.3574 11.6346 30.0739 11.6175 29.7936C11.489 27.6365 11.338 25.4816 11.2395 23.3245C11.201 22.491 11.1025 21.647 11.3466 20.8039C11.6967 22.6051 11.8927 24.4275 12.2032 26.2244C12.5095 28.0053 12.608 29.8331 13.1476 31.5724C13.9486 31.452 14.2248 31.064 14.2548 30.4001C14.3148 29.0807 14.4904 27.7634 14.499 26.445C14.5118 24.2368 14.7699 22.0434 14.8095 19.8373C14.8095 19.6742 14.7388 19.4696 14.9797 19.3438C15.3181 23.0602 15.18 26.785 15.6083 30.5578C16.421 30.2828 17.2327 30.2295 17.8162 29.7052C17.9469 28.3868 17.783 27.1527 17.7306 25.9143C17.6524 24.1142 17.6706 22.3131 17.526 20.5098C17.2733 17.3583 17.1845 14.1941 17.011 11.0362C16.9414 9.75732 16.8279 8.4784 16.7326 7.19949C16.709 6.87976 16.6512 6.56856 16.3675 6.28187C15.5108 6.49502 14.5557 6.35007 13.7291 6.91386C13.2001 10.174 13.5149 13.5109 12.8211 16.7445C12.4581 15.2098 12.2364 13.6697 11.8831 12.1617C11.5361 10.6781 11.4665 9.11679 10.8562 7.69613C9.85069 7.96308 8.89707 8.39533 8.03469 8.97505V8.97931ZM79.0271 5.15322C79.6931 3.46186 80.5262 3.0153 81.9942 3.5695C81.9942 4.20363 81.7555 4.81218 81.4867 5.36638C81.2559 5.83028 81.1939 6.35945 81.3111 6.86377C81.5034 7.84579 81.4801 8.85761 81.2426 9.82979C81.0498 10.6568 81.1505 11.5553 81.144 12.4228C81.1312 14.0268 81.173 15.6073 80.5733 17.174C80.3013 17.8859 80.145 18.666 79.8045 19.3705C79.736 19.5133 79.7403 19.7158 79.6364 19.8139C78.8033 20.6089 78.6395 21.696 78.3515 22.7191C77.8418 24.5394 76.7025 25.8215 75.0663 26.7136C74.8522 26.8308 74.638 26.9385 74.3853 26.9267C74.2221 26.9155 74.0589 26.9493 73.9138 27.0245C73.7686 27.0998 73.6472 27.2135 73.563 27.353C73.1293 28.0863 72.4044 28.5456 71.8915 29.2096C71.3315 29.9333 70.5787 30.4416 69.69 30.8083C68.514 31.2889 67.3838 31.8735 66.3127 32.555C65.1681 33.283 63.8853 33.6933 62.6721 34.2389C62.1014 34.4947 61.6527 35.099 60.9096 35.0137C60.1922 34.9317 59.5925 35.3228 58.9736 35.6074C58.9372 35.6244 58.9072 35.6681 58.8666 35.6703C57.315 35.7417 55.7613 36.0134 54.213 35.7587C53.4527 35.6319 52.7406 35.3207 51.9343 35.488C51.5382 35.5698 51.1284 35.5588 50.7372 35.456C49.9791 35.2429 49.2745 35.2621 48.4939 35.4241C47.5506 35.6202 46.5815 35.2717 45.6318 35.1406C43.4517 34.839 41.2962 34.3306 39.1107 34.1015C37.7262 33.9576 36.3053 34.1516 34.9026 34.2176C33.6562 34.2784 32.413 34.4052 31.1677 34.4393C30.4118 34.4617 29.6269 34.6216 28.9009 34.2709C28.449 34.0514 28.1995 34.5203 27.7841 34.5363C26.7133 34.5768 25.6425 34.839 24.5717 34.8688C23.0727 34.9093 21.6807 35.5722 20.1634 35.4731C19.8325 35.4518 19.4749 35.6617 19.1483 35.8077C18.8945 35.9207 18.6889 36.1349 18.3987 36.1797C17.0838 36.3811 16.1041 37.1655 15.1553 38.0117C15.0446 38.1293 14.9089 38.2207 14.7581 38.2792C13.4442 38.6373 12.2696 39.3354 10.9825 39.7809C9.71795 40.2189 8.49191 40.8669 7.46932 41.7973C7.20269 42.0393 6.94999 42.3238 6.63625 42.4826C5.97558 42.8205 5.43056 43.2372 5.24425 43.9683C4.52468 44.1431 4.07603 43.5089 3.39609 43.5963C3.0363 41.9082 2.79966 40.2669 3.46033 38.6309C3.51001 38.5278 3.5358 38.4149 3.5358 38.3006C3.5358 38.1862 3.51001 38.0733 3.46033 37.9702C3.1391 37.1868 2.96242 36.3715 3.31685 35.5306C3.40251 35.3239 3.44534 34.9818 3.33398 34.8283C2.71507 33.9757 3.07592 32.9451 2.75041 32.0456C2.69472 31.915 2.66881 31.7738 2.67455 31.6321C2.68029 31.4904 2.71753 31.3517 2.7836 31.226C2.84035 31.1301 2.9228 30.9617 2.89068 30.9148C2.08867 29.9311 2.52555 28.7044 2.24286 27.611C2.02014 26.7509 1.53722 25.9431 1.55971 25.0467C1.56827 24.678 0.849781 24.3092 1.549 23.9202C1.68177 23.8467 1.43121 23.8307 1.3659 23.7774C1.27702 23.706 1.10356 23.6506 1.0982 23.5771C0.948293 21.713 -0.079652 20.027 0.00493927 18.1161C0.0574073 16.8969 -0.108563 15.6648 0.241581 14.4659C0.32296 14.1845 0.134503 13.9212 0.101309 13.6548C-0.0196884 12.6956 -0.0164763 11.7503 0.937585 11.1183C0.856206 10.9233 0.569238 10.8295 0.584229 10.5396C0.675244 10.1804 1.07571 10.4032 1.26096 10.2572C1.19778 8.41872 1.89593 6.84672 2.58123 5.30243C2.68425 5.27764 2.79006 5.26617 2.89603 5.26833C3.05237 5.30243 3.20228 5.36105 3.36396 5.4122C3.44213 5.19905 3.52137 4.9859 3.61667 4.72585C4.86412 4.83243 5.98951 4.37735 7.06135 3.91694C7.56462 3.70379 8.1589 3.78265 8.59363 3.37766C8.98018 3.01637 9.60873 3.00145 9.97386 2.74673C10.7298 2.22131 11.5693 1.92716 12.3703 1.53496C13.6284 0.91895 15.0044 0.651444 16.3589 0.362622C17.3504 0.14947 18.357 0.510763 19.3646 0.481987C20.9236 0.438291 22.4837 0.507565 24.0406 0.251782C25.0654 0.0833915 26.1169 0.0567488 27.1577 0.00665795C27.8461 -0.0341576 28.5326 0.113266 29.1429 0.432963C29.5155 0.63226 29.8924 0.681286 30.2875 0.733509C30.6377 0.780402 30.9846 0.752691 31.2245 1.1353C31.3316 1.30049 31.6935 1.46995 31.852 1.4092C33.0298 0.95945 33.2772 2.10408 33.85 2.59326C34.152 2.85118 34.2955 3.22526 34.7805 3.12614C34.8593 3.10958 34.941 3.11375 35.0176 3.13824C35.0942 3.16272 35.1631 3.20667 35.2174 3.26576C35.983 4.00433 36.906 4.11837 37.9479 4.22494C39.4095 4.37628 40.9942 4.39547 42.2031 5.50386C42.3488 5.63601 42.5426 5.79055 42.7203 5.79908C44.244 5.86729 45.227 6.95543 46.3984 7.68654C46.5676 7.79312 46.71 7.97217 46.8921 8.02332C48.6803 8.5221 50.1804 9.66992 51.9247 10.2433C52.881 10.5372 53.8572 10.7627 54.8458 10.9179C55.9658 11.113 57.1062 11.1844 58.2241 11.3901C58.707 11.4796 59.0807 11.1865 59.5197 11.2078C61.3058 11.2931 62.9655 10.6366 64.6873 10.3371C65.2816 10.2305 65.8908 10.2135 66.4808 10.4021C67.6801 10.7879 68.7916 10.4906 69.9362 10.0824C71.4578 9.54949 72.8273 8.71393 74.3061 8.09153C75.016 7.79312 75.6413 7.3455 75.893 6.56429C76.0985 5.92484 76.7924 6.14865 77.2036 5.78522C77.6319 5.40581 78.3654 5.36744 79.0303 5.16068" fill="black"/>
<path d="M22.5412 21.6237C22.1975 21.7207 22.0058 21.7303 21.6846 21.5917C21.5133 20.4311 21.9973 19.2343 21.8773 18.0193C22.3324 19.1671 22.3731 20.3736 22.5412 21.6237Z" fill="black"/>
<path d="M56.4145 26.7424C56.1018 25.3186 55.8512 24.062 55.9926 22.717C57.1062 22.8066 57.225 23.6592 57.3546 24.3466C57.5142 25.1992 57.5238 26.1019 56.4145 26.7424Z" fill="black"/>
<path d="M55.7912 20.3277C55.758 19.3014 55.4336 18.3102 55.6595 17.2817C56.6232 17.4288 56.9005 17.7272 56.9562 18.6534C57.014 19.6062 56.7421 20.0197 55.7912 20.3277Z" fill="black"/>
<path d="M48.9575 21.4062C49.4254 22.3239 49.3933 23.1594 49.6096 23.9161C49.3376 24.1879 49.0902 24.1581 48.7669 23.9396C48.7401 23.1722 48.6855 22.3686 48.9575 21.4062Z" fill="black"/>
<path d="M63.2863 22.9698L63.2927 20.8926C63.8656 21.4137 63.8281 22.0777 63.9352 22.6575C63.9995 23.0134 63.6375 23.0422 63.2842 22.9698" fill="black"/>
<path d="M69.4479 18.5106C69.027 17.787 69.1523 17.0026 69.1138 16.1883C69.6063 15.9528 69.9318 16.0306 70.1192 16.5635C70.3537 17.2285 70.1289 17.9191 69.4479 18.5106Z" fill="black"/>
</svg>
