<svg width="111" height="44" viewBox="0 0 111 44" fill="none" xmlns="http://www.w3.org/2000/svg">
<g clip-path="url(#clip0)">
<path d="M9.139e-06 14.854C-0.00122562 14.4343 0.122685 14.0236 0.356052 13.6739C0.58942 13.3243 0.92175 13.0515 1.31097 12.89C1.70018 12.7285 2.12878 12.6856 2.5425 12.7667C2.95621 12.8479 3.33644 13.0494 3.63505 13.3458C3.93365 13.6422 4.13719 14.0201 4.21991 14.4317C4.30263 14.8434 4.2608 15.2702 4.09972 15.6581C3.93864 16.0461 3.66556 16.3777 3.31504 16.611C2.96452 16.8444 2.55233 16.9689 2.13066 16.969C1.56691 16.9681 1.02639 16.7453 0.627171 16.349C0.227952 15.9527 0.00248115 15.4153 9.139e-06 14.854Z" fill="#C4C4C4"/>
<path d="M7.61818 14.854C7.61633 14.4334 7.73998 14.0216 7.97345 13.671C8.20692 13.3204 8.5397 13.0467 8.92962 12.8846C9.31953 12.7225 9.74901 12.6792 10.1636 12.7604C10.5782 12.8416 10.9593 13.0434 11.2585 13.3405C11.5578 13.6375 11.7617 14.0162 11.8444 14.4288C11.9271 14.8413 11.885 15.269 11.7233 15.6576C11.5616 16.0462 11.2876 16.3783 10.9361 16.6118C10.5846 16.8452 10.1714 16.9695 9.74884 16.9689C9.18509 16.9681 8.64456 16.7452 8.24535 16.349C7.84613 15.9527 7.62066 15.4153 7.61818 14.854Z" fill="#C4C4C4"/>
<path d="M15.2359 14.854C15.234 14.4334 15.3577 14.0216 15.5911 13.671C15.8246 13.3204 16.1574 13.0467 16.5473 12.8846C16.9372 12.7225 17.3667 12.6792 17.7813 12.7604C18.1959 12.8416 18.577 13.0434 18.8762 13.3405C19.1754 13.6375 19.3793 14.0162 19.4621 14.4288C19.5448 14.8413 19.5027 15.269 19.341 15.6576C19.1793 16.0462 18.9053 16.3783 18.5538 16.6118C18.2023 16.8452 17.7891 16.9695 17.3665 16.9689C16.8028 16.9681 16.2622 16.7452 15.863 16.349C15.4638 15.9527 15.2383 15.4153 15.2359 14.854Z" fill="#C4C4C4"/>
<path d="M0 22.8696C0 22.45 0.124961 22.0399 0.35908 21.6911C0.5932 21.3423 0.925963 21.0704 1.31529 20.9099C1.70462 20.7494 2.13302 20.7074 2.54633 20.7892C2.95963 20.871 3.33928 21.0731 3.63726 21.3697C3.93523 21.6663 4.13816 22.0443 4.22037 22.4558C4.30258 22.8672 4.26039 23.2937 4.09912 23.6813C3.93786 24.0689 3.66477 24.4001 3.31438 24.6332C2.964 24.8663 2.55206 24.9907 2.13066 24.9907C1.56582 24.9899 1.02436 24.7661 0.624966 24.3685C0.225569 23.9709 0.000825175 23.4319 0 22.8696H0Z" fill="#C4C4C4"/>
<path d="M7.61817 22.8696C7.61755 22.4492 7.74225 22.0381 7.97647 21.6883C8.2107 21.3385 8.54392 21.0657 8.93394 20.9045C9.32396 20.7434 9.75325 20.7011 10.1675 20.7829C10.5817 20.8648 10.9621 21.0672 11.2607 21.3644C11.5593 21.6617 11.7626 22.0405 11.8449 22.4528C11.9271 22.8652 11.8846 23.2925 11.7227 23.6808C11.5608 24.0691 11.2868 24.4008 10.9355 24.634C10.5841 24.8672 10.1711 24.9913 9.74882 24.9907C9.18399 24.9899 8.64253 24.7661 8.24313 24.3685C7.84374 23.9709 7.61899 23.4319 7.61817 22.8696Z" fill="#C4C4C4"/>
<path d="M15.2358 22.8696C15.2352 22.4492 15.3599 22.0381 15.5941 21.6883C15.8284 21.3385 16.1616 21.0657 16.5516 20.9045C16.9416 20.7434 17.3709 20.7011 17.7851 20.7829C18.1993 20.8648 18.5798 21.0672 18.8784 21.3644C19.177 21.6617 19.3803 22.0405 19.4625 22.4528C19.5448 22.8652 19.5023 23.2925 19.3404 23.6808C19.1785 24.0691 18.9045 24.4008 18.5531 24.634C18.2018 24.8672 17.7888 24.9913 17.3665 24.9907C16.8014 24.9907 16.2595 24.7672 15.8599 24.3694C15.4603 23.9716 15.2358 23.4321 15.2358 22.8696Z" fill="#C4C4C4"/>
<path d="M0 30.8758C0.000616795 30.4564 0.126102 30.0466 0.360596 29.6982C0.59509 29.3498 0.928068 29.0784 1.31745 28.9183C1.70683 28.7583 2.13513 28.7167 2.54823 28.7989C2.96134 28.8811 3.34069 29.0833 3.63836 29.3801C3.93602 29.6769 4.13864 30.0548 4.2206 30.4662C4.30256 30.8776 4.26018 31.3039 4.09882 31.6913C3.93747 32.0787 3.66438 32.4098 3.31406 32.6427C2.96374 32.8757 2.55193 33 2.13066 33C1.56528 32.9992 1.02335 32.775 0.623865 32.3767C0.224379 31.9784 -6.04215e-07 31.4386 0 30.8758H0Z" fill="#C4C4C4"/>
<path d="M7.61816 30.8758C7.61816 30.4555 7.74339 30.0447 7.97799 29.6953C8.21259 29.3459 8.54602 29.0736 8.9361 28.913C9.32618 28.7523 9.75537 28.7104 10.1694 28.7926C10.5834 28.8748 10.9636 29.0774 11.2618 29.3748C11.5601 29.6722 11.7631 30.051 11.8451 30.4633C11.9271 30.8755 11.8844 31.3027 11.7224 31.6908C11.5604 32.0789 11.2864 32.4105 10.9351 32.6435C10.5838 32.8766 10.171 33.0006 9.74882 33C9.18345 32.9992 8.64152 32.775 8.24203 32.3767C7.84254 31.9785 7.61816 31.4386 7.61816 30.8758Z" fill="#C4C4C4"/>
<path d="M15.2358 30.8758C15.2358 30.4555 15.3611 30.0447 15.5957 29.6953C15.8303 29.3459 16.1637 29.0736 16.5538 28.913C16.9439 28.7523 17.373 28.7104 17.787 28.7926C18.201 28.8748 18.5812 29.0774 18.8795 29.3748C19.1778 29.6722 19.3808 30.051 19.4628 30.4633C19.5447 30.8755 19.502 31.3027 19.3401 31.6908C19.1781 32.0789 18.9041 32.4105 18.5528 32.6435C18.2015 32.8766 17.7886 33.0006 17.3665 33C16.8011 32.9992 16.2592 32.775 15.8597 32.3767C15.4602 31.9785 15.2358 31.4386 15.2358 30.8758Z" fill="#C4C4C4"/>
<path d="M37.9869 13.0869C42.4166 13.0869 44.6565 14.7609 44.6565 18.0559C44.6565 20.4814 43.1716 22.1832 40.4264 22.7702C41.827 23.1335 42.3605 24.0124 42.975 25.5062L45.9199 32.4534H43.0031L40.4544 26.118C39.7525 24.4161 38.8011 23.8851 37.0073 23.8851H35.4475V32.4534H32.7554V13.0869H37.9869ZM35.4351 21.7826H37.5377C40.3141 21.7826 41.8832 20.4689 41.8832 18.4317C41.8832 16.1739 40.4544 15.1956 37.4534 15.1956H35.4351V21.7826Z" fill="#C4C4C4"/>
<path d="M51.1329 18.4441V32.4534H48.5249V18.4441H51.1329ZM51.1048 12V14.6211H48.5811V12H51.1048Z" fill="#C4C4C4"/>
<path d="M56.5418 18.4441L60.2073 30.1366L64.0474 18.4441H66.5961L61.6048 32.4534H58.5789L53.7373 18.4441H56.5418Z" fill="#C4C4C4"/>
<path d="M71.5093 18.4441V32.4534H68.9014V18.4441H71.5093ZM71.4813 12V14.6211H68.9575V12H71.4813Z" fill="#C4C4C4"/>
<path d="M87.4568 26.0621H77.5055C77.702 29.0497 79.4957 30.8074 82.4406 30.8074C83.8042 30.7882 85.1418 30.4329 86.3338 29.7733V32.0062C84.9174 32.5646 83.4019 32.8308 81.8791 32.7888C77.6458 32.7888 74.9849 29.9689 74.9849 25.3105C74.9849 20.9627 77.6739 18.1118 81.5359 18.1118C85.1796 18.1118 87.4631 20.677 87.4631 25.0031L87.4568 26.0621ZM81.4018 19.9814C79.3554 19.9814 77.8424 21.5714 77.5616 24.3292H85.0174C84.8208 21.5155 83.5044 19.9814 81.4018 19.9814Z" fill="#C4C4C4"/>
<path d="M97.8825 20.7609C97.5285 20.653 97.1608 20.5965 96.7906 20.5932C94.4354 20.5932 93.0472 22.295 93.0472 25.4224V32.4534H90.4673V18.4441H92.8225V21.3168C93.6056 19.3075 95.0374 18.1926 96.878 18.1926C97.2432 18.1973 97.6079 18.2243 97.9698 18.2733L97.8825 20.7609Z" fill="#C4C4C4"/>
<path d="M111 32.4534H108.673V30.1087C107.581 31.8106 105.981 32.6491 103.853 32.6491C101.161 32.6491 99.3672 30.9472 99.3672 28.5186C99.3672 25.5062 101.863 23.8012 106.654 23.8012H108.476V23.5248C108.476 21.3509 107.188 20.0652 105.001 20.0652C103.613 20.1142 102.26 20.5174 101.074 21.236L101.046 19.1149C102.517 18.4258 104.127 18.0826 105.753 18.1118C109.256 18.1118 110.994 20.0652 110.994 23.941L111 32.4534ZM101.975 28.3789C101.975 29.7453 102.983 30.7795 104.524 30.7795C106.851 30.7795 108.476 29.1863 108.476 26.5652V25.5342H106.823C103.657 25.5342 101.975 26.5652 101.975 28.3789Z" fill="#C4C4C4"/>
<path d="M24.3328 20.0745C23.7945 20.0721 23.2664 20.221 22.8093 20.504C22.3522 20.787 21.9846 21.1926 21.7487 21.6743C21.5128 22.156 21.4182 22.6942 21.4757 23.227C21.5333 23.7598 21.7408 24.2656 22.0742 24.6863L18.8174 28.4596C19.0869 28.6254 19.3264 28.8354 19.5255 29.0807L22.7418 25.3199C23.1153 25.566 23.5414 25.7217 23.9861 25.7747C24.4308 25.8277 24.8818 25.7765 25.3031 25.6251C25.7244 25.4737 26.1043 25.2263 26.4125 24.9028C26.7207 24.5792 26.9486 24.1884 27.0781 23.7616C27.2075 23.3347 27.235 22.8836 27.1582 22.4443C27.0814 22.0051 26.9025 21.5897 26.6357 21.2315C26.369 20.8733 26.0219 20.5821 25.622 20.3812C25.2222 20.1804 24.7806 20.0753 24.3328 20.0745ZM24.3328 24.6863C23.9844 24.6888 23.6431 24.5882 23.3522 24.3974C23.0613 24.2066 22.8339 23.9341 22.6987 23.6144C22.5635 23.2948 22.5267 22.9424 22.5929 22.6019C22.6591 22.2614 22.8254 21.9481 23.0707 21.7018C23.3159 21.4555 23.6291 21.2872 23.9705 21.2182C24.3119 21.1493 24.6662 21.1828 24.9885 21.3145C25.3108 21.4462 25.5865 21.6702 25.7808 21.9581C25.975 22.246 26.0791 22.5848 26.0797 22.9317C26.0789 23.3938 25.895 23.837 25.5679 24.1649C25.2408 24.4929 24.797 24.6791 24.3328 24.6832V24.6863Z" fill="#C4C4C4"/>
<path d="M7.4652 24.5217L3.69678 28.531C3.95504 28.7051 4.18181 28.9214 4.36748 29.1708L8.11095 25.1739C7.86115 24.9933 7.64297 24.773 7.4652 24.5217Z" fill="#C4C4C4"/>
<path d="M15.7973 28.5342L12.032 24.5248C11.8487 24.7766 11.6253 24.9969 11.3706 25.177L15.1141 29.177C15.3039 28.926 15.5349 28.7087 15.7973 28.5342Z" fill="#C4C4C4"/>
</g>
<defs>
<clipPath id="clip0">
<rect width="111" height="21" fill="white" transform="translate(0 12)"/>
</clipPath>
</defs>
</svg>
