<svg width="111" height="21" viewBox="0 0 111 21" fill="none" xmlns="http://www.w3.org/2000/svg">
<g clip-path="url(#clip0)">
<path d="M9.139e-06 2.85404C-0.00122562 2.43427 0.122685 2.02356 0.356052 1.67393C0.58942 1.3243 0.92175 1.05146 1.31097 0.889965C1.70018 0.72847 2.12878 0.685577 2.5425 0.766718C2.95621 0.847859 3.33644 1.04938 3.63505 1.34578C3.93365 1.64217 4.13719 2.02011 4.21991 2.43173C4.30263 2.84336 4.2608 3.27016 4.09972 3.65811C3.93864 4.04605 3.66556 4.3777 3.31504 4.61104C2.96452 4.84439 2.55233 4.96895 2.13066 4.96895C1.56691 4.96814 1.02639 4.74525 0.627171 4.34898C0.227952 3.95272 0.00248115 3.41527 9.139e-06 2.85404Z" fill="black"/>
<path d="M7.61818 2.85403C7.61633 2.43337 7.73998 2.02164 7.97345 1.67102C8.20692 1.3204 8.5397 1.04669 8.92962 0.884574C9.31953 0.722458 9.74901 0.679241 10.1636 0.760402C10.5782 0.841562 10.9593 1.04345 11.2585 1.34046C11.5578 1.63748 11.7617 2.01625 11.8444 2.42876C11.9271 2.84128 11.885 3.26896 11.7233 3.6576C11.5616 4.04624 11.2876 4.37834 10.9361 4.61179C10.5846 4.84525 10.1714 4.96954 9.74884 4.96893C9.18509 4.96812 8.64456 4.74523 8.24535 4.34897C7.84613 3.9527 7.62066 3.41525 7.61818 2.85403Z" fill="black"/>
<path d="M15.2359 2.85403C15.234 2.43337 15.3577 2.02164 15.5911 1.67102C15.8246 1.3204 16.1574 1.04669 16.5473 0.884574C16.9372 0.722458 17.3667 0.679241 17.7813 0.760402C18.1959 0.841562 18.577 1.04345 18.8762 1.34046C19.1754 1.63748 19.3793 2.01625 19.4621 2.42876C19.5448 2.84128 19.5027 3.26896 19.341 3.6576C19.1793 4.04624 18.9053 4.37834 18.5538 4.61179C18.2023 4.84525 17.7891 4.96954 17.3665 4.96893C16.8028 4.96812 16.2622 4.74523 15.863 4.34897C15.4638 3.9527 15.2383 3.41525 15.2359 2.85403Z" fill="black"/>
<path d="M0 10.8696C0 10.45 0.124961 10.0399 0.35908 9.69113C0.5932 9.34232 0.925963 9.07045 1.31529 8.90991C1.70462 8.74936 2.13302 8.70736 2.54633 8.7892C2.95963 8.87105 3.33928 9.07306 3.63726 9.36971C3.93523 9.66635 4.13816 10.0443 4.22037 10.4558C4.30258 10.8672 4.26039 11.2937 4.09912 11.6813C3.93786 12.0689 3.66477 12.4001 3.31438 12.6332C2.964 12.8663 2.55206 12.9907 2.13066 12.9907C1.56582 12.9899 1.02436 12.7661 0.624966 12.3685C0.225569 11.9709 0.000825175 11.4319 0 10.8696H0Z" fill="black"/>
<path d="M7.61817 10.8696C7.61755 10.4492 7.74225 10.0381 7.97647 9.68825C8.2107 9.33845 8.54392 9.0657 8.93394 8.90454C9.32396 8.74338 9.75325 8.70105 10.1675 8.78291C10.5817 8.86478 10.9621 9.06716 11.2607 9.36442C11.5593 9.66168 11.7626 10.0405 11.8449 10.4528C11.9271 10.8652 11.8846 11.2925 11.7227 11.6808C11.5608 12.0691 11.2868 12.4008 10.9355 12.634C10.5841 12.8672 10.1711 12.9913 9.74882 12.9907C9.18399 12.9899 8.64253 12.7661 8.24313 12.3685C7.84374 11.9709 7.61899 11.4319 7.61817 10.8696Z" fill="black"/>
<path d="M15.2358 10.8696C15.2352 10.4492 15.3599 10.0381 15.5941 9.68825C15.8284 9.33845 16.1616 9.0657 16.5516 8.90454C16.9416 8.74338 17.3709 8.70105 17.7851 8.78291C18.1993 8.86478 18.5798 9.06716 18.8784 9.36442C19.177 9.66168 19.3803 10.0405 19.4625 10.4528C19.5448 10.8652 19.5023 11.2925 19.3404 11.6808C19.1785 12.0691 18.9045 12.4008 18.5531 12.634C18.2018 12.8672 17.7888 12.9913 17.3665 12.9907C16.8014 12.9907 16.2595 12.7672 15.8599 12.3694C15.4603 11.9716 15.2358 11.4321 15.2358 10.8696Z" fill="black"/>
<path d="M0 18.8758C0.000616795 18.4564 0.126102 18.0466 0.360596 17.6982C0.59509 17.3498 0.928068 17.0784 1.31745 16.9183C1.70683 16.7583 2.13513 16.7167 2.54823 16.7989C2.96134 16.8811 3.34069 17.0833 3.63836 17.3801C3.93602 17.6769 4.13864 18.0548 4.2206 18.4662C4.30256 18.8776 4.26018 19.3039 4.09882 19.6913C3.93747 20.0787 3.66438 20.4098 3.31406 20.6427C2.96374 20.8757 2.55193 21 2.13066 21C1.56528 20.9992 1.02335 20.775 0.623865 20.3767C0.224379 19.9784 -6.04215e-07 19.4386 0 18.8758H0Z" fill="black"/>
<path d="M7.61816 18.8758C7.61816 18.4555 7.74339 18.0447 7.97799 17.6953C8.21259 17.3459 8.54602 17.0736 8.9361 16.913C9.32618 16.7523 9.75537 16.7104 10.1694 16.7926C10.5834 16.8748 10.9636 17.0774 11.2618 17.3748C11.5601 17.6722 11.7631 18.051 11.8451 18.4633C11.9271 18.8755 11.8844 19.3027 11.7224 19.6908C11.5604 20.0789 11.2864 20.4105 10.9351 20.6435C10.5838 20.8766 10.171 21.0006 9.74882 21C9.18345 20.9992 8.64152 20.775 8.24203 20.3767C7.84254 19.9785 7.61816 19.4386 7.61816 18.8758Z" fill="black"/>
<path d="M15.2358 18.8758C15.2358 18.4555 15.3611 18.0447 15.5957 17.6953C15.8303 17.3459 16.1637 17.0736 16.5538 16.913C16.9439 16.7523 17.373 16.7104 17.787 16.7926C18.201 16.8748 18.5812 17.0774 18.8795 17.3748C19.1778 17.6722 19.3808 18.051 19.4628 18.4633C19.5447 18.8755 19.502 19.3027 19.3401 19.6908C19.1781 20.0789 18.9041 20.4105 18.5528 20.6435C18.2015 20.8766 17.7886 21.0006 17.3665 21C16.8011 20.9992 16.2592 20.775 15.8597 20.3767C15.4602 19.9785 15.2358 19.4386 15.2358 18.8758Z" fill="black"/>
<path d="M37.9869 1.08694C42.4166 1.08694 44.6565 2.76086 44.6565 6.05589C44.6565 8.48135 43.1716 10.1832 40.4264 10.7702C41.827 11.1335 42.3605 12.0124 42.975 13.5062L45.9199 20.4534H43.0031L40.4544 14.118C39.7525 12.4161 38.8011 11.8851 37.0073 11.8851H35.4475V20.4534H32.7554V1.08694H37.9869ZM35.4351 9.7826H37.5377C40.3141 9.7826 41.8832 8.46893 41.8832 6.43166C41.8832 4.1739 40.4544 3.19564 37.4534 3.19564H35.4351V9.7826Z" fill="black"/>
<path d="M51.1329 6.4441V20.4534H48.5249V6.4441H51.1329ZM51.1048 0V2.62112H48.5811V0H51.1048Z" fill="black"/>
<path d="M56.5418 6.44409L60.2073 18.1366L64.0474 6.44409H66.5961L61.6048 20.4534H58.5789L53.7373 6.44409H56.5418Z" fill="black"/>
<path d="M71.5093 6.4441V20.4534H68.9014V6.4441H71.5093ZM71.4813 0V2.62112H68.9575V0H71.4813Z" fill="black"/>
<path d="M87.4568 14.0621H77.5055C77.702 17.0497 79.4957 18.8074 82.4406 18.8074C83.8042 18.7882 85.1418 18.4329 86.3338 17.7733V20.0062C84.9174 20.5646 83.4019 20.8308 81.8791 20.7888C77.6458 20.7888 74.9849 17.9689 74.9849 13.3105C74.9849 8.96272 77.6739 6.11179 81.5359 6.11179C85.1796 6.11179 87.4631 8.677 87.4631 13.0031L87.4568 14.0621ZM81.4018 7.98135C79.3554 7.98135 77.8424 9.57141 77.5616 12.3292H85.0174C84.8208 9.51551 83.5044 7.98135 81.4018 7.98135Z" fill="black"/>
<path d="M97.8825 8.76089C97.5285 8.65298 97.1608 8.59649 96.7906 8.59319C94.4354 8.59319 93.0472 10.295 93.0472 13.4224V20.4534H90.4673V6.44412H92.8225V9.31679C93.6056 7.30747 95.0374 6.19257 96.878 6.19257C97.2432 6.1973 97.6079 6.22426 97.9698 6.27331L97.8825 8.76089Z" fill="black"/>
<path d="M111 20.4534H108.673V18.1087C107.581 19.8106 105.981 20.6491 103.853 20.6491C101.161 20.6491 99.3672 18.9472 99.3672 16.5186C99.3672 13.5062 101.863 11.8012 106.654 11.8012H108.476V11.5248C108.476 9.35093 107.188 8.06522 105.001 8.06522C103.613 8.11421 102.26 8.51736 101.074 9.23602L101.046 7.11491C102.517 6.42577 104.127 6.08256 105.753 6.1118C109.256 6.1118 110.994 8.06522 110.994 11.941L111 20.4534ZM101.975 16.3789C101.975 17.7453 102.983 18.7795 104.524 18.7795C106.851 18.7795 108.476 17.1863 108.476 14.5652V13.5342H106.823C103.657 13.5342 101.975 14.5652 101.975 16.3789Z" fill="black"/>
<path d="M24.3328 8.07452C23.7945 8.07213 23.2664 8.22098 22.8093 8.50397C22.3522 8.78697 21.9846 9.19262 21.7487 9.67431C21.5128 10.156 21.4182 10.6942 21.4757 11.227C21.5333 11.7598 21.7408 12.2656 22.0742 12.6863L18.8174 16.4596C19.0869 16.6254 19.3264 16.8354 19.5255 17.0807L22.7418 13.3199C23.1153 13.566 23.5414 13.7217 23.9861 13.7747C24.4308 13.8277 24.8818 13.7765 25.3031 13.6251C25.7244 13.4737 26.1043 13.2263 26.4125 12.9028C26.7207 12.5792 26.9486 12.1884 27.0781 11.7616C27.2075 11.3347 27.235 10.8836 27.1582 10.4443C27.0814 10.0051 26.9025 9.58973 26.6357 9.23152C26.369 8.8733 26.0219 8.58213 25.622 8.38125C25.2222 8.18036 24.7806 8.07532 24.3328 8.07452ZM24.3328 12.6863C23.9844 12.6888 23.6431 12.5882 23.3522 12.3974C23.0613 12.2066 22.8339 11.9341 22.6987 11.6144C22.5635 11.2948 22.5267 10.9424 22.5929 10.6019C22.6591 10.2614 22.8254 9.94812 23.0707 9.7018C23.3159 9.45547 23.6291 9.28717 23.9705 9.21822C24.3119 9.14927 24.6662 9.18279 24.9885 9.31451C25.3108 9.44623 25.5865 9.67023 25.7808 9.95812C25.975 10.246 26.0791 10.5848 26.0797 10.9317C26.0789 11.3938 25.895 11.837 25.5679 12.1649C25.2408 12.4929 24.797 12.6791 24.3328 12.6832V12.6863Z" fill="black"/>
<path d="M7.4652 12.5217L3.69678 16.531C3.95504 16.7051 4.18181 16.9214 4.36748 17.1708L8.11095 13.1739C7.86115 12.9933 7.64297 12.773 7.4652 12.5217Z" fill="black"/>
<path d="M15.7973 16.5342L12.032 12.5248C11.8487 12.7766 11.6253 12.9969 11.3706 13.177L15.1141 17.177C15.3039 16.926 15.5349 16.7087 15.7973 16.5342Z" fill="black"/>
</g>
<defs>
<clipPath id="clip0">
<rect width="111" height="21" fill="white"/>
</clipPath>
</defs>
</svg>
