<svg width="434" height="304" viewBox="0 0 434 304" fill="none" xmlns="http://www.w3.org/2000/svg">
<path fill-rule="evenodd" clip-rule="evenodd" d="M399.59 63.0591C412.956 63.0591 423.791 73.8938 423.791 87.2592C423.791 91.8835 422.493 96.2048 420.243 99.8793C420.32 101.075 420.426 102.183 420.57 103.106C421.045 106.153 423.134 108.551 424.737 109.987C425.268 110.463 424.941 111.405 424.233 111.325C421.527 111.022 416.986 110.135 412.781 107.552C408.987 110.023 404.456 111.459 399.59 111.459L230.189 111.459C216.824 111.459 205.989 100.625 205.989 87.2592C205.989 73.8939 216.824 63.0591 230.189 63.0591L399.59 63.0591Z" fill="url(#paint0_linear)"/>
<path d="M229.497 77.308V81.5744H226.836V83.7765H229.497V93.7774C229.497 96.9275 230.858 98.1814 234.253 98.1814C234.773 98.1814 235.278 98.1202 235.798 98.0285V95.8112C235.308 95.857 235.048 95.8723 234.574 95.8723C232.861 95.8723 232.127 95.0466 232.127 93.1045V83.7765H235.798V81.5744H232.127V77.308H229.497ZM250.447 93.7926C249.759 95.2454 248.322 96.0253 246.196 96.0253C243.398 96.0253 241.578 93.9609 241.44 90.7037V90.5813H253.291V89.5721C253.291 84.4493 250.585 81.2839 246.135 81.2839C241.608 81.2839 238.703 84.6481 238.703 89.832C238.703 95.0466 241.563 98.3496 246.135 98.3496C249.744 98.3496 252.313 96.6064 253.077 93.7926H250.447ZM246.104 83.6082C248.719 83.6082 250.462 85.535 250.524 88.4558H241.44C241.639 85.535 243.474 83.6082 246.104 83.6082ZM262.008 98.3496C264.21 98.3496 266.014 97.3862 267.085 95.6277H267.329V98.0591H269.837V86.7737C269.837 83.3483 267.589 81.2839 263.568 81.2839C260.05 81.2839 257.451 83.0272 257.099 85.6726H259.76C260.127 84.3728 261.503 83.6235 263.476 83.6235C265.938 83.6235 267.207 84.7398 267.207 86.7737V88.2723L262.451 88.5628C258.613 88.7922 256.442 90.4896 256.442 93.4409C256.442 96.4534 258.812 98.3496 262.008 98.3496ZM262.497 96.0406C260.586 96.0406 259.164 95.0619 259.164 93.3798C259.164 91.7282 260.265 90.8566 262.772 90.6884L267.207 90.3978V91.9117C267.207 94.2667 265.204 96.0406 262.497 96.0406ZM274.7 98.0591H277.33V87.8441C277.33 85.5197 278.997 83.6541 281.153 83.6541C283.233 83.6541 284.594 84.9081 284.594 86.8654V98.0591H287.224V87.4618C287.224 85.3668 288.753 83.6541 291.047 83.6541C293.371 83.6541 294.518 84.8469 294.518 87.2783V98.0591H297.149V86.6666C297.149 83.2107 295.268 81.2839 291.903 81.2839C289.625 81.2839 287.744 82.4308 286.857 84.174H286.612C285.848 82.4614 284.288 81.2839 282.055 81.2839C279.853 81.2839 278.202 82.339 277.453 84.174H277.208V81.5744H274.7V98.0591ZM301.95 98.0591H304.58V87.8441C304.58 85.5197 306.247 83.6541 308.403 83.6541C310.483 83.6541 311.844 84.9081 311.844 86.8654V98.0591H314.474V87.4618C314.474 85.3668 316.003 83.6541 318.297 83.6541C320.622 83.6541 321.769 84.8469 321.769 87.2783V98.0591H324.399V86.6666C324.399 83.2107 322.518 81.2839 319.154 81.2839C316.875 81.2839 314.994 82.4308 314.107 84.174H313.863C313.098 82.4614 311.538 81.2839 309.306 81.2839C307.104 81.2839 305.452 82.339 304.703 84.174H304.458V81.5744H301.95V98.0591ZM333.788 98.3496C335.99 98.3496 337.794 97.3862 338.865 95.6277H339.11V98.0591H341.617V86.7737C341.617 83.3483 339.37 81.2839 335.348 81.2839C331.831 81.2839 329.231 83.0272 328.879 85.6726H331.54C331.907 84.3728 333.283 83.6235 335.256 83.6235C337.718 83.6235 338.987 84.7398 338.987 86.7737V88.2723L334.231 88.5628C330.393 88.7922 328.222 90.4896 328.222 93.4409C328.222 96.4534 330.592 98.3496 333.788 98.3496ZM334.277 96.0406C332.366 96.0406 330.944 95.0619 330.944 93.3798C330.944 91.7282 332.045 90.8566 334.553 90.6884L338.987 90.3978V91.9117C338.987 94.2667 336.984 96.0406 334.277 96.0406ZM347.581 77.308V81.5744H344.92V83.7765H347.581V93.7774C347.581 96.9275 348.942 98.1814 352.337 98.1814C352.857 98.1814 353.362 98.1202 353.882 98.0285V95.8112C353.392 95.857 353.132 95.8723 352.658 95.8723C350.945 95.8723 350.211 95.0466 350.211 93.1045V83.7765H353.882V81.5744H350.211V77.308H347.581ZM368.531 93.7926C367.843 95.2454 366.406 96.0253 364.28 96.0253C361.482 96.0253 359.662 93.9609 359.524 90.7037V90.5813H371.375V89.5721C371.375 84.4493 368.669 81.2839 364.219 81.2839C359.692 81.2839 356.787 84.6481 356.787 89.832C356.787 95.0466 359.647 98.3496 364.219 98.3496C367.828 98.3496 370.397 96.6064 371.161 93.7926H368.531ZM364.188 83.6082C366.803 83.6082 368.546 85.535 368.608 88.4558H359.524C359.723 85.535 361.558 83.6082 364.188 83.6082ZM375.122 86.0855C375.122 88.4711 376.529 89.8015 379.618 90.5508L382.447 91.2389C384.205 91.6671 385.062 92.4317 385.062 93.5633C385.062 95.0772 383.471 96.1323 381.254 96.1323C379.144 96.1323 377.829 95.2454 377.385 93.8538H374.678C374.969 96.5911 377.492 98.3496 381.162 98.3496C384.909 98.3496 387.768 96.3158 387.768 93.3645C387.768 90.9942 386.27 89.6485 383.165 88.8992L380.627 88.2876C378.685 87.8135 377.767 87.1101 377.767 85.9785C377.767 84.5105 379.297 83.5165 381.254 83.5165C383.242 83.5165 384.526 84.3881 384.878 85.7032H387.478C387.126 82.9966 384.725 81.2839 381.269 81.2839C377.767 81.2839 375.122 83.3483 375.122 86.0855ZM394.069 98.212C395.17 98.212 396.057 97.3098 396.057 96.2241C396.057 95.123 395.17 94.2361 394.069 94.2361C392.983 94.2361 392.081 95.123 392.081 96.2241C392.081 97.3098 392.983 98.212 394.069 98.212Z" fill="white"/>
<path d="M30.744 2.368H33.876L26.604 28H23.22L19.548 14.932C18.636 11.74 17.856 8.848 17.208 6.256C16.56 8.848 15.78 11.74 14.868 14.932L11.196 28H7.812L0.54 2.368H3.672L7.164 15.004C8.148 18.46 8.952 21.52 9.576 24.184L12.024 14.932L15.516 2.368H18.9L22.392 14.932L24.84 24.184C25.464 21.52 26.268 18.46 27.252 15.004L30.744 2.368ZM52.778 18.712V19.72H38.666C38.81 21.76 39.374 23.284 40.358 24.292C41.366 25.3 42.71 25.804 44.39 25.804C46.958 25.804 48.602 24.652 49.322 22.348H52.31C51.83 24.172 50.906 25.648 49.538 26.776C48.194 27.88 46.454 28.432 44.318 28.432C41.75 28.432 39.662 27.556 38.054 25.804C36.47 24.052 35.678 21.688 35.678 18.712C35.678 15.784 36.458 13.432 38.018 11.656C39.602 9.88 41.678 8.992 44.246 8.992C46.91 8.992 48.998 9.916 50.51 11.764C52.022 13.612 52.778 15.928 52.778 18.712ZM44.246 11.62C42.758 11.62 41.522 12.088 40.538 13.024C39.578 13.96 38.978 15.328 38.738 17.128H49.682C49.538 15.52 48.986 14.2 48.026 13.168C47.09 12.136 45.83 11.62 44.246 11.62ZM71.1866 11.944H67.3706V24.004C67.3706 25.06 68.0786 25.588 69.4946 25.588H71.1866V28C70.3946 28.072 69.7106 28.108 69.1346 28.108C66.0386 28.108 64.4906 26.824 64.4906 24.256V11.944H61.4306V9.424H64.4906V4.168H67.3706V9.424H71.1866V11.944ZM82.7983 8.992C84.8623 8.992 86.4703 9.556 87.6223 10.684C88.7743 11.812 89.3503 13.396 89.3503 15.436V28H86.4703V15.724C86.4703 12.964 85.0543 11.584 82.2223 11.584C80.8783 11.584 79.6903 12.088 78.6583 13.096C77.6263 14.104 77.1103 15.568 77.1103 17.488V28H74.2303V2.368H77.1103V11.98C78.5263 9.988 80.4223 8.992 82.7983 8.992ZM93.5637 6.616V3.088H96.6237V6.616H93.5637ZM93.6717 28V9.424H96.5517V28H93.6717ZM109.447 8.992C111.511 8.992 113.119 9.556 114.271 10.684C115.423 11.812 115.999 13.396 115.999 15.436V28H113.119V15.724C113.119 12.964 111.703 11.584 108.871 11.584C107.527 11.584 106.339 12.088 105.307 13.096C104.275 14.104 103.759 15.568 103.759 17.488V28H100.879V9.424H103.615V12.196C105.007 10.06 106.951 8.992 109.447 8.992ZM132.776 28L126.512 18.028L123.2 21.124V28H120.32V2.368H123.2V17.74L131.804 9.424H135.62L128.564 16.12L136.124 28H132.776ZM145.316 28V2.368H148.196V28H145.316ZM152.415 6.616V3.088H155.475V6.616H152.415ZM152.523 28V9.424H155.403V28H152.523ZM172.186 28L165.922 18.028L162.61 21.124V28H159.73V2.368H162.61V17.74L171.214 9.424H175.03L167.974 16.12L175.534 28H172.186ZM194.071 18.712V19.72H179.959C180.103 21.76 180.667 23.284 181.651 24.292C182.659 25.3 184.003 25.804 185.683 25.804C188.251 25.804 189.895 24.652 190.615 22.348H193.603C193.123 24.172 192.199 25.648 190.831 26.776C189.487 27.88 187.747 28.432 185.611 28.432C183.043 28.432 180.955 27.556 179.347 25.804C177.763 24.052 176.971 21.688 176.971 18.712C176.971 15.784 177.751 13.432 179.311 11.656C180.895 9.88 182.971 8.992 185.539 8.992C188.203 8.992 190.291 9.916 191.803 11.764C193.315 13.612 194.071 15.928 194.071 18.712ZM185.539 11.62C184.051 11.62 182.815 12.088 181.831 13.024C180.871 13.96 180.271 15.328 180.031 17.128H190.975C190.831 15.52 190.279 14.2 189.319 13.168C188.383 12.136 187.123 11.62 185.539 11.62ZM217.23 28.0703C216.855 28.0938 216.387 28.082 215.824 28.0352C215.285 27.9883 214.781 28.0703 214.312 28.2812C213.07 28.2344 211.805 28.082 210.516 27.8242C209.227 27.5664 208.043 27.25 206.965 26.875C206.73 26.6172 206.496 26.3828 206.262 26.1719C206.027 25.9375 205.711 25.7734 205.312 25.6797C204.75 25.2344 204.293 24.6953 203.941 24.0625C203.59 23.4062 203.309 22.7148 203.098 21.9883C202.887 21.2617 202.746 20.5234 202.676 19.7734C202.605 19 202.582 18.2617 202.605 17.5586C202.957 16.5039 203.449 15.6016 204.082 14.8516C204.738 14.0781 205.406 13.3164 206.086 12.5664C206.391 12.4258 206.613 12.2852 206.754 12.1445C206.918 11.9805 207.082 11.8398 207.246 11.7227C207.434 11.582 207.609 11.4531 207.773 11.3359C207.961 11.1953 208.125 11.0312 208.266 10.8438C208.758 10.7266 209.18 10.5625 209.531 10.3516C209.906 10.1172 210.27 9.88281 210.621 9.64844C210.973 9.39062 211.336 9.15625 211.711 8.94531C212.086 8.73438 212.52 8.57031 213.012 8.45312C213.199 8.24219 213.422 8.07813 213.68 7.96094C213.938 7.82031 214.195 7.69141 214.453 7.57422C214.734 7.43359 214.992 7.29297 215.227 7.15234C215.484 7.01172 215.684 6.82422 215.824 6.58984C215.941 6.77734 216.105 6.84766 216.316 6.80078C216.527 6.73047 216.727 6.66016 216.914 6.58984C217.031 6.56641 217.125 6.58984 217.195 6.66016C217.289 6.73047 217.371 6.80078 217.441 6.87109C217.512 6.94141 217.57 6.98828 217.617 7.01172C217.688 7.01172 217.746 6.95313 217.793 6.83594C217.91 6.83594 217.945 6.89453 217.898 7.01172C217.852 7.12891 217.816 7.21094 217.793 7.25781C217.98 7.23438 218.133 7.28125 218.25 7.39844C218.391 7.49219 218.602 7.55078 218.883 7.57422C218.977 7.69141 219 7.78516 218.953 7.85547C218.906 7.90234 218.883 7.99609 218.883 8.13672C219.586 8.34766 220.031 8.6875 220.219 9.15625C220.406 9.60156 220.418 10.0703 220.254 10.5625C220.09 11.0547 219.797 11.5117 219.375 11.9336C218.953 12.3555 218.496 12.6367 218.004 12.7773C216.879 13.082 215.812 13.4219 214.805 13.7969C213.82 14.1484 213.012 14.6758 212.379 15.3789C211.816 15.543 211.312 15.7656 210.867 16.0469C210.445 16.3047 210.035 16.6094 209.637 16.9609C209.262 17.2891 208.898 17.6406 208.547 18.0156C208.219 18.3672 207.867 18.7188 207.492 19.0703C207.516 19.3984 207.457 19.6562 207.316 19.8438C207.199 20.0078 207.082 20.1836 206.965 20.3711C207.012 20.7227 207.094 21.0391 207.211 21.3203C207.328 21.5781 207.457 21.8359 207.598 22.0938C209.145 22.5625 210.785 22.8555 212.52 22.9727C214.277 23.0898 216.035 23.1602 217.793 23.1836C217.957 23.418 218.145 23.6406 218.355 23.8516C218.59 24.0391 218.801 24.25 218.988 24.4844C219.176 24.6953 219.328 24.9414 219.445 25.2227C219.562 25.4805 219.586 25.8086 219.516 26.207C219.188 26.5586 218.824 26.8867 218.426 27.1914C218.027 27.4727 217.629 27.7656 217.23 28.0703ZM241.594 17.4531C241.57 17.7344 241.594 18.0039 241.664 18.2617C241.734 18.5195 241.816 18.7773 241.91 19.0352C242.027 19.2695 242.133 19.5156 242.227 19.7734C242.32 20.0312 242.391 20.2891 242.438 20.5469C242.484 20.875 242.484 21.2383 242.438 21.6367C242.391 22.0117 242.309 22.3867 242.191 22.7617C242.074 23.1133 241.922 23.4414 241.734 23.7461C241.547 24.0273 241.324 24.2383 241.066 24.3789C240.738 24.8008 240.34 25.1289 239.871 25.3633C239.402 25.5977 238.969 25.8789 238.57 26.207C238.312 26.3711 238.02 26.4883 237.691 26.5586C237.387 26.6289 237.07 26.6992 236.742 26.7695C236.484 26.9102 236.18 27.0625 235.828 27.2266C235.477 27.3672 235.113 27.5078 234.738 27.6484C234.363 27.7656 233.988 27.8594 233.613 27.9297C233.238 27.9766 232.91 27.9883 232.629 27.9648C231.926 28.2227 231.234 28.3867 230.555 28.457C229.898 28.5508 229.125 28.5039 228.234 28.3164C227.391 28.4336 226.605 28.3984 225.879 28.2109C225.176 28.0234 224.543 27.7305 223.98 27.332C223.441 26.9102 222.961 26.418 222.539 25.8555C222.141 25.2695 221.812 24.6602 221.555 24.0273C221.367 22.6914 221.414 21.4844 221.695 20.4062C221.977 19.3047 222.375 18.2969 222.891 17.3828C223.43 16.4453 224.039 15.5898 224.719 14.8164C225.398 14.0195 226.055 13.2461 226.688 12.4961C226.828 12.543 226.934 12.543 227.004 12.4961C227.098 12.4258 227.18 12.3438 227.25 12.25C227.32 12.1328 227.391 12.0273 227.461 11.9336C227.555 11.8398 227.66 11.7812 227.777 11.7578C227.941 11.4062 228.176 11.1484 228.48 10.9844C228.809 10.7969 229.066 10.5391 229.254 10.2109C229.465 10.1641 229.641 10.0938 229.781 10C229.922 9.90625 230.051 9.80078 230.168 9.68359C230.309 9.56641 230.449 9.46094 230.59 9.36719C230.73 9.25 230.895 9.16797 231.082 9.12109V8.73438C231.504 8.54687 231.809 8.33594 231.996 8.10156C232.207 7.84375 232.453 7.53906 232.734 7.1875C232.945 7.16406 233.109 7.15234 233.227 7.15234C233.367 7.15234 233.566 7.12891 233.824 7.08203C234.012 6.75391 234.176 6.50781 234.316 6.34375C234.48 6.17969 234.715 6.00391 235.02 5.81641C235.301 5.95703 235.605 6.05078 235.934 6.09766C236.285 6.14453 236.59 6.29687 236.848 6.55469C236.871 6.78906 236.941 6.97656 237.059 7.11719C237.176 7.23438 237.305 7.35156 237.445 7.46875C237.586 7.5625 237.715 7.66797 237.832 7.78516C237.973 7.90234 238.066 8.06641 238.113 8.27734C238.207 8.30078 238.266 8.28906 238.289 8.24219C238.336 8.19531 238.406 8.18359 238.5 8.20703C238.57 8.53516 238.652 8.75781 238.746 8.875C238.84 8.96875 238.934 9.16797 239.027 9.47266C238.91 9.70703 238.816 9.95312 238.746 10.2109C238.699 10.4453 238.559 10.6211 238.324 10.7383C238.301 10.9023 238.348 10.9961 238.465 11.0195C238.582 11.0195 238.652 11.0781 238.676 11.1953C238.699 11.4062 238.664 11.5586 238.57 11.6523C239.133 12.5664 239.637 13.5391 240.082 14.5703C240.527 15.5781 241.031 16.5391 241.594 17.4531ZM237.199 20.793C237.293 20.5352 237.41 20.3242 237.551 20.1602C237.715 19.9961 237.809 19.75 237.832 19.4219C237.715 19.2344 237.645 19.0938 237.621 19C237.598 18.8828 237.586 18.707 237.586 18.4727C237.07 17.7461 236.625 16.9727 236.25 16.1523C235.875 15.3086 235.453 14.5234 234.984 13.7969C234.938 13.8906 234.855 13.9844 234.738 14.0781C234.621 14.1719 234.492 14.1484 234.352 14.0078C234.305 14.1953 234.223 14.3359 234.105 14.4297C233.988 14.5 233.859 14.5352 233.719 14.5352C233.578 14.5117 233.426 14.4766 233.262 14.4297C233.121 14.3594 232.992 14.2773 232.875 14.1836C232.195 14.7227 231.516 15.25 230.836 15.7656C230.156 16.2812 229.547 16.8789 229.008 17.5586C228.914 17.6055 228.855 17.6289 228.832 17.6289C228.809 17.6055 228.738 17.6172 228.621 17.6641C228.434 18.1094 228.199 18.5195 227.918 18.8945C227.66 19.2461 227.402 19.6094 227.145 19.9844C226.887 20.3594 226.664 20.7578 226.477 21.1797C226.289 21.6016 226.184 22.0938 226.16 22.6562C226.559 22.9844 227.027 23.1836 227.566 23.2539C228.105 23.3242 228.656 23.3359 229.219 23.2891C229.805 23.2422 230.367 23.1719 230.906 23.0781C231.469 22.9609 231.984 22.9023 232.453 22.9023C233.438 22.668 234.281 22.3633 234.984 21.9883C235.688 21.5898 236.426 21.1914 237.199 20.793ZM250.945 21.6016C250.734 21.6484 250.582 21.7773 250.488 21.9883C250.395 22.1758 250.301 22.375 250.207 22.5859C250.137 22.7969 250.055 22.9961 249.961 23.1836C249.891 23.3477 249.773 23.4297 249.609 23.4297C249.586 23.6172 249.516 23.7812 249.398 23.9219C249.305 24.0625 249.211 24.2148 249.117 24.3789C249.023 24.5195 248.953 24.6836 248.906 24.8711C248.859 25.0352 248.883 25.2344 248.977 25.4688C248.789 25.6094 248.672 25.8086 248.625 26.0664C248.578 26.3242 248.52 26.5703 248.449 26.8047C248.402 27.0391 248.309 27.2383 248.168 27.4023C248.027 27.5664 247.77 27.6367 247.395 27.6133C247.324 27.707 247.312 27.7656 247.359 27.7891C247.406 27.8125 247.441 27.8945 247.465 28.0352C247.207 27.9883 247.008 28 246.867 28.0703C246.75 28.1641 246.598 28.2227 246.41 28.2461C245.965 28.1055 245.59 27.8594 245.285 27.5078C245.004 27.1562 244.746 26.7695 244.512 26.3477C244.301 25.9023 244.102 25.457 243.914 25.0117C243.75 24.5664 243.586 24.1797 243.422 23.8516C243.492 23.5938 243.504 23.3477 243.457 23.1133C243.41 22.8555 243.328 22.6445 243.211 22.4805C244.359 20.043 245.613 17.4414 246.973 14.6758C248.332 11.9102 249.621 9.17969 250.84 6.48438C251.379 6.69531 251.906 6.94141 252.422 7.22266C252.961 7.48047 253.441 7.78516 253.863 8.13672C254.309 8.48828 254.684 8.89844 254.988 9.36719C255.293 9.8125 255.492 10.3164 255.586 10.8789C255.539 11.0195 255.48 11.0781 255.41 11.0547C255.363 11.0078 255.316 11.0195 255.27 11.0898C255.363 11.207 255.41 11.2891 255.41 11.3359C255.434 11.3828 255.434 11.4297 255.41 11.4766C255.41 11.5234 255.41 11.5938 255.41 11.6875C255.41 11.7578 255.445 11.8633 255.516 12.0039C255.422 11.9805 255.352 11.9922 255.305 12.0391C255.281 12.0859 255.211 12.0859 255.094 12.0391C255.188 12.2969 255.211 12.5078 255.164 12.6719C255.141 12.8359 255.094 12.9883 255.023 13.1289C254.953 13.2461 254.895 13.3867 254.848 13.5508C254.801 13.6914 254.812 13.8789 254.883 14.1133C254.812 14.1133 254.754 14.1367 254.707 14.1836C254.684 14.207 254.66 14.2422 254.637 14.2891C254.613 14.3125 254.578 14.3477 254.531 14.3945C254.508 14.418 254.461 14.418 254.391 14.3945C254.461 14.9102 254.484 15.4258 254.461 15.9414C254.438 16.457 254.414 16.9844 254.391 17.5234C254.391 18.0391 254.402 18.5898 254.426 19.1758C254.449 19.7383 254.531 20.3242 254.672 20.9336C255.516 20.4414 256.184 19.8086 256.676 19.0352C257.191 18.2617 257.602 17.3945 257.906 16.4336C258.234 15.4727 258.48 14.4414 258.645 13.3398C258.809 12.2383 258.984 11.1133 259.172 9.96484C259.383 9.75391 259.547 9.49609 259.664 9.19141C259.781 8.88672 259.887 8.57031 259.98 8.24219C260.074 7.89062 260.168 7.55078 260.262 7.22266C260.355 6.87109 260.473 6.55469 260.613 6.27344C260.965 6.32031 261.258 6.4375 261.492 6.625C261.75 6.78906 261.984 6.97656 262.195 7.1875C262.406 7.375 262.629 7.5625 262.863 7.75C263.098 7.91406 263.391 8.01953 263.742 8.06641C264.023 8.46484 264.281 8.85156 264.516 9.22656C264.75 9.60156 264.902 10 264.973 10.4219C264.855 10.6094 264.762 10.8203 264.691 11.0547C264.645 11.2891 264.586 11.5234 264.516 11.7578C264.445 11.9922 264.352 12.2148 264.234 12.4258C264.117 12.6133 263.953 12.7773 263.742 12.918C263.672 13.5273 263.578 14.0898 263.461 14.6055C263.367 15.0977 263.262 15.5898 263.145 16.082C263.051 16.5742 262.969 17.0898 262.898 17.6289C262.828 18.1445 262.805 18.7188 262.828 19.3516C262.641 19.8906 262.441 20.4648 262.23 21.0742C262.02 21.6836 261.855 22.2344 261.738 22.7266C261.363 23.0312 261.07 23.3945 260.859 23.8164C260.648 24.2383 260.426 24.6602 260.191 25.082C260.098 25.1758 260.039 25.1992 260.016 25.1523C259.992 25.1055 259.91 25.0703 259.77 25.0469C259.793 25.1406 259.793 25.2109 259.77 25.2578C259.746 25.3047 259.711 25.3516 259.664 25.3984C259.641 25.4219 259.617 25.4688 259.594 25.5391C259.594 25.6094 259.617 25.7031 259.664 25.8203C259.336 25.9609 259.043 26.1602 258.785 26.418C258.527 26.6758 258.246 26.9102 257.941 27.1211C257.66 27.332 257.309 27.4727 256.887 27.543C256.488 27.6133 255.961 27.5312 255.305 27.2969C254.344 26.5938 253.488 25.7852 252.738 24.8711C252.012 23.957 251.414 22.8672 250.945 21.6016ZM264.621 12.1797C264.785 11.6875 265.043 11.2656 265.395 10.9141C265.77 10.5625 266.168 10.2695 266.59 10.0352C267.035 9.77734 267.492 9.56641 267.961 9.40234C268.43 9.23828 268.875 9.09766 269.297 8.98047C270.234 8.58203 271.23 8.20703 272.285 7.85547C273.363 7.48047 274.453 7.15234 275.555 6.87109C276.68 6.58984 277.828 6.41406 279 6.34375C280.172 6.25 281.402 6.39063 282.691 6.76562C282.762 7 282.867 7.22266 283.008 7.43359C283.148 7.64453 283.289 7.85547 283.43 8.06641C283.594 8.27734 283.734 8.48828 283.852 8.69922C283.969 8.88672 284.039 9.08594 284.062 9.29688C284.297 9.50781 284.484 9.74219 284.625 10C284.766 10.2344 284.789 10.5508 284.695 10.9492C284.461 11.1367 284.227 11.3125 283.992 11.4766C283.781 11.6172 283.547 11.7461 283.289 11.8633C282.422 11.6523 281.543 11.582 280.652 11.6523C279.762 11.7227 278.965 11.7812 278.262 11.8281C278.051 11.6172 277.793 11.5117 277.488 11.5117C277.207 11.5117 276.902 11.5586 276.574 11.6523C276.27 11.7461 275.953 11.8398 275.625 11.9336C275.32 12.0273 275.027 12.0508 274.746 12.0039C274.512 12.1914 274.219 12.3203 273.867 12.3906C273.539 12.4375 273.176 12.4844 272.777 12.5312C272.754 12.6484 272.777 12.7305 272.848 12.7773C272.918 12.8008 272.93 12.8711 272.883 12.9883C273.023 13.1523 273.199 13.2695 273.41 13.3398C273.645 13.4102 273.879 13.4805 274.113 13.5508C274.371 13.6211 274.594 13.7148 274.781 13.832C274.969 13.9258 275.098 14.0898 275.168 14.3242C275.52 14.3242 275.824 14.4062 276.082 14.5703C276.34 14.7344 276.551 14.9336 276.715 15.168C276.879 15.4023 276.996 15.6602 277.066 15.9414C277.16 16.1992 277.207 16.4336 277.207 16.6445C277.277 16.832 277.359 16.9141 277.453 16.8906C277.547 16.8672 277.652 16.9141 277.77 17.0312C277.84 17.3359 278.016 17.6523 278.297 17.9805C278.578 18.2852 278.801 18.625 278.965 19C279.012 19.5859 279.047 20.1133 279.07 20.582C279.094 21.0273 279.012 21.4844 278.824 21.9531C278.473 22.8203 277.98 23.5938 277.348 24.2734C276.738 24.9531 276.035 25.5625 275.238 26.1016C274.465 26.6172 273.633 27.0625 272.742 27.4375C271.852 27.8125 270.984 28.1289 270.141 28.3867C270.047 28.3633 269.953 28.3633 269.859 28.3867C269.766 28.4102 269.742 28.3516 269.789 28.2109C269.602 28.375 269.391 28.4805 269.156 28.5273C268.945 28.5742 268.711 28.5859 268.453 28.5625C268.195 28.5625 267.926 28.5508 267.645 28.5273C267.387 28.5039 267.141 28.5156 266.906 28.5625C266.742 28.3984 266.59 28.2344 266.449 28.0703C266.332 27.9297 266.238 27.7422 266.168 27.5078C266.051 27.5078 265.992 27.4492 265.992 27.332C266.016 27.2148 265.98 27.1562 265.887 27.1562C266.027 26.9219 266.086 26.793 266.062 26.7695C266.062 26.7227 266.027 26.6875 265.957 26.6641C265.91 26.6406 265.863 26.6172 265.816 26.5938C265.77 26.5469 265.758 26.4883 265.781 26.418C265.875 26.2305 265.91 26.0195 265.887 25.7852C265.863 25.5273 265.84 25.2695 265.816 25.0117C265.793 24.7539 265.805 24.5078 265.852 24.2734C265.922 24.0391 266.098 23.8516 266.379 23.7109C267.176 23.8047 267.926 23.7812 268.629 23.6406C269.355 23.4766 270.035 23.2539 270.668 22.9727C271.301 22.6914 271.898 22.3867 272.461 22.0586C273.047 21.7305 273.621 21.4375 274.184 21.1797C274.254 20.9688 274.348 20.793 274.465 20.6523C274.605 20.5117 274.746 20.3828 274.887 20.2656C275.027 20.1484 275.156 20.0195 275.273 19.8789C275.391 19.7383 275.473 19.5625 275.52 19.3516C275.543 19.1875 275.496 19.0938 275.379 19.0703C275.285 19.0234 275.238 18.9297 275.238 18.7891L274.852 18.6836C274.406 18.4258 273.902 18.2148 273.34 18.0508C272.777 17.8633 272.297 17.6641 271.898 17.4531C271.641 17.5938 271.395 17.6289 271.16 17.5586C270.949 17.4883 270.668 17.418 270.316 17.3477C269.52 17.3008 268.746 17.2188 267.996 17.1016C267.27 16.9844 266.566 16.7734 265.887 16.4688C265.84 16.3516 265.781 16.2461 265.711 16.1523C265.641 16.0586 265.512 16.0352 265.324 16.082C265.184 15.8945 265.043 15.7188 264.902 15.5547C264.762 15.3672 264.633 15.168 264.516 14.957C264.562 14.6758 264.598 14.4414 264.621 14.2539C264.645 14.043 264.574 13.8438 264.41 13.6562C264.504 13.3516 264.574 13.1055 264.621 12.918C264.668 12.7305 264.668 12.4844 264.621 12.1797ZM301.5 7.99609C301.547 8.51172 301.629 8.95703 301.746 9.33203C301.863 9.70703 301.992 10.0703 302.133 10.4219C302.25 10.75 302.355 11.0781 302.449 11.4062C302.566 11.7109 302.648 12.0859 302.695 12.5312C302.508 13.1406 302.367 13.7031 302.273 14.2188C302.203 14.7344 302.121 15.2734 302.027 15.8359C301.652 16.6562 301.289 17.3828 300.938 18.0156C300.586 18.6484 300.305 19.1992 300.094 19.668C299.977 19.7852 299.871 19.9258 299.777 20.0898C299.707 20.2305 299.625 20.3828 299.531 20.5469C299.484 20.6172 299.426 20.7227 299.355 20.8633C299.285 21.0039 299.227 21.0977 299.18 21.1445L298.477 20.8984L298.336 21.7773L297.844 21.918L297.492 22.3398C297.047 23.1133 296.578 23.7695 296.086 24.3086C295.594 24.8242 295.031 25.293 294.398 25.7148C293.789 26.1133 293.086 26.4883 292.289 26.8398C291.516 27.1914 290.637 27.5781 289.652 28C289.254 27.9531 288.902 27.9297 288.598 27.9297C288.316 27.9062 288.047 27.8828 287.789 27.8594C287.344 27.8594 286.793 27.8242 286.137 27.7539C286.066 27.5664 285.961 27.4375 285.82 27.3672C285.68 27.2969 285.551 27.2617 285.434 27.2617C285.035 27.0742 284.73 26.8047 284.52 26.4531C284.332 26.0781 284.145 25.6797 283.957 25.2578C283.84 25 283.723 24.7656 283.605 24.5547C283.488 24.3203 283.359 24.0859 283.219 23.8516L283.816 23.6758L283.043 22.832C282.996 22.7617 282.938 22.7031 282.867 22.6562C282.797 22.5859 282.738 22.5156 282.691 22.4453L282.656 21.8828C282.586 20.2656 282.551 18.7891 282.551 17.4531C282.574 16.0938 282.762 14.8867 283.113 13.832V13.4453C283.184 12.9297 283.254 12.5078 283.324 12.1797C283.395 11.8281 283.453 11.5 283.5 11.1953C283.57 10.6797 283.676 10.1992 283.816 9.75391C284.145 9.68359 284.391 9.55469 284.555 9.36719C284.719 9.15625 284.859 8.96875 284.977 8.80469C285.305 8.78125 285.527 8.82812 285.645 8.94531C285.762 9.0625 285.879 9.25 285.996 9.50781C286.113 9.71875 286.254 9.95312 286.418 10.2109C286.605 10.4688 286.875 10.668 287.227 10.8086C287.273 10.9961 287.332 11.1953 287.402 11.4062C287.496 11.5938 287.59 11.8047 287.684 12.0391C287.871 12.4375 288.035 12.8594 288.176 13.3047C288.34 13.7266 288.434 14.1367 288.457 14.5352C288.223 14.9805 288.035 15.4961 287.895 16.082C287.777 16.668 287.695 17.2656 287.648 17.875C287.625 18.4609 287.637 19.0352 287.684 19.5977C287.754 20.1367 287.859 20.5938 288 20.9688L288.211 21.4258L288.809 21.3555C289.512 21.168 290.145 20.9688 290.707 20.7578C291.293 20.5234 291.832 20.2539 292.324 19.9492C292.816 19.6445 293.285 19.293 293.73 18.8945C294.176 18.4727 294.645 17.9922 295.137 17.4531C295.629 16.9141 296.051 16.3047 296.402 15.625C296.777 14.9219 297.082 14.1953 297.316 13.4453C297.574 12.6953 297.762 11.957 297.879 11.2305C298.02 10.4805 298.113 9.77734 298.16 9.12109C298.559 8.98047 298.758 8.69922 298.758 8.27734L298.688 7.89062C298.594 7.75 298.594 7.58594 298.688 7.39844C298.828 6.95313 299.156 6.61328 299.672 6.37891C300.047 6.61328 300.375 6.87109 300.656 7.15234C300.961 7.43359 301.242 7.71484 301.5 7.99609ZM311.098 27.6133C310.441 27.8242 309.727 28.0352 308.953 28.2461C308.18 28.457 307.406 28.5625 306.633 28.5625C305.461 28.5625 304.535 28.2695 303.855 27.6836C303.738 27.4258 303.633 27.25 303.539 27.1562C303.469 27.0625 303.398 26.9688 303.328 26.875C303.281 26.7578 303.246 26.6055 303.223 26.418C302.941 26.0898 302.719 25.7148 302.555 25.293C302.391 24.8477 302.273 24.4023 302.203 23.957C302.156 23.4883 302.145 23.0195 302.168 22.5508C302.215 22.082 302.297 21.6367 302.414 21.2148C302.461 21.1211 302.484 21.0273 302.484 20.9336C302.508 20.8398 302.531 20.7344 302.555 20.6172C302.648 20.2422 302.742 19.8789 302.836 19.5273C302.953 19.1758 303.105 18.8711 303.293 18.6133C303.199 18.4023 303.199 18.168 303.293 17.9102C303.387 17.6523 303.492 17.418 303.609 17.207C303.938 16.3164 304.207 15.5664 304.418 14.957C304.652 14.3242 304.887 13.7031 305.121 13.0938C305.52 12.0391 305.895 10.9961 306.246 9.96484C306.598 8.93359 306.914 7.82031 307.195 6.625C307.383 6.50781 307.523 6.42578 307.617 6.37891C307.758 6.33203 307.875 6.29687 307.969 6.27344C308.391 6.48438 308.883 6.69531 309.445 6.90625C310.008 7.09375 310.477 7.1875 310.852 7.1875C311.039 7.30469 311.156 7.39844 311.203 7.46875C311.25 7.51563 311.297 7.5625 311.344 7.60938C311.602 7.91406 311.824 8.23047 312.012 8.55859C312.199 8.86328 312.258 9.27344 312.188 9.78906C312.047 10 311.941 10.1055 311.871 10.1055C311.754 10.5742 311.625 10.9727 311.484 11.3008C311.367 11.6289 311.238 11.957 311.098 12.2852C310.934 12.6367 310.781 12.9883 310.641 13.3398C310.5 13.6914 310.383 14.125 310.289 14.6406C310.195 14.7578 310.125 14.8633 310.078 14.957C310.055 15.0508 310.02 15.1562 309.973 15.2734C309.926 15.3906 309.867 15.5195 309.797 15.6602C309.75 15.7773 309.668 15.8828 309.551 15.9766C309.48 16.5859 309.363 17.0781 309.199 17.4531C309.059 17.8281 308.906 18.2031 308.742 18.5781C308.461 19.2578 308.203 19.9375 307.969 20.6172C307.758 21.2969 307.629 22.0703 307.582 22.9375C307.699 22.8906 307.805 22.8672 307.898 22.8672C308.016 22.8672 308.121 22.8672 308.215 22.8672C308.426 22.8672 308.672 22.9023 308.953 22.9727C309.656 22.5977 310.418 22.375 311.238 22.3047C312.082 22.2344 312.914 22.1875 313.734 22.1641C314.062 22.1641 314.391 22.1641 314.719 22.1641C315.047 22.1641 315.352 22.1406 315.633 22.0938C315.844 22.2109 315.973 22.2812 316.02 22.3047C316.09 22.3047 316.184 22.3047 316.301 22.3047C316.465 22.3047 316.605 22.3164 316.723 22.3398C317.004 22.5977 317.273 22.7852 317.531 22.9023C317.789 23.0195 318.059 23.125 318.34 23.2188C318.598 23.3125 318.844 23.418 319.078 23.5352C319.336 23.6289 319.582 23.7695 319.816 23.957L320.062 25.4688C320.227 25.6797 320.297 25.8203 320.273 25.8906C320.273 26.0781 320.227 26.2188 320.133 26.3125L320.203 26.6992C319.852 26.7695 319.605 26.8516 319.465 26.9453C319.348 27.0391 319.23 27.1445 319.113 27.2617C318.926 27.2852 318.785 27.2969 318.691 27.2969C318.621 27.2969 318.551 27.2969 318.48 27.2969C318.152 27.2969 317.754 27.3555 317.285 27.4727C316.652 27.2617 315.996 27.1562 315.316 27.1562C315.059 27.1562 314.789 27.168 314.508 27.1914C314.227 27.2148 313.945 27.2383 313.664 27.2617C313.383 27.3086 313.09 27.3438 312.785 27.3672C312.504 27.3906 312.211 27.4023 311.906 27.4023L311.098 27.6133ZM338.133 11.0898C337.547 11.0898 336.914 11.1367 336.234 11.2305C335.555 11.3008 334.887 11.3828 334.23 11.4766C333.762 11.5469 333.305 11.6055 332.859 11.6523C332.438 11.6992 332.051 11.7344 331.699 11.7578C331.535 12.2734 331.371 12.7305 331.207 13.1289C331.043 13.5273 330.867 13.9141 330.68 14.2891C330.492 14.6875 330.316 15.0977 330.152 15.5195C330.012 15.918 329.871 16.3516 329.73 16.8203C329.496 17.1953 329.297 17.5469 329.133 17.875C328.992 18.1797 328.875 18.5312 328.781 18.9297C328.5 19.2812 328.289 19.6562 328.148 20.0547C328.008 20.4297 327.902 20.7578 327.832 21.0391L327.691 21.4609C327.551 21.6016 327.469 21.7188 327.445 21.8125C327.422 21.8828 327.363 21.9531 327.27 22.0234C327.246 22.2812 327.164 22.5391 327.023 22.7969C326.977 22.9141 326.941 23.0312 326.918 23.1484C326.895 23.2422 326.883 23.3125 326.883 23.3594C326.883 23.5938 326.824 23.7461 326.707 23.8164C326.73 23.9336 326.73 24.0625 326.707 24.2031C326.684 24.3203 326.66 24.4375 326.637 24.5547C326.566 24.8359 326.543 25.0586 326.566 25.2227C326.637 25.3164 326.695 25.3984 326.742 25.4688C326.812 25.5391 326.859 25.6328 326.883 25.75C327.023 25.8438 327.129 25.9023 327.199 25.9258C327.293 25.9961 327.434 26.0781 327.621 26.1719L327.938 26.5234C328.055 27.2031 327.949 27.7422 327.621 28.1406C327.27 28.5859 326.672 28.8086 325.828 28.8086H325.406C325.289 28.6914 325.219 28.5977 325.195 28.5273C325.008 28.457 324.855 28.3984 324.738 28.3516C324.621 28.3047 324.516 28.2109 324.422 28.0703C324.117 27.9297 323.871 27.8125 323.684 27.7188L323.367 27.543C323.367 27.2852 323.367 27.1445 323.367 27.1211C323.203 26.9102 323.074 26.6758 322.98 26.418C322.91 26.1602 322.852 25.9023 322.805 25.6445C322.758 25.4336 322.699 25.2344 322.629 25.0469C322.582 24.8594 322.512 24.6953 322.418 24.5547C322.371 23.1953 322.5 22.0469 322.805 21.1094C323.109 20.1719 323.426 19.2695 323.754 18.4023C323.941 17.9336 324.129 17.4648 324.316 16.9961C324.504 16.5039 324.668 16 324.809 15.4844L325.125 15.1328C325.289 14.7578 325.418 14.4531 325.512 14.2188C325.629 13.9609 325.746 13.7031 325.863 13.4453C325.934 13.2812 325.992 13.1289 326.039 12.9883C326.109 12.8242 326.168 12.6836 326.215 12.5664C326.074 12.5664 325.945 12.5781 325.828 12.6016C325.711 12.6016 325.594 12.6133 325.477 12.6367C325.336 12.6602 325.207 12.6836 325.09 12.707C324.973 12.707 324.855 12.707 324.738 12.707C324.574 12.707 324.457 12.6953 324.387 12.6719C324.129 12.7891 323.848 12.8477 323.543 12.8477H323.191C323.121 12.8477 323.051 12.8477 322.98 12.8477C322.934 12.8242 322.887 12.8125 322.84 12.8125C322.605 12.8125 322.418 12.8477 322.277 12.918C321.996 12.918 321.727 12.918 321.469 12.918H321.117C321.07 12.918 321.012 12.9297 320.941 12.9531C320.871 12.9531 320.812 12.9531 320.766 12.9531C320.602 12.9531 320.426 12.9414 320.238 12.918C320.051 12.8711 319.852 12.7891 319.641 12.6719C319.359 12.2969 319.172 12.0977 319.078 12.0742L318.762 11.6523C318.738 11.5117 318.703 11.3828 318.656 11.2656C318.609 11.125 318.562 10.9727 318.516 10.8086C318.422 10.5742 318.328 10.3281 318.234 10.0703C318.164 9.78906 318.129 9.46094 318.129 9.08594C318.152 8.89844 318.199 8.75781 318.27 8.66406C318.34 8.57031 318.398 8.48828 318.445 8.41797L318.551 7.89062L319.008 7.92578H319.992C320.742 7.92578 321.504 7.90234 322.277 7.85547C323.051 7.78516 323.848 7.71484 324.668 7.64453C325.137 7.59766 325.605 7.55078 326.074 7.50391C326.566 7.45703 327.07 7.41016 327.586 7.36328C327.68 7.15234 327.773 6.95313 327.867 6.76562L328.219 6.58984C328.641 6.56641 328.934 6.625 329.098 6.76562C329.285 6.88281 329.438 7 329.555 7.11719C330.07 7.07031 330.586 7.02344 331.102 6.97656C331.641 6.90625 332.18 6.82422 332.719 6.73047C333.516 6.61328 334.312 6.50781 335.109 6.41406C335.93 6.32031 336.715 6.27344 337.465 6.27344C337.793 6.27344 338.109 6.28516 338.414 6.30859C338.719 6.33203 339 6.36719 339.258 6.41406L339.609 6.66016C339.68 6.80078 339.773 6.92969 339.891 7.04688C340.031 7.16406 340.172 7.28125 340.312 7.39844C340.594 7.65625 340.875 7.96094 341.156 8.3125C341.438 8.66406 341.543 9.17969 341.473 9.85938C341.285 10.1406 341.145 10.3047 341.051 10.3516L340.734 10.7734L340.383 10.7383C340.242 10.7383 340.113 10.7617 339.996 10.8086C339.879 10.832 339.762 10.8672 339.645 10.9141C339.551 10.9609 339.457 11.0078 339.363 11.0547C339.27 11.0781 339.164 11.1016 339.047 11.125C338.836 11.125 338.66 11.125 338.52 11.125C338.402 11.1016 338.273 11.0898 338.133 11.0898ZM352.195 25.0469C352.055 25.4453 351.844 25.8555 351.562 26.2773C351.305 26.6758 350.988 27.0391 350.613 27.3672C350.262 27.6719 349.863 27.9297 349.418 28.1406C348.973 28.3516 348.504 28.4688 348.012 28.4922C347.707 28.4219 347.496 28.3398 347.379 28.2461C347.285 28.1758 347.18 28.1055 347.062 28.0352C346.992 27.9883 346.922 27.9531 346.852 27.9297C346.805 27.8828 346.758 27.8477 346.711 27.8242L346.289 27.6484L346.43 27.1914C346.477 27.0039 346.465 26.8633 346.395 26.7695C346.324 26.6523 346.184 26.5 345.973 26.3125C345.902 26.2422 345.832 26.1719 345.762 26.1016C345.691 26.0312 345.633 25.9609 345.586 25.8906L344.988 25.2227L345.938 24.9766C346.523 24.8125 346.91 24.6016 347.098 24.3438C347.309 24.0859 347.391 23.6523 347.344 23.043C346.875 22.9492 346.477 22.9375 346.148 23.0078C345.844 23.0781 345.527 23.1602 345.199 23.2539C344.777 23.3711 344.344 23.4766 343.898 23.5703C343.477 23.6406 343.008 23.6758 342.492 23.6758C342.305 23.6758 342.129 23.6758 341.965 23.6758C341.801 23.6523 341.625 23.6289 341.438 23.6055L341.086 23.5352C341.039 23.2773 340.992 23.1367 340.945 23.1133C340.898 23.0664 340.852 23.0195 340.805 22.9727C340.688 22.8555 340.559 22.7031 340.418 22.5156C340.301 22.3047 340.277 22.0469 340.348 21.7422C340.23 21.5312 340.16 21.3203 340.137 21.1094C339.996 21.3906 339.891 21.6836 339.82 21.9883L339.68 22.3398L339.328 22.4102C339.281 22.4336 339.246 22.4922 339.223 22.5859C339.199 22.6562 339.188 22.7148 339.188 22.7617L339.012 23.3594C338.965 23.4062 338.918 23.4531 338.871 23.5C338.824 23.5234 338.777 23.5586 338.73 23.6055C338.684 23.8164 338.625 24.0273 338.555 24.2383C338.484 24.4492 338.414 24.6484 338.344 24.8359C338.227 25.1406 338.121 25.4453 338.027 25.75C337.957 26.0312 337.934 26.3125 337.957 26.5938L337.816 26.9805C337.699 27.1211 337.57 27.2383 337.43 27.332C337.289 27.4023 337.148 27.4727 337.008 27.543C336.961 27.5898 336.891 27.6367 336.797 27.6836C336.727 27.707 336.668 27.7305 336.621 27.7539L336.516 28.1406L336.094 28.2109C335.836 28.2578 335.648 28.293 335.531 28.3164C335.438 28.3398 335.32 28.3516 335.18 28.3516L334.828 28.3164C334.57 28.1055 334.371 27.9414 334.23 27.8242C334.09 27.6836 333.926 27.5547 333.738 27.4375C333.527 27.1562 333.41 26.9453 333.387 26.8047C333.363 26.6641 333.34 26.5352 333.316 26.418C333.27 26.2773 333.246 26.1602 333.246 26.0664C333.223 25.9727 333.188 25.9023 333.141 25.8555L332.684 25.4336L333.07 25.1172L333.105 24.5195C333.574 23.3242 334.066 22.1758 334.582 21.0742C335.121 19.9727 335.672 18.8477 336.234 17.6992C336.422 17.3242 336.598 16.9492 336.762 16.5742C336.949 16.1992 337.137 15.8242 337.324 15.4492C337.301 15.3789 337.289 15.2969 337.289 15.2031C337.289 15.1094 337.312 15.0039 337.359 14.8867C337.617 14.4883 337.828 14.1367 337.992 13.832C338.156 13.5039 338.32 13.1758 338.484 12.8477C338.672 12.4492 338.859 12.0625 339.047 11.6875C339.258 11.3125 339.516 10.9258 339.82 10.5273L340.383 10.2812C340.453 10.2578 340.535 10.2344 340.629 10.2109C340.723 10.1641 340.828 10.1406 340.945 10.1406L341.473 10.2109C342.129 9.90625 342.703 9.48438 343.195 8.94531C343.688 8.38281 344.191 7.71484 344.707 6.94141L345.059 6.44922L345.516 6.73047C345.633 6.80078 345.797 6.87109 346.008 6.94141C346.219 6.98828 346.441 7.04688 346.676 7.11719C347.098 7.21094 347.496 7.31641 347.871 7.43359C348.246 7.55078 348.551 7.72656 348.785 7.96094C348.926 8.33594 349.008 8.61719 349.031 8.80469C349.055 8.99219 349.09 9.17969 349.137 9.36719C349.207 9.76563 349.266 10.1641 349.312 10.5625C349.383 10.9609 349.43 11.4062 349.453 11.8984C349.57 12.2969 349.664 12.6953 349.734 13.0938C349.828 13.4688 349.91 13.8555 349.98 14.2539C350.098 14.8164 350.215 15.3672 350.332 15.9062C350.449 16.4219 350.602 16.9141 350.789 17.3828C350.977 17.3828 351.094 17.3945 351.141 17.418C351.258 17.3711 351.375 17.3359 351.492 17.3125C351.633 17.2891 351.785 17.2656 351.949 17.2422L352.336 17.207L352.477 17.5586C352.5 17.6758 352.617 17.793 352.828 17.9102C353.133 17.9336 353.355 18.0039 353.496 18.1211C353.637 18.2148 353.766 18.3203 353.883 18.4375C353.977 18.5312 354.07 18.6016 354.164 18.6484L354.691 18.8594L354.41 19.3867C354.176 19.8086 353.836 20.2188 353.391 20.6172C352.969 20.9922 352.488 21.3086 351.949 21.5664C351.973 21.707 351.984 21.8477 351.984 21.9883C352.008 22.1055 352.043 22.2344 352.09 22.375C352.16 22.7734 352.219 23.1836 352.266 23.6055C352.312 24.0273 352.312 24.4609 352.266 24.9062L352.195 25.0469ZM342.035 18.9648C342.738 18.918 343.371 18.8711 343.934 18.8242C344.52 18.7539 345.164 18.6484 345.867 18.5078C345.703 17.8047 345.527 17.0781 345.34 16.3281C345.152 15.5547 344.953 14.793 344.742 14.043L344.531 14.3945C344.062 14.8867 343.605 15.4375 343.16 16.0469C342.738 16.6562 342.375 17.2305 342.07 17.7695C341.93 17.9805 341.789 18.1914 341.648 18.4023C341.508 18.6133 341.379 18.8242 341.262 19.0352C341.402 19.0117 341.531 19 341.648 19C341.789 19 341.918 18.9883 342.035 18.9648ZM361.723 21.6016C361.512 21.6484 361.359 21.7773 361.266 21.9883C361.172 22.1758 361.078 22.375 360.984 22.5859C360.914 22.7969 360.832 22.9961 360.738 23.1836C360.668 23.3477 360.551 23.4297 360.387 23.4297C360.363 23.6172 360.293 23.7812 360.176 23.9219C360.082 24.0625 359.988 24.2148 359.895 24.3789C359.801 24.5195 359.73 24.6836 359.684 24.8711C359.637 25.0352 359.66 25.2344 359.754 25.4688C359.566 25.6094 359.449 25.8086 359.402 26.0664C359.355 26.3242 359.297 26.5703 359.227 26.8047C359.18 27.0391 359.086 27.2383 358.945 27.4023C358.805 27.5664 358.547 27.6367 358.172 27.6133C358.102 27.707 358.09 27.7656 358.137 27.7891C358.184 27.8125 358.219 27.8945 358.242 28.0352C357.984 27.9883 357.785 28 357.645 28.0703C357.527 28.1641 357.375 28.2227 357.188 28.2461C356.742 28.1055 356.367 27.8594 356.062 27.5078C355.781 27.1562 355.523 26.7695 355.289 26.3477C355.078 25.9023 354.879 25.457 354.691 25.0117C354.527 24.5664 354.363 24.1797 354.199 23.8516C354.27 23.5938 354.281 23.3477 354.234 23.1133C354.188 22.8555 354.105 22.6445 353.988 22.4805C355.137 20.043 356.391 17.4414 357.75 14.6758C359.109 11.9102 360.398 9.17969 361.617 6.48438C362.156 6.69531 362.684 6.94141 363.199 7.22266C363.738 7.48047 364.219 7.78516 364.641 8.13672C365.086 8.48828 365.461 8.89844 365.766 9.36719C366.07 9.8125 366.27 10.3164 366.363 10.8789C366.316 11.0195 366.258 11.0781 366.188 11.0547C366.141 11.0078 366.094 11.0195 366.047 11.0898C366.141 11.207 366.188 11.2891 366.188 11.3359C366.211 11.3828 366.211 11.4297 366.188 11.4766C366.188 11.5234 366.188 11.5938 366.188 11.6875C366.188 11.7578 366.223 11.8633 366.293 12.0039C366.199 11.9805 366.129 11.9922 366.082 12.0391C366.059 12.0859 365.988 12.0859 365.871 12.0391C365.965 12.2969 365.988 12.5078 365.941 12.6719C365.918 12.8359 365.871 12.9883 365.801 13.1289C365.73 13.2461 365.672 13.3867 365.625 13.5508C365.578 13.6914 365.59 13.8789 365.66 14.1133C365.59 14.1133 365.531 14.1367 365.484 14.1836C365.461 14.207 365.438 14.2422 365.414 14.2891C365.391 14.3125 365.355 14.3477 365.309 14.3945C365.285 14.418 365.238 14.418 365.168 14.3945C365.238 14.9102 365.262 15.4258 365.238 15.9414C365.215 16.457 365.191 16.9844 365.168 17.5234C365.168 18.0391 365.18 18.5898 365.203 19.1758C365.227 19.7383 365.309 20.3242 365.449 20.9336C366.293 20.4414 366.961 19.8086 367.453 19.0352C367.969 18.2617 368.379 17.3945 368.684 16.4336C369.012 15.4727 369.258 14.4414 369.422 13.3398C369.586 12.2383 369.762 11.1133 369.949 9.96484C370.16 9.75391 370.324 9.49609 370.441 9.19141C370.559 8.88672 370.664 8.57031 370.758 8.24219C370.852 7.89062 370.945 7.55078 371.039 7.22266C371.133 6.87109 371.25 6.55469 371.391 6.27344C371.742 6.32031 372.035 6.4375 372.27 6.625C372.527 6.78906 372.762 6.97656 372.973 7.1875C373.184 7.375 373.406 7.5625 373.641 7.75C373.875 7.91406 374.168 8.01953 374.52 8.06641C374.801 8.46484 375.059 8.85156 375.293 9.22656C375.527 9.60156 375.68 10 375.75 10.4219C375.633 10.6094 375.539 10.8203 375.469 11.0547C375.422 11.2891 375.363 11.5234 375.293 11.7578C375.223 11.9922 375.129 12.2148 375.012 12.4258C374.895 12.6133 374.73 12.7773 374.52 12.918C374.449 13.5273 374.355 14.0898 374.238 14.6055C374.145 15.0977 374.039 15.5898 373.922 16.082C373.828 16.5742 373.746 17.0898 373.676 17.6289C373.605 18.1445 373.582 18.7188 373.605 19.3516C373.418 19.8906 373.219 20.4648 373.008 21.0742C372.797 21.6836 372.633 22.2344 372.516 22.7266C372.141 23.0312 371.848 23.3945 371.637 23.8164C371.426 24.2383 371.203 24.6602 370.969 25.082C370.875 25.1758 370.816 25.1992 370.793 25.1523C370.77 25.1055 370.688 25.0703 370.547 25.0469C370.57 25.1406 370.57 25.2109 370.547 25.2578C370.523 25.3047 370.488 25.3516 370.441 25.3984C370.418 25.4219 370.395 25.4688 370.371 25.5391C370.371 25.6094 370.395 25.7031 370.441 25.8203C370.113 25.9609 369.82 26.1602 369.562 26.418C369.305 26.6758 369.023 26.9102 368.719 27.1211C368.438 27.332 368.086 27.4727 367.664 27.543C367.266 27.6133 366.738 27.5312 366.082 27.2969C365.121 26.5938 364.266 25.7852 363.516 24.8711C362.789 23.957 362.191 22.8672 361.723 21.6016ZM394.84 11.0898C394.254 11.0898 393.621 11.1367 392.941 11.2305C392.262 11.3008 391.594 11.3828 390.938 11.4766C390.469 11.5469 390.012 11.6055 389.566 11.6523C389.145 11.6992 388.758 11.7344 388.406 11.7578C388.242 12.2734 388.078 12.7305 387.914 13.1289C387.75 13.5273 387.574 13.9141 387.387 14.2891C387.199 14.6875 387.023 15.0977 386.859 15.5195C386.719 15.918 386.578 16.3516 386.438 16.8203C386.203 17.1953 386.004 17.5469 385.84 17.875C385.699 18.1797 385.582 18.5312 385.488 18.9297C385.207 19.2812 384.996 19.6562 384.855 20.0547C384.715 20.4297 384.609 20.7578 384.539 21.0391L384.398 21.4609C384.258 21.6016 384.176 21.7188 384.152 21.8125C384.129 21.8828 384.07 21.9531 383.977 22.0234C383.953 22.2812 383.871 22.5391 383.73 22.7969C383.684 22.9141 383.648 23.0312 383.625 23.1484C383.602 23.2422 383.59 23.3125 383.59 23.3594C383.59 23.5938 383.531 23.7461 383.414 23.8164C383.438 23.9336 383.438 24.0625 383.414 24.2031C383.391 24.3203 383.367 24.4375 383.344 24.5547C383.273 24.8359 383.25 25.0586 383.273 25.2227C383.344 25.3164 383.402 25.3984 383.449 25.4688C383.52 25.5391 383.566 25.6328 383.59 25.75C383.73 25.8438 383.836 25.9023 383.906 25.9258C384 25.9961 384.141 26.0781 384.328 26.1719L384.645 26.5234C384.762 27.2031 384.656 27.7422 384.328 28.1406C383.977 28.5859 383.379 28.8086 382.535 28.8086H382.113C381.996 28.6914 381.926 28.5977 381.902 28.5273C381.715 28.457 381.562 28.3984 381.445 28.3516C381.328 28.3047 381.223 28.2109 381.129 28.0703C380.824 27.9297 380.578 27.8125 380.391 27.7188L380.074 27.543C380.074 27.2852 380.074 27.1445 380.074 27.1211C379.91 26.9102 379.781 26.6758 379.688 26.418C379.617 26.1602 379.559 25.9023 379.512 25.6445C379.465 25.4336 379.406 25.2344 379.336 25.0469C379.289 24.8594 379.219 24.6953 379.125 24.5547C379.078 23.1953 379.207 22.0469 379.512 21.1094C379.816 20.1719 380.133 19.2695 380.461 18.4023C380.648 17.9336 380.836 17.4648 381.023 16.9961C381.211 16.5039 381.375 16 381.516 15.4844L381.832 15.1328C381.996 14.7578 382.125 14.4531 382.219 14.2188C382.336 13.9609 382.453 13.7031 382.57 13.4453C382.641 13.2812 382.699 13.1289 382.746 12.9883C382.816 12.8242 382.875 12.6836 382.922 12.5664C382.781 12.5664 382.652 12.5781 382.535 12.6016C382.418 12.6016 382.301 12.6133 382.184 12.6367C382.043 12.6602 381.914 12.6836 381.797 12.707C381.68 12.707 381.562 12.707 381.445 12.707C381.281 12.707 381.164 12.6953 381.094 12.6719C380.836 12.7891 380.555 12.8477 380.25 12.8477H379.898C379.828 12.8477 379.758 12.8477 379.688 12.8477C379.641 12.8242 379.594 12.8125 379.547 12.8125C379.312 12.8125 379.125 12.8477 378.984 12.918C378.703 12.918 378.434 12.918 378.176 12.918H377.824C377.777 12.918 377.719 12.9297 377.648 12.9531C377.578 12.9531 377.52 12.9531 377.473 12.9531C377.309 12.9531 377.133 12.9414 376.945 12.918C376.758 12.8711 376.559 12.7891 376.348 12.6719C376.066 12.2969 375.879 12.0977 375.785 12.0742L375.469 11.6523C375.445 11.5117 375.41 11.3828 375.363 11.2656C375.316 11.125 375.27 10.9727 375.223 10.8086C375.129 10.5742 375.035 10.3281 374.941 10.0703C374.871 9.78906 374.836 9.46094 374.836 9.08594C374.859 8.89844 374.906 8.75781 374.977 8.66406C375.047 8.57031 375.105 8.48828 375.152 8.41797L375.258 7.89062L375.715 7.92578H376.699C377.449 7.92578 378.211 7.90234 378.984 7.85547C379.758 7.78516 380.555 7.71484 381.375 7.64453C381.844 7.59766 382.312 7.55078 382.781 7.50391C383.273 7.45703 383.777 7.41016 384.293 7.36328C384.387 7.15234 384.48 6.95313 384.574 6.76562L384.926 6.58984C385.348 6.56641 385.641 6.625 385.805 6.76562C385.992 6.88281 386.145 7 386.262 7.11719C386.777 7.07031 387.293 7.02344 387.809 6.97656C388.348 6.90625 388.887 6.82422 389.426 6.73047C390.223 6.61328 391.02 6.50781 391.816 6.41406C392.637 6.32031 393.422 6.27344 394.172 6.27344C394.5 6.27344 394.816 6.28516 395.121 6.30859C395.426 6.33203 395.707 6.36719 395.965 6.41406L396.316 6.66016C396.387 6.80078 396.48 6.92969 396.598 7.04688C396.738 7.16406 396.879 7.28125 397.02 7.39844C397.301 7.65625 397.582 7.96094 397.863 8.3125C398.145 8.66406 398.25 9.17969 398.18 9.85938C397.992 10.1406 397.852 10.3047 397.758 10.3516L397.441 10.7734L397.09 10.7383C396.949 10.7383 396.82 10.7617 396.703 10.8086C396.586 10.832 396.469 10.8672 396.352 10.9141C396.258 10.9609 396.164 11.0078 396.07 11.0547C395.977 11.0781 395.871 11.1016 395.754 11.125C395.543 11.125 395.367 11.125 395.227 11.125C395.109 11.1016 394.98 11.0898 394.84 11.0898ZM392.66 12.1797C392.824 11.6875 393.082 11.2656 393.434 10.9141C393.809 10.5625 394.207 10.2695 394.629 10.0352C395.074 9.77734 395.531 9.56641 396 9.40234C396.469 9.23828 396.914 9.09766 397.336 8.98047C398.273 8.58203 399.27 8.20703 400.324 7.85547C401.402 7.48047 402.492 7.15234 403.594 6.87109C404.719 6.58984 405.867 6.41406 407.039 6.34375C408.211 6.25 409.441 6.39063 410.73 6.76562C410.801 7 410.906 7.22266 411.047 7.43359C411.188 7.64453 411.328 7.85547 411.469 8.06641C411.633 8.27734 411.773 8.48828 411.891 8.69922C412.008 8.88672 412.078 9.08594 412.102 9.29688C412.336 9.50781 412.523 9.74219 412.664 10C412.805 10.2344 412.828 10.5508 412.734 10.9492C412.5 11.1367 412.266 11.3125 412.031 11.4766C411.82 11.6172 411.586 11.7461 411.328 11.8633C410.461 11.6523 409.582 11.582 408.691 11.6523C407.801 11.7227 407.004 11.7812 406.301 11.8281C406.09 11.6172 405.832 11.5117 405.527 11.5117C405.246 11.5117 404.941 11.5586 404.613 11.6523C404.309 11.7461 403.992 11.8398 403.664 11.9336C403.359 12.0273 403.066 12.0508 402.785 12.0039C402.551 12.1914 402.258 12.3203 401.906 12.3906C401.578 12.4375 401.215 12.4844 400.816 12.5312C400.793 12.6484 400.816 12.7305 400.887 12.7773C400.957 12.8008 400.969 12.8711 400.922 12.9883C401.062 13.1523 401.238 13.2695 401.449 13.3398C401.684 13.4102 401.918 13.4805 402.152 13.5508C402.41 13.6211 402.633 13.7148 402.82 13.832C403.008 13.9258 403.137 14.0898 403.207 14.3242C403.559 14.3242 403.863 14.4062 404.121 14.5703C404.379 14.7344 404.59 14.9336 404.754 15.168C404.918 15.4023 405.035 15.6602 405.105 15.9414C405.199 16.1992 405.246 16.4336 405.246 16.6445C405.316 16.832 405.398 16.9141 405.492 16.8906C405.586 16.8672 405.691 16.9141 405.809 17.0312C405.879 17.3359 406.055 17.6523 406.336 17.9805C406.617 18.2852 406.84 18.625 407.004 19C407.051 19.5859 407.086 20.1133 407.109 20.582C407.133 21.0273 407.051 21.4844 406.863 21.9531C406.512 22.8203 406.02 23.5938 405.387 24.2734C404.777 24.9531 404.074 25.5625 403.277 26.1016C402.504 26.6172 401.672 27.0625 400.781 27.4375C399.891 27.8125 399.023 28.1289 398.18 28.3867C398.086 28.3633 397.992 28.3633 397.898 28.3867C397.805 28.4102 397.781 28.3516 397.828 28.2109C397.641 28.375 397.43 28.4805 397.195 28.5273C396.984 28.5742 396.75 28.5859 396.492 28.5625C396.234 28.5625 395.965 28.5508 395.684 28.5273C395.426 28.5039 395.18 28.5156 394.945 28.5625C394.781 28.3984 394.629 28.2344 394.488 28.0703C394.371 27.9297 394.277 27.7422 394.207 27.5078C394.09 27.5078 394.031 27.4492 394.031 27.332C394.055 27.2148 394.02 27.1562 393.926 27.1562C394.066 26.9219 394.125 26.793 394.102 26.7695C394.102 26.7227 394.066 26.6875 393.996 26.6641C393.949 26.6406 393.902 26.6172 393.855 26.5938C393.809 26.5469 393.797 26.4883 393.82 26.418C393.914 26.2305 393.949 26.0195 393.926 25.7852C393.902 25.5273 393.879 25.2695 393.855 25.0117C393.832 24.7539 393.844 24.5078 393.891 24.2734C393.961 24.0391 394.137 23.8516 394.418 23.7109C395.215 23.8047 395.965 23.7812 396.668 23.6406C397.395 23.4766 398.074 23.2539 398.707 22.9727C399.34 22.6914 399.938 22.3867 400.5 22.0586C401.086 21.7305 401.66 21.4375 402.223 21.1797C402.293 20.9688 402.387 20.793 402.504 20.6523C402.645 20.5117 402.785 20.3828 402.926 20.2656C403.066 20.1484 403.195 20.0195 403.312 19.8789C403.43 19.7383 403.512 19.5625 403.559 19.3516C403.582 19.1875 403.535 19.0938 403.418 19.0703C403.324 19.0234 403.277 18.9297 403.277 18.7891L402.891 18.6836C402.445 18.4258 401.941 18.2148 401.379 18.0508C400.816 17.8633 400.336 17.6641 399.938 17.4531C399.68 17.5938 399.434 17.6289 399.199 17.5586C398.988 17.4883 398.707 17.418 398.355 17.3477C397.559 17.3008 396.785 17.2188 396.035 17.1016C395.309 16.9844 394.605 16.7734 393.926 16.4688C393.879 16.3516 393.82 16.2461 393.75 16.1523C393.68 16.0586 393.551 16.0352 393.363 16.082C393.223 15.8945 393.082 15.7188 392.941 15.5547C392.801 15.3672 392.672 15.168 392.555 14.957C392.602 14.6758 392.637 14.4414 392.66 14.2539C392.684 14.043 392.613 13.8438 392.449 13.6562C392.543 13.3516 392.613 13.1055 392.66 12.918C392.707 12.7305 392.707 12.4844 392.66 12.1797ZM413.93 23.8164C413.977 24.0039 414.012 24.1797 414.035 24.3438C414.059 24.5078 414.094 24.6836 414.141 24.8711C414.047 25.1055 413.965 25.3398 413.895 25.5742C413.824 25.7852 413.754 25.9961 413.684 26.207C413.613 26.3711 413.566 26.4766 413.543 26.5234C413.52 26.5703 413.508 26.6055 413.508 26.6289C413.508 26.6523 413.508 26.6875 413.508 26.7344C413.531 26.7578 413.543 26.8516 413.543 27.0156L413.402 27.4375C413.285 27.6016 413.145 27.7305 412.98 27.8242C412.816 27.918 412.652 28 412.488 28.0703C412.441 28.1172 412.371 28.1523 412.277 28.1758C412.184 28.2227 412.113 28.2695 412.066 28.3164L411.961 28.7383L411.504 28.8086C411.105 28.9023 410.766 28.9492 410.484 28.9492H410.062C409.781 28.6914 409.559 28.4922 409.395 28.3516C409.23 28.2109 409.055 28.082 408.867 27.9648C408.633 27.6367 408.504 27.4023 408.48 27.2617C408.457 27.0977 408.422 26.9453 408.375 26.8047C408.328 26.5 408.27 26.3008 408.199 26.207L407.707 25.7148L408.129 25.3984L407.742 24.7305C408.023 24.5195 408.234 24.3672 408.375 24.2734C408.516 24.1797 408.633 24.0859 408.727 23.9922C408.82 23.875 408.926 23.7344 409.043 23.5703C409.16 23.4062 409.348 23.1367 409.605 22.7617L409.922 22.3047L410.379 22.5508C410.473 22.6211 410.672 22.6914 410.977 22.7617C411.305 22.8086 411.586 22.8555 411.82 22.9023C412.219 23.0195 412.594 23.1133 412.945 23.1836C413.297 23.2305 413.578 23.3477 413.789 23.5352L413.93 23.8164Z" fill="black"/>
<path d="M30.744 74.368H33.876L26.604 100H23.22L19.548 86.932C18.636 83.74 17.856 80.848 17.208 78.256C16.56 80.848 15.78 83.74 14.868 86.932L11.196 100H7.812L0.54 74.368H3.672L7.164 87.004C8.148 90.46 8.952 93.52 9.576 96.184L12.024 86.932L15.516 74.368H18.9L22.392 86.932L24.84 96.184C25.464 93.52 26.268 90.46 27.252 87.004L30.744 74.368ZM52.778 90.712V91.72H38.666C38.81 93.76 39.374 95.284 40.358 96.292C41.366 97.3 42.71 97.804 44.39 97.804C46.958 97.804 48.602 96.652 49.322 94.348H52.31C51.83 96.172 50.906 97.648 49.538 98.776C48.194 99.88 46.454 100.432 44.318 100.432C41.75 100.432 39.662 99.556 38.054 97.804C36.47 96.052 35.678 93.688 35.678 90.712C35.678 87.784 36.458 85.432 38.018 83.656C39.602 81.88 41.678 80.992 44.246 80.992C46.91 80.992 48.998 81.916 50.51 83.764C52.022 85.612 52.778 87.928 52.778 90.712ZM44.246 83.62C42.758 83.62 41.522 84.088 40.538 85.024C39.578 85.96 38.978 87.328 38.738 89.128H49.682C49.538 87.52 48.986 86.2 48.026 85.168C47.09 84.136 45.83 83.62 44.246 83.62ZM85.6226 81.424H88.7186L82.5266 100H79.5026L76.7666 91.396C76.0706 89.164 75.4466 87.064 74.8946 85.096L72.9866 91.396L70.2866 100H67.2626L61.0706 81.424H64.1666L66.7946 89.812C67.3466 91.54 68.0186 93.796 68.8106 96.58C69.4586 94.228 70.1186 91.972 70.7906 89.812L73.3826 81.424H76.4066L78.9986 89.812L81.0146 96.508C81.4226 95.02 82.0826 92.788 82.9946 89.812L85.6226 81.424ZM105.65 97.768C103.97 99.544 101.81 100.432 99.1702 100.432C96.5302 100.432 94.3702 99.544 92.6902 97.768C91.0102 95.992 90.1702 93.64 90.1702 90.712C90.1702 87.784 91.0102 85.432 92.6902 83.656C94.3702 81.88 96.5302 80.992 99.1702 80.992C101.81 80.992 103.97 81.88 105.65 83.656C107.33 85.432 108.17 87.784 108.17 90.712C108.17 93.64 107.33 95.992 105.65 97.768ZM94.8142 95.968C95.8942 97.216 97.3462 97.84 99.1702 97.84C100.994 97.84 102.446 97.216 103.526 95.968C104.606 94.696 105.146 92.944 105.146 90.712C105.146 88.48 104.606 86.74 103.526 85.492C102.446 84.22 100.994 83.584 99.1702 83.584C97.3462 83.584 95.8942 84.22 94.8142 85.492C93.7342 86.74 93.1942 88.48 93.1942 90.712C93.1942 92.944 93.7342 94.696 94.8142 95.968ZM120.313 81.136C120.697 81.136 121.021 81.148 121.285 81.172V83.944H120.565C118.669 83.944 117.181 84.412 116.101 85.348C115.021 86.284 114.481 87.64 114.481 89.416V100H111.601V81.424H114.337V84.7C115.609 82.324 117.601 81.136 120.313 81.136ZM136.784 100L130.52 90.028L127.208 93.124V100H124.328V74.368H127.208V89.74L135.812 81.424H139.628L132.572 88.12L140.132 100H136.784ZM149.324 100V74.368H152.204V100H149.324ZM156.423 78.616V75.088H159.483V78.616H156.423ZM156.531 100V81.424H159.411V100H156.531ZM176.194 100L169.93 90.028L166.618 93.124V100H163.738V74.368H166.618V89.74L175.222 81.424H179.038L171.982 88.12L179.542 100H176.194ZM198.079 90.712V91.72H183.967C184.111 93.76 184.675 95.284 185.659 96.292C186.667 97.3 188.011 97.804 189.691 97.804C192.259 97.804 193.903 96.652 194.623 94.348H197.611C197.131 96.172 196.207 97.648 194.839 98.776C193.495 99.88 191.755 100.432 189.619 100.432C187.051 100.432 184.963 99.556 183.355 97.804C181.771 96.052 180.979 93.688 180.979 90.712C180.979 87.784 181.759 85.432 183.319 83.656C184.903 81.88 186.979 80.992 189.547 80.992C192.211 80.992 194.299 81.916 195.811 83.764C197.323 85.612 198.079 87.928 198.079 90.712ZM189.547 83.62C188.059 83.62 186.823 84.088 185.839 85.024C184.879 85.96 184.279 87.328 184.039 89.128H194.983C194.839 87.52 194.287 86.2 193.327 85.168C192.391 84.136 191.131 83.62 189.547 83.62Z" fill="black"/>
<path d="M30.744 153.368H33.876L26.604 179H23.22L19.548 165.932C18.636 162.74 17.856 159.848 17.208 157.256C16.56 159.848 15.78 162.74 14.868 165.932L11.196 179H7.812L0.54 153.368H3.672L7.164 166.004C8.148 169.46 8.952 172.52 9.576 175.184L12.024 165.932L15.516 153.368H18.9L22.392 165.932L24.84 175.184C25.464 172.52 26.268 169.46 27.252 166.004L30.744 153.368ZM52.778 169.712V170.72H38.666C38.81 172.76 39.374 174.284 40.358 175.292C41.366 176.3 42.71 176.804 44.39 176.804C46.958 176.804 48.602 175.652 49.322 173.348H52.31C51.83 175.172 50.906 176.648 49.538 177.776C48.194 178.88 46.454 179.432 44.318 179.432C41.75 179.432 39.662 178.556 38.054 176.804C36.47 175.052 35.678 172.688 35.678 169.712C35.678 166.784 36.458 164.432 38.018 162.656C39.602 160.88 41.678 159.992 44.246 159.992C46.91 159.992 48.998 160.916 50.51 162.764C52.022 164.612 52.778 166.928 52.778 169.712ZM44.246 162.62C42.758 162.62 41.522 163.088 40.538 164.024C39.578 164.96 38.978 166.328 38.738 168.128H49.682C49.538 166.52 48.986 165.2 48.026 164.168C47.09 163.136 45.83 162.62 44.246 162.62ZM72.1586 159.992C74.7746 159.992 76.8626 160.88 78.4226 162.656C80.0066 164.408 80.7986 166.76 80.7986 169.712C80.7986 172.664 80.0066 175.028 78.4226 176.804C76.8626 178.556 74.7746 179.432 72.1586 179.432C69.3746 179.432 67.2506 178.328 65.7866 176.12V179H63.0506V153.368H65.9306V163.088C67.3946 161.024 69.4706 159.992 72.1586 159.992ZM71.7986 176.84C73.5986 176.84 75.0386 176.192 76.1186 174.896C77.2226 173.576 77.7746 171.8 77.7746 169.568C77.7746 167.36 77.2346 165.644 76.1546 164.42C75.0746 163.196 73.6226 162.584 71.7986 162.584C69.9746 162.584 68.5226 163.22 67.4426 164.492C66.3626 165.74 65.8226 167.48 65.8226 169.712C65.8226 171.944 66.3626 173.696 67.4426 174.968C68.5226 176.216 69.9746 176.84 71.7986 176.84ZM96.4547 160.424H99.3347V179H96.5987V176.228C95.2067 178.364 93.2627 179.432 90.7667 179.432C88.7027 179.432 87.0947 178.868 85.9427 177.74C84.7907 176.612 84.2147 175.028 84.2147 172.988V160.424H87.0947V172.7C87.0947 175.46 88.5107 176.84 91.3427 176.84C92.6867 176.84 93.8747 176.336 94.9067 175.328C95.9387 174.32 96.4547 172.856 96.4547 170.936V160.424ZM103.548 157.616V154.088H106.608V157.616H103.548ZM103.656 179V160.424H106.536V179H103.656ZM110.863 179V153.368H113.743V179H110.863ZM132.038 153.368H134.918V179H132.182V176.12C130.718 178.328 128.594 179.432 125.81 179.432C123.194 179.432 121.094 178.556 119.51 176.804C117.95 175.028 117.17 172.664 117.17 169.712C117.17 166.76 117.95 164.408 119.51 162.656C121.094 160.88 123.194 159.992 125.81 159.992C128.498 159.992 130.574 161.024 132.038 163.088V153.368ZM121.814 175.004C122.894 176.228 124.346 176.84 126.17 176.84C127.994 176.84 129.446 176.216 130.526 174.968C131.606 173.696 132.146 171.944 132.146 169.712C132.146 167.48 131.606 165.74 130.526 164.492C129.446 163.22 127.994 162.584 126.17 162.584C124.37 162.584 122.918 163.244 121.814 164.564C120.734 165.86 120.194 167.624 120.194 169.856C120.194 172.064 120.734 173.78 121.814 175.004ZM146.09 179V153.368H148.97V179H146.09ZM153.189 157.616V154.088H156.249V157.616H153.189ZM153.297 179V160.424H156.177V179H153.297ZM172.96 179L166.696 169.028L163.384 172.124V179H160.504V153.368H163.384V168.74L171.988 160.424H175.804L168.748 167.12L176.308 179H172.96ZM194.844 169.712V170.72H180.732C180.876 172.76 181.44 174.284 182.424 175.292C183.432 176.3 184.776 176.804 186.456 176.804C189.024 176.804 190.668 175.652 191.388 173.348H194.376C193.896 175.172 192.972 176.648 191.604 177.776C190.26 178.88 188.52 179.432 186.384 179.432C183.816 179.432 181.728 178.556 180.12 176.804C178.536 175.052 177.744 172.688 177.744 169.712C177.744 166.784 178.524 164.432 180.084 162.656C181.668 160.88 183.744 159.992 186.312 159.992C188.976 159.992 191.064 160.916 192.576 162.764C194.088 164.612 194.844 166.928 194.844 169.712ZM186.312 162.62C184.824 162.62 183.588 163.088 182.604 164.024C181.644 164.96 181.044 166.328 180.804 168.128H191.748C191.604 166.52 191.052 165.2 190.092 164.168C189.156 163.136 187.896 162.62 186.312 162.62ZM208.5 171.244C208.599 173.025 209.199 174.405 210.3 175.382C211.413 176.347 212.928 176.829 214.846 176.829C216.293 176.829 217.87 176.446 219.577 175.679C221.284 174.899 222.317 174.51 222.676 174.51C223.047 174.51 223.356 174.627 223.604 174.862C223.851 175.097 223.975 175.388 223.975 175.734C223.975 176.093 223.845 176.421 223.585 176.718C223.325 177.015 222.911 177.305 222.342 177.59C221.105 178.196 219.825 178.66 218.501 178.981C217.19 179.303 215.885 179.464 214.586 179.464C211.766 179.464 209.508 178.654 207.813 177.033C206.119 175.4 205.271 173.242 205.271 170.558C205.271 167.824 206.168 165.61 207.962 163.915C209.756 162.22 212.093 161.373 214.976 161.373C217.586 161.373 219.75 162.165 221.47 163.748C223.189 165.331 224.049 167.249 224.049 169.5C224.049 170.193 223.9 170.657 223.604 170.892C223.319 171.127 222.534 171.244 221.247 171.244H220.969H208.5ZM208.593 168.813H220.672C220.486 167.341 219.868 166.16 218.816 165.27C217.777 164.367 216.497 163.915 214.976 163.915C213.33 163.915 211.945 164.348 210.819 165.214C209.694 166.08 208.951 167.28 208.593 168.813ZM230.691 176.384V164.49H230.339C229.498 164.49 228.916 164.391 228.595 164.193C228.285 163.995 228.131 163.649 228.131 163.154C228.131 162.697 228.261 162.369 228.521 162.171C228.78 161.961 229.201 161.855 229.782 161.855H230.654H232.436C232.77 161.855 233.029 161.924 233.215 162.06C233.4 162.196 233.493 162.381 233.493 162.616V163.878C234.396 163.037 235.287 162.418 236.165 162.022C237.056 161.614 237.977 161.41 238.93 161.41C240.798 161.41 242.263 161.992 243.327 163.154C244.403 164.317 244.941 165.925 244.941 167.979V176.384H245.813C246.432 176.384 246.877 176.489 247.149 176.699C247.422 176.897 247.558 177.219 247.558 177.664C247.558 178.146 247.409 178.493 247.112 178.703C246.828 178.901 246.314 179 245.572 179H241.472C240.68 179 240.173 178.907 239.95 178.722C239.728 178.536 239.616 178.184 239.616 177.664C239.616 177.182 239.746 176.848 240.006 176.662C240.266 176.477 240.754 176.384 241.472 176.384H242.121V168.665C242.121 167.218 241.793 166.117 241.138 165.362C240.482 164.595 239.53 164.212 238.28 164.212C237.019 164.212 235.905 164.639 234.94 165.492C233.976 166.346 233.493 167.403 233.493 168.665V176.384H234.143C234.885 176.384 235.386 176.477 235.646 176.662C235.905 176.848 236.035 177.182 236.035 177.664C236.035 178.184 235.924 178.536 235.701 178.722C235.479 178.907 234.934 179 234.068 179H230.691H229.689C229.182 179 228.799 178.895 228.539 178.685C228.292 178.462 228.168 178.122 228.168 177.664C228.168 177.169 228.31 176.835 228.595 176.662C228.892 176.477 229.461 176.384 230.302 176.384H230.691ZM259.896 164.602C258.276 164.602 256.952 165.103 255.926 166.104C254.899 167.106 254.386 168.405 254.386 170.001C254.386 171.572 254.899 172.865 255.926 173.879C256.952 174.881 258.276 175.382 259.896 175.382C261.505 175.382 262.822 174.881 263.849 173.879C264.888 172.865 265.407 171.572 265.407 170.001C265.407 168.43 264.888 167.137 263.849 166.123C262.822 165.109 261.505 164.602 259.896 164.602ZM267.949 178.017C267.949 179.748 267.863 180.973 267.689 181.69C267.516 182.42 267.219 183.057 266.799 183.602C266.106 184.517 265.135 185.21 263.886 185.68C262.636 186.162 261.164 186.403 259.47 186.403C258.06 186.403 257.027 186.267 256.371 185.995C255.728 185.723 255.406 185.29 255.406 184.696C255.406 184.313 255.561 183.973 255.87 183.676C256.192 183.391 256.569 183.249 257.002 183.249C257.336 183.249 257.849 183.292 258.542 183.379C259.235 183.478 259.76 183.527 260.119 183.527C261.95 183.527 263.249 183.107 264.016 182.266C264.783 181.424 265.166 179.983 265.166 177.942V175.697C264.411 176.576 263.576 177.219 262.661 177.627C261.746 178.035 260.694 178.239 259.507 178.239C257.194 178.239 255.276 177.472 253.755 175.938C252.246 174.392 251.491 172.438 251.491 170.075C251.491 167.7 252.271 165.733 253.829 164.175C255.388 162.604 257.317 161.818 259.618 161.818C260.571 161.818 261.498 161.998 262.401 162.356C263.317 162.703 264.238 163.235 265.166 163.952V162.616C265.166 162.356 265.246 162.165 265.407 162.041C265.58 161.917 265.846 161.855 266.205 161.855H269.007C269.502 161.855 269.873 161.967 270.12 162.189C270.368 162.4 270.491 162.721 270.491 163.154C270.491 163.649 270.337 163.995 270.027 164.193C269.718 164.391 269.137 164.49 268.283 164.49H267.949V178.017ZM281.531 156.512C281.531 155.176 281.649 154.335 281.884 153.988C282.131 153.642 282.651 153.469 283.442 153.469C284.209 153.469 284.716 153.617 284.964 153.914C285.211 154.199 285.335 154.885 285.335 155.974C285.335 157.037 285.217 157.699 284.982 157.959C284.76 158.206 284.246 158.33 283.442 158.33C282.651 158.33 282.131 158.213 281.884 157.978C281.649 157.743 281.531 157.254 281.531 156.512ZM284.964 176.384H290.92C291.402 176.384 291.755 176.489 291.978 176.699C292.213 176.897 292.33 177.219 292.33 177.664C292.33 178.171 292.219 178.524 291.996 178.722C291.786 178.907 291.39 179 290.809 179H276.41C275.915 179 275.544 178.889 275.297 178.666C275.049 178.443 274.926 178.109 274.926 177.664C274.926 177.231 275.056 176.91 275.315 176.699C275.575 176.489 275.965 176.384 276.484 176.384H282.144V164.49H278.525C278.018 164.49 277.629 164.379 277.356 164.156C277.097 163.921 276.967 163.587 276.967 163.154C276.967 162.721 277.09 162.4 277.338 162.189C277.585 161.967 277.956 161.855 278.451 161.855H283.888C284.222 161.855 284.481 161.924 284.667 162.06C284.865 162.196 284.964 162.381 284.964 162.616V176.384ZM299.158 176.384V164.49H298.806C297.965 164.49 297.383 164.391 297.062 164.193C296.752 163.995 296.598 163.649 296.598 163.154C296.598 162.697 296.728 162.369 296.987 162.171C297.247 161.961 297.668 161.855 298.249 161.855H299.121H300.902C301.236 161.855 301.496 161.924 301.682 162.06C301.867 162.196 301.96 162.381 301.96 162.616V163.878C302.863 163.037 303.754 162.418 304.632 162.022C305.522 161.614 306.444 161.41 307.396 161.41C309.264 161.41 310.73 161.992 311.794 163.154C312.87 164.317 313.408 165.925 313.408 167.979V176.384H314.28C314.899 176.384 315.344 176.489 315.616 176.699C315.888 176.897 316.024 177.219 316.024 177.664C316.024 178.146 315.876 178.493 315.579 178.703C315.295 178.901 314.781 179 314.039 179H309.938C309.147 179 308.64 178.907 308.417 178.722C308.194 178.536 308.083 178.184 308.083 177.664C308.083 177.182 308.213 176.848 308.473 176.662C308.732 176.477 309.221 176.384 309.938 176.384H310.588V168.665C310.588 167.218 310.26 166.117 309.604 165.362C308.949 164.595 307.996 164.212 306.747 164.212C305.485 164.212 304.372 164.639 303.407 165.492C302.442 166.346 301.96 167.403 301.96 168.665V176.384H302.609C303.352 176.384 303.853 176.477 304.112 176.662C304.372 176.848 304.502 177.182 304.502 177.664C304.502 178.184 304.391 178.536 304.168 178.722C303.945 178.907 303.401 179 302.535 179H299.158H298.156C297.649 179 297.266 178.895 297.006 178.685C296.758 178.462 296.635 178.122 296.635 177.664C296.635 177.169 296.777 176.835 297.062 176.662C297.358 176.477 297.927 176.384 298.769 176.384H299.158ZM322.611 171.244C322.71 173.025 323.31 174.405 324.411 175.382C325.524 176.347 327.04 176.829 328.957 176.829C330.404 176.829 331.981 176.446 333.688 175.679C335.396 174.899 336.428 174.51 336.787 174.51C337.158 174.51 337.467 174.627 337.715 174.862C337.962 175.097 338.086 175.388 338.086 175.734C338.086 176.093 337.956 176.421 337.696 176.718C337.437 177.015 337.022 177.305 336.453 177.59C335.216 178.196 333.936 178.66 332.612 178.981C331.301 179.303 329.996 179.464 328.697 179.464C325.877 179.464 323.619 178.654 321.925 177.033C320.23 175.4 319.383 173.242 319.383 170.558C319.383 167.824 320.28 165.61 322.073 163.915C323.867 162.22 326.205 161.373 329.087 161.373C331.697 161.373 333.862 162.165 335.581 163.748C337.3 165.331 338.16 167.249 338.16 169.5C338.16 170.193 338.012 170.657 337.715 170.892C337.43 171.127 336.645 171.244 335.358 171.244H335.08H322.611ZM322.704 168.813H334.783C334.598 167.341 333.979 166.16 332.928 165.27C331.889 164.367 330.608 163.915 329.087 163.915C327.442 163.915 326.056 164.348 324.931 165.214C323.805 166.08 323.063 167.28 322.704 168.813ZM345.434 171.244C345.533 173.025 346.132 174.405 347.233 175.382C348.347 176.347 349.862 176.829 351.779 176.829C353.227 176.829 354.804 176.446 356.511 175.679C358.218 174.899 359.251 174.51 359.609 174.51C359.98 174.51 360.29 174.627 360.537 174.862C360.785 175.097 360.908 175.388 360.908 175.734C360.908 176.093 360.778 176.421 360.519 176.718C360.259 177.015 359.844 177.305 359.275 177.59C358.038 178.196 356.758 178.66 355.435 178.981C354.123 179.303 352.818 179.464 351.52 179.464C348.699 179.464 346.442 178.654 344.747 177.033C343.052 175.4 342.205 173.242 342.205 170.558C342.205 167.824 343.102 165.61 344.896 163.915C346.689 162.22 349.027 161.373 351.909 161.373C354.519 161.373 356.684 162.165 358.403 163.748C360.123 165.331 360.982 167.249 360.982 169.5C360.982 170.193 360.834 170.657 360.537 170.892C360.253 171.127 359.467 171.244 358.181 171.244H357.902H345.434ZM345.526 168.813H357.605C357.42 167.341 356.801 166.16 355.75 165.27C354.711 164.367 353.431 163.915 351.909 163.915C350.264 163.915 348.879 164.348 347.753 165.214C346.627 166.08 345.885 167.28 345.526 168.813ZM372.709 176.384H378.869C379.352 176.384 379.704 176.489 379.927 176.699C380.162 176.897 380.279 177.219 380.279 177.664C380.279 178.171 380.168 178.524 379.945 178.722C379.735 178.907 379.339 179 378.758 179H366.623C366.141 179 365.776 178.889 365.528 178.666C365.281 178.443 365.157 178.109 365.157 177.664C365.157 177.231 365.281 176.91 365.528 176.699C365.788 176.489 366.184 176.384 366.716 176.384H369.944V164.49H368.683C367.483 164.49 366.734 164.397 366.438 164.212C366.141 164.014 365.992 163.661 365.992 163.154C365.992 162.721 366.11 162.4 366.345 162.189C366.592 161.967 366.963 161.855 367.458 161.855H371.688C372.022 161.855 372.276 161.924 372.449 162.06C372.622 162.183 372.709 162.369 372.709 162.616V165.771C373.884 164.299 375.109 163.204 376.383 162.486C377.657 161.769 379.03 161.41 380.502 161.41C381.603 161.41 382.493 161.633 383.174 162.078C383.854 162.523 384.194 163.099 384.194 163.804C384.194 164.261 384.021 164.67 383.675 165.028C383.341 165.375 382.97 165.548 382.562 165.548C382.277 165.548 381.795 165.362 381.114 164.991C380.446 164.608 379.846 164.416 379.314 164.416C378.35 164.416 377.329 164.762 376.253 165.455C375.189 166.135 374.008 167.218 372.709 168.702V176.384ZM389.26 177.664V174.361C389.26 173.817 389.359 173.427 389.557 173.192C389.767 172.957 390.101 172.84 390.559 172.84C391.066 172.84 391.468 173.186 391.765 173.879C391.963 174.299 392.142 174.615 392.303 174.825C392.822 175.493 393.589 176.031 394.604 176.439C395.618 176.835 396.737 177.033 397.962 177.033C399.273 177.033 400.325 176.767 401.116 176.235C401.908 175.703 402.304 175.005 402.304 174.139C402.304 173.26 401.982 172.636 401.339 172.265C400.708 171.894 399.619 171.708 398.073 171.708H397.053C394.529 171.708 392.606 171.269 391.282 170.391C389.959 169.512 389.297 168.238 389.297 166.568C389.297 164.936 389.94 163.668 391.227 162.765C392.525 161.862 394.344 161.41 396.682 161.41C397.634 161.41 398.605 161.546 399.595 161.818C400.584 162.078 401.104 162.208 401.153 162.208C401.289 162.208 401.549 162.09 401.933 161.855C402.316 161.608 402.693 161.484 403.064 161.484C403.485 161.484 403.794 161.639 403.992 161.948C404.202 162.257 404.308 162.721 404.308 163.34V165.511C404.308 166.166 404.209 166.643 404.011 166.939C403.813 167.224 403.497 167.366 403.064 167.366C402.693 167.366 402.236 167.051 401.691 166.42C401.308 165.987 400.993 165.659 400.745 165.437C400.09 164.83 399.391 164.397 398.648 164.138C397.906 163.866 397.034 163.729 396.032 163.729C394.869 163.729 393.929 163.989 393.212 164.509C392.507 165.016 392.154 165.665 392.154 166.457C392.154 167.236 392.519 167.793 393.249 168.127C393.979 168.461 395.55 168.653 397.962 168.702C400.535 168.764 402.415 169.215 403.603 170.057C404.79 170.885 405.384 172.172 405.384 173.916C405.384 175.586 404.728 176.922 403.417 177.924C402.106 178.926 400.337 179.427 398.11 179.427C397.405 179.427 396.62 179.359 395.754 179.223C394.888 179.099 393.799 178.882 392.488 178.573C392.055 178.858 391.684 179.068 391.375 179.204C391.066 179.353 390.806 179.427 390.596 179.427C390.163 179.427 389.829 179.278 389.594 178.981C389.371 178.672 389.26 178.233 389.26 177.664ZM416.535 175.957C416.535 174.992 416.869 174.201 417.537 173.582C418.217 172.964 419.096 172.654 420.172 172.654C421.273 172.654 422.157 172.957 422.825 173.563C423.493 174.17 423.827 174.967 423.827 175.957C423.827 176.947 423.487 177.744 422.807 178.351C422.139 178.957 421.26 179.26 420.172 179.26C419.083 179.26 418.205 178.957 417.537 178.351C416.869 177.744 416.535 176.947 416.535 175.957Z" fill="black"/>
<path d="M160.952 270.368H165.992L158.9 296H153.428L150.692 285.344C149.708 281.288 149.012 278.264 148.604 276.272C148.004 279.2 147.308 282.224 146.516 285.344L143.78 296H138.344L131.216 270.368H136.292L138.956 280.7C140.156 285.5 140.936 288.752 141.296 290.456C141.944 287.384 142.676 284.12 143.492 280.664L146.12 270.368H151.124L153.752 280.664C154.424 283.4 155.144 286.676 155.912 290.492C156.488 287.9 157.268 284.636 158.252 280.7L160.952 270.368ZM185.559 287.036V288.116H171.663C171.831 289.724 172.335 290.924 173.175 291.716C174.015 292.508 175.119 292.904 176.487 292.904C178.575 292.904 179.991 292.016 180.735 290.24H185.091C184.611 292.136 183.603 293.648 182.067 294.776C180.531 295.88 178.659 296.432 176.451 296.432C173.691 296.432 171.459 295.556 169.755 293.804C168.051 292.028 167.199 289.664 167.199 286.712C167.199 283.808 168.039 281.468 169.719 279.692C171.399 277.892 173.619 276.992 176.379 276.992C179.187 276.992 181.419 277.916 183.075 279.764C184.731 281.612 185.559 284.036 185.559 287.036ZM176.343 280.52C175.095 280.52 174.063 280.892 173.247 281.636C172.431 282.356 171.915 283.46 171.699 284.948H181.023C180.831 283.604 180.327 282.536 179.511 281.744C178.719 280.928 177.663 280.52 176.343 280.52ZM206.266 296.576C202.81 296.576 200.122 295.808 198.202 294.272C196.282 292.712 195.31 290.468 195.286 287.54H200.074C200.098 289.436 200.662 290.768 201.766 291.536C202.894 292.28 204.442 292.652 206.41 292.652C208.09 292.652 209.374 292.34 210.262 291.716C211.15 291.068 211.594 290.144 211.594 288.944C211.594 287.936 211.21 287.168 210.442 286.64C209.674 286.112 208.306 285.644 206.338 285.236L204.178 284.804C198.682 283.772 195.934 281.18 195.934 277.028C195.934 274.844 196.762 273.092 198.418 271.772C200.098 270.452 202.438 269.792 205.438 269.792C208.894 269.792 211.474 270.524 213.178 271.988C214.882 273.452 215.782 275.456 215.878 278H211.162C211.066 276.56 210.586 275.492 209.722 274.796C208.858 274.076 207.454 273.716 205.51 273.716C203.998 273.716 202.846 274.004 202.054 274.58C201.286 275.132 200.902 275.9 200.902 276.884C200.902 277.916 201.262 278.708 201.982 279.26C202.702 279.812 204.01 280.28 205.906 280.664L208.138 281.096C211.138 281.696 213.298 282.596 214.618 283.796C215.962 284.996 216.634 286.628 216.634 288.692C216.634 291.212 215.71 293.156 213.862 294.524C212.038 295.892 209.506 296.576 206.266 296.576ZM229.476 276.992C232.02 276.992 234.036 277.88 235.524 279.656C237.036 281.408 237.792 283.76 237.792 286.712C237.792 289.664 237.036 292.028 235.524 293.804C234.036 295.556 232.02 296.432 229.476 296.432C226.956 296.432 225.036 295.484 223.716 293.588V303.056H219.18V277.424H223.536V280.088C224.88 278.024 226.86 276.992 229.476 276.992ZM224.868 291.176C225.732 292.184 226.908 292.688 228.396 292.688C229.884 292.688 231.048 292.16 231.888 291.104C232.752 290.024 233.184 288.512 233.184 286.568C233.184 284.648 232.764 283.196 231.924 282.212C231.084 281.228 229.908 280.736 228.396 280.736C226.908 280.736 225.732 281.252 224.868 282.284C224.028 283.292 223.608 284.768 223.608 286.712C223.608 288.656 224.028 290.144 224.868 291.176ZM250.561 277.136C251.041 277.136 251.413 277.16 251.677 277.208V281.384H250.525C248.821 281.384 247.501 281.816 246.565 282.68C245.629 283.544 245.161 284.84 245.161 286.568V296H240.625V277.424H245.017V280.736C246.049 278.336 247.897 277.136 250.561 277.136ZM254.372 275.012V270.764H258.836V275.012H254.372ZM254.336 296V277.424H258.872V296H254.336ZM272.715 276.992C274.707 276.992 276.291 277.568 277.467 278.72C278.643 279.872 279.231 281.528 279.231 283.688V296H274.695V284.444C274.695 282.092 273.531 280.916 271.203 280.916C270.099 280.916 269.127 281.312 268.287 282.104C267.471 282.896 267.063 284.06 267.063 285.596V296H262.527V277.424H266.919V280.088C268.311 278.024 270.243 276.992 272.715 276.992ZM292.602 280.88H288.93V290.924C288.93 291.524 289.086 291.944 289.398 292.184C289.734 292.424 290.286 292.544 291.054 292.544H292.602V296C291.498 296.096 290.706 296.144 290.226 296.144C288.234 296.144 286.77 295.772 285.834 295.028C284.898 294.284 284.43 293.072 284.43 291.392V280.88H281.55V277.424H284.43V272.024H288.93V277.424H292.602V280.88ZM294.79 296V290.852H300.082V296H294.79Z" fill="black"/>
<defs>
<linearGradient id="paint0_linear" x1="703.211" y1="63.0591" x2="703.211" y2="111.459" gradientUnits="userSpaceOnUse">
<stop stop-color="#40B2FB"/>
<stop offset="1" stop-color="#36A9FC"/>
</linearGradient>
</defs>
</svg>
