<svg width="18" height="15" viewBox="0 0 18 15" fill="none" xmlns="http://www.w3.org/2000/svg">
<path d="M16.1665 4.117L16.1553 3.63892C16.877 3.12149 17.5051 2.4709 18 1.73225C17.3382 2.0247 16.6239 2.22532 15.8796 2.31345C16.6427 1.85603 17.2276 1.13237 17.5032 0.26994C16.7889 0.691779 15.9977 0.999216 15.1578 1.1661C14.4829 0.44805 13.523 0 12.4618 0C10.422 0 8.76845 1.65362 8.76845 3.69152C8.76845 3.98021 8.80027 4.26329 8.86404 4.53329C5.79498 4.37954 3.07276 2.9097 1.25232 0.674942C0.935508 1.2205 0.753636 1.85418 0.753636 2.53097C0.753636 3.81147 1.40607 4.94199 2.39597 5.6038C1.79041 5.58314 1.22235 5.41816 0.723663 5.1407V5.18757C0.723663 6.97613 1.99664 8.46657 3.68585 8.8078C3.3765 8.89217 3.05031 8.93528 2.71284 8.93528C2.47288 8.93528 2.24413 8.91276 2.0173 8.87151C2.48786 10.3376 3.85088 11.4062 5.46695 11.4362C4.20334 12.4261 2.61164 13.0167 0.881175 13.0167C0.583051 13.0167 0.28875 12.9979 0 12.9642C1.63481 14.0123 3.57527 14.6234 5.66004 14.6234C12.4525 14.6234 16.1665 8.99898 16.1665 4.117Z" fill="black"/>
</svg>
